<svg width="24" height="15" viewBox="0 0 24 15" fill="none" xmlns="http://www.w3.org/2000/svg">
<g clip-path="url(#clip0_302_955)">
<path fill-rule="evenodd" clip-rule="evenodd" d="M15.8417 1.18001C16.2496 0.788058 16.9111 0.788058 17.319 1.18001L23.2386 6.86752C23.6466 7.25947 23.6466 7.89497 23.2386 8.28693L17.319 13.9744C16.9111 14.3664 16.2496 14.3664 15.8417 13.9744C15.4337 13.5824 15.4337 12.947 15.8417 12.5551L19.978 8.5809H1.04464C0.467708 8.5809 0 8.13153 0 7.57722C0 7.02291 0.467708 6.57354 1.04464 6.57354H19.978L15.8417 2.59943C15.4337 2.20747 15.4337 1.57197 15.8417 1.18001Z" fill="#050505"/>
</g>
<defs>
<clipPath id="clip0_302_955">
<rect width="24" height="14" fill="white" transform="translate(0 0.5)"/>
</clipPath>
</defs>
</svg>
