<svg width="24" height="15" viewBox="0 0 24 15" fill="none" xmlns="http://www.w3.org/2000/svg">
<g clip-path="url(#clip0_353_665)">
<path fill-rule="evenodd" clip-rule="evenodd" d="M15.8417 1.1802C16.2496 0.788242 16.9111 0.788242 17.319 1.1802L23.2386 6.8677C23.6466 7.25965 23.6466 7.89516 23.2386 8.28711L17.319 13.9746C16.9111 14.3665 16.2496 14.3665 15.8417 13.9746C15.4337 13.5826 15.4337 12.9472 15.8417 12.5552L19.978 8.58108H1.04464C0.467708 8.58108 0 8.13172 0 7.5774C0 7.02309 0.467708 6.57373 1.04464 6.57373H19.978L15.8417 2.59961C15.4337 2.20765 15.4337 1.57215 15.8417 1.1802Z" fill="white"/>
</g>
<defs>
<clipPath id="clip0_353_665">
<rect width="24" height="14" fill="white" transform="translate(0 0.5)"/>
</clipPath>
</defs>
</svg>
