<svg width="111" height="35" viewBox="0 0 111 35" fill="none" xmlns="http://www.w3.org/2000/svg">
<path d="M17.9804 30.4054C17.3648 30.4054 16.9162 30.6292 16.6317 31.078V28.7725H15.6919V34.8828H16.6317V32.5433C16.6317 32.118 16.7329 31.8025 16.9367 31.5965C17.1391 31.3905 17.4072 31.2862 17.7369 31.2862C18.0378 31.2862 18.2759 31.3742 18.4509 31.5486C18.6246 31.7227 18.7122 31.974 18.7122 32.2991V34.8828H19.652V32.203C19.652 31.6444 19.4987 31.2053 19.191 30.8842C18.8818 30.5661 18.4796 30.4054 17.9804 30.4054Z" fill="white"/>
<path d="M42.6296 30.4058C41.9566 30.4058 41.4053 30.6251 40.9757 31.0646C40.5461 31.5037 40.3315 32.0497 40.3315 32.7015C40.3315 33.3655 40.5491 33.913 40.9839 34.3469C41.419 34.7804 41.9906 34.9972 42.6981 34.9972C43.5391 34.9972 44.174 34.6802 44.6035 34.0462L43.8291 33.5919C43.5801 33.9531 43.2053 34.1327 42.7062 34.1327C42.3466 34.1327 42.0413 34.0436 41.7923 33.8666C41.5437 33.6895 41.3835 33.4342 41.3135 33.1023H44.7771C44.8004 32.939 44.8115 32.8084 44.8115 32.7096C44.8115 32.069 44.6061 31.5256 44.1973 31.0768C43.7921 30.6296 43.2682 30.4058 42.6296 30.4058ZM41.3069 32.3351C41.3712 32.0029 41.5189 31.7409 41.7501 31.549C41.9825 31.3567 42.2726 31.2606 42.62 31.2606C42.9278 31.2606 43.1961 31.3511 43.4244 31.5312C43.6541 31.7108 43.8007 31.9795 43.8636 32.3336H41.3069V32.3351Z" fill="white"/>
<path d="M68.9822 31.1385C68.6278 30.65 68.1205 30.4058 67.4597 30.4058C66.8618 30.4058 66.3515 30.6266 65.9275 31.0698C65.5035 31.5119 65.293 32.0564 65.293 32.7029C65.293 33.3436 65.505 33.8859 65.9275 34.3317C66.3515 34.7763 66.8618 35.0001 67.4597 35.0001C68.1216 35.0001 68.6292 34.7529 68.9822 34.2574V34.8862H69.9217V30.5182H68.9822V31.1385ZM68.5897 33.7003C68.3281 33.9653 67.9999 34.0971 67.6058 34.0971C67.2107 34.0971 66.8836 33.9653 66.6224 33.7003C66.3612 33.4356 66.2313 33.1023 66.2313 32.7015C66.2313 32.301 66.3612 31.9673 66.6224 31.7026C66.8836 31.4376 67.2107 31.3059 67.6058 31.3059C67.9999 31.3059 68.3281 31.4391 68.5897 31.7026C68.8509 31.9673 68.9807 32.301 68.9807 32.7015C68.9807 33.1023 68.8509 33.4371 68.5897 33.7003Z" fill="white"/>
<path d="M94.3709 31.1385C94.0164 30.6497 93.5092 30.4054 92.8484 30.4054C92.2504 30.4054 91.7406 30.6267 91.3162 31.0698C90.8922 31.5115 90.6816 32.0564 90.6816 32.7026C90.6816 33.3436 90.8936 33.8855 91.3162 34.3317C91.7406 34.776 92.2504 34.9998 92.8484 34.9998C93.5103 34.9998 94.0179 34.7526 94.3709 34.2575V34.8859H95.3107V28.7754H94.3709V31.1385ZM93.9783 33.7003C93.7171 33.965 93.3886 34.0967 92.9949 34.0967C92.6008 34.0967 92.2726 33.965 92.0114 33.7003C91.7498 33.4353 91.62 33.102 91.62 32.7011C91.62 32.3006 91.7498 31.9673 92.0114 31.7023C92.2726 31.4377 92.5994 31.3059 92.9949 31.3059C93.3886 31.3059 93.7171 31.4388 93.9783 31.7023C94.2396 31.9673 94.3694 32.3006 94.3694 32.7011C94.3694 33.102 94.2396 33.4368 93.9783 33.7003Z" fill="white"/>
<path d="M2.57042 20.1895C1.42413 20.1895 0.491211 21.1006 0.491211 22.2217C0.491211 23.3428 1.42413 24.254 2.57042 24.254C3.71668 24.254 4.64959 23.3428 4.64959 22.2217C4.64959 21.102 3.71668 20.1895 2.57042 20.1895Z" fill="white"/>
<path d="M104.165 2.64015C104.143 1.17736 102.957 0.0315493 101.466 0.0315493H95.4967C94.3353 0.0315493 93.3914 0.94545 93.3914 2.06932C93.3914 3.19316 94.3353 4.10706 95.4967 4.10706H99.1545C99.5375 4.10706 99.7931 4.24016 100.011 4.55302C100.209 4.83845 100.778 6.54414 99.7288 16.4859C99.25 21.0238 96.0754 24.3171 92.1797 24.3171C88.2318 24.3171 85.0202 20.6766 85.0202 16.2032C85.0202 14.1339 85.7232 12.1455 86.9993 10.6032C87.8296 9.60007 88.6669 7.904 88.6669 6.37395C88.6669 6.14617 88.6532 5.91288 88.6284 5.68376C88.2647 2.44254 85.4387 0 82.0532 0C78.4065 0 75.4405 2.85832 75.4405 6.37258C75.4405 6.40966 75.442 14.2793 75.442 14.2793V20.1771C75.442 22.5456 73.9961 24.4736 72.2193 24.4736C70.7038 24.4736 69.3781 23.0396 69.0662 21.0664L68.1512 14.8241L66.5495 3.96709L66.5206 3.77634L66.5154 3.77909C66.3075 2.76093 65.7492 1.83329 64.93 1.14856C64.0531 0.417161 62.9313 0.0137336 61.7713 0.0137336C60.6114 0.0137336 59.4899 0.417161 58.6115 1.14856C57.7923 1.83192 57.2355 2.75955 57.0264 3.77634L57.0168 3.77222L55.3862 14.8214C55.3862 14.8214 54.4627 21.054 54.4616 21.0636C54.1427 23.0368 52.8188 24.4695 51.3114 24.4695C49.5809 24.4695 48.1664 22.6554 48.0924 20.3391L48.0873 20.2032H48.0817L46.8918 4.1441C46.7904 1.82231 44.8302 0.0041203 42.4215 0.0041203C40.1042 0.0041203 38.1824 1.78389 37.9511 4.14273C37.7051 6.65115 36.4027 14.1613 36.3905 14.2327L35.6967 17.7332C35.6105 18.2739 35.1388 18.6649 34.5738 18.6649C34.0266 18.6649 33.5548 18.2931 33.4523 17.7799C33.4479 17.7607 32.7519 14.2423 32.7519 14.2423C32.7519 14.2423 31.1269 3.70363 31.1254 3.69951C30.9626 2.69092 30.4291 1.76604 29.6262 1.09641C28.815 0.419907 27.7782 0.0480298 26.7058 0.0480298C24.4487 0.0480298 22.5419 1.6947 22.267 3.83673L22.2601 3.83399L21.0537 20.1868H21.0441L21.04 20.3418C20.9757 22.6581 19.6078 24.4722 17.9253 24.4722C16.2059 24.4722 14.8079 22.5442 14.8079 20.1716C14.8052 20.0276 14.7997 19.8917 14.7956 19.7545C14.7819 19.3332 14.7696 18.9353 14.786 18.3493C14.786 16.9566 14.481 15.8341 13.8271 14.8145C13.4332 14.1997 12.8956 13.6124 12.187 13.0155C11.1173 12.1167 9.61267 11.5678 7.71405 11.384C7.66618 11.3798 7.62651 11.3757 7.5978 11.3716C5.24091 11.0999 3.7171 9.61377 3.7171 7.58839C3.7171 5.53418 5.45022 3.86416 7.58137 3.86416C9.23242 3.86416 10.6167 5.06761 11.2063 6.18599C11.5318 6.80622 12.1829 7.19046 12.9065 7.19046C13.9653 7.19046 14.8257 6.34927 14.8257 5.31463V5.31051L14.8243 5.2803C14.8106 5.04293 14.7983 4.85493 14.6178 4.4652C13.4127 1.76054 10.6646 0.0123602 7.61693 0.0123602C7.55673 0.0123602 7.49657 0.0123603 7.43637 0.0137336C3.2862 0.107046 -0.0486722 3.44704 0.000537683 7.45941C0.0265486 9.55891 0.985438 11.5541 2.62827 12.9305C3.89356 14.0159 5.90709 14.6224 7.24212 14.7267C9.6332 14.9133 11.3047 16.4172 11.3047 18.385C11.3089 18.5813 11.3034 19.2934 11.2965 19.5816C11.2965 20.9483 11.7452 22.2492 12.5947 23.3456C13.8408 24.9538 15.8325 25.913 17.924 25.913C19.6598 25.913 21.3012 25.2763 22.5446 24.1195C23.7881 22.9628 24.4994 21.4149 24.5472 19.7641L25.1628 8.21824C25.2134 7.26729 25.3091 5.46005 25.3119 5.42164C25.3652 4.71496 25.9781 4.16195 26.7071 4.16195C27.3801 4.16195 27.9437 4.60242 28.0778 5.23227L30.6781 18.267C31.0732 20.0276 32.712 21.3051 34.5764 21.3051C36.4575 21.3051 38.1017 20.0152 38.4858 18.2355L41.0277 5.27755C41.152 4.63126 41.7388 4.16195 42.4226 4.16195C43.1189 4.16195 43.7194 4.65595 43.8208 5.31051C43.8345 5.41065 43.9314 7.07105 43.9932 8.16197L44.5882 19.7641C44.6374 21.419 45.3611 22.9669 46.6235 24.1223C47.886 25.2777 49.5521 25.9144 51.314 25.9144C52.935 25.9144 54.5027 25.3641 55.724 24.3652C56.9373 23.3744 57.735 22.0091 57.9699 20.5216L60.3583 5.37498L60.376 5.2803C60.4981 4.63401 61.085 4.1647 61.7687 4.1647C62.4621 4.1647 63.0641 4.66007 63.168 5.32008L65.5401 20.3679C65.9545 23.5309 68.8257 25.9171 72.2193 25.9171C75.9304 25.9171 78.9492 23.0767 78.9492 19.5857V11.7476L78.9522 6.87344C78.9522 5.36949 80.2257 4.14547 81.7905 4.14547C83.3526 4.14547 84.6232 5.36674 84.6232 6.86661C84.6232 7.47173 84.191 8.31429 83.7629 8.83434C82.8438 9.94998 82.1816 11.2001 81.7945 12.5503C81.5333 13.4574 81.402 14.3974 81.402 15.3442C81.402 21.1171 86.2852 25.8129 92.2888 25.8129C94.7156 25.8129 96.9945 25.0883 98.8792 23.7161C100.741 22.3617 102.098 20.4694 102.805 18.245C104.333 13.4368 104.207 5.50125 104.166 2.89403L104.165 2.64015Z" fill="white"/>
<path d="M108.92 0.0356445C107.774 0.0356445 106.841 0.946798 106.841 2.06792C106.841 3.18764 107.774 4.10017 108.92 4.10017C110.067 4.10017 111 3.18901 111 2.06792C111 0.946798 110.067 0.0356445 108.92 0.0356445Z" fill="white"/>
</svg>
