<svg width="172" height="68" viewBox="0 0 172 68" fill="none" xmlns="http://www.w3.org/2000/svg">
<path d="M34.2946 51.5967C33.4508 51.5967 32.8359 51.905 32.4459 52.5231V49.3474H31.1577V57.7642H32.4459V54.5417C32.4459 53.9557 32.5846 53.5211 32.864 53.2374C33.1415 52.9536 33.509 52.81 33.9608 52.81C34.3733 52.81 34.6996 52.9311 34.9396 53.1714C35.1777 53.4112 35.2977 53.7574 35.2977 54.2052V57.7642H36.5858V54.0728C36.5858 53.3033 36.3758 52.6985 35.9539 52.2562C35.5302 51.8181 34.9789 51.5967 34.2946 51.5967Z" fill="white"/>
<path d="M68.0816 51.5972C67.1591 51.5972 66.4034 51.8993 65.8146 52.5047C65.2258 53.1095 64.9316 53.8616 64.9316 54.7594C64.9316 55.6741 65.2299 56.4282 65.8258 57.0259C66.4222 57.6231 67.2057 57.9217 68.1754 57.9217C69.3282 57.9217 70.1985 57.485 70.7873 56.6118L69.7258 55.986C69.3845 56.4834 68.8708 56.7309 68.1866 56.7309C67.6936 56.7309 67.2752 56.6082 66.9339 56.3643C66.5931 56.1204 66.3735 55.7687 66.2776 55.3116H71.0252C71.0571 55.0866 71.0723 54.9067 71.0723 54.7707C71.0723 53.8882 70.7909 53.1397 70.2305 52.5215C69.6751 51.9055 68.957 51.5972 68.0816 51.5972ZM66.2685 54.2548C66.3568 53.7972 66.5591 53.4362 66.8761 53.1719C67.1946 52.907 67.5922 52.7746 68.0684 52.7746C68.4904 52.7746 68.8581 52.8994 69.171 53.1473C69.4859 53.3948 69.6868 53.765 69.773 54.2527H66.2685V54.2548Z" fill="white"/>
<path d="M104.204 52.6065C103.718 51.9336 103.023 51.5972 102.117 51.5972C101.297 51.5972 100.598 51.9014 100.017 52.5119C99.4355 53.1208 99.147 53.8709 99.147 54.7615C99.147 55.644 99.4376 56.391 100.017 57.005C100.598 57.6175 101.297 57.9258 102.117 57.9258C103.024 57.9258 103.72 57.5853 104.204 56.9028V57.7689H105.492V51.7521H104.204V52.6065ZM103.666 56.1353C103.307 56.5004 102.857 56.6819 102.317 56.6819C101.776 56.6819 101.327 56.5004 100.969 56.1353C100.611 55.7708 100.433 55.3117 100.433 54.7595C100.433 54.2078 100.611 53.7482 100.969 53.3836C101.327 53.0186 101.776 52.8371 102.317 52.8371C102.857 52.8371 103.307 53.0206 103.666 53.3836C104.024 53.7482 104.202 54.2078 104.202 54.7595C104.202 55.3117 104.024 55.7728 103.666 56.1353Z" fill="white"/>
<path d="M139.004 52.6064C138.518 51.9331 137.823 51.5967 136.917 51.5967C136.098 51.5967 135.399 51.9014 134.817 52.5119C134.236 53.1203 133.947 53.8708 133.947 54.761C133.947 55.6439 134.238 56.3904 134.817 57.005C135.399 57.617 136.098 57.9253 136.917 57.9253C137.825 57.9253 138.52 57.5848 139.004 56.9027V57.7683H140.292V49.3513H139.004V52.6064ZM138.466 56.1353C138.108 56.4998 137.658 56.6813 137.118 56.6813C136.578 56.6813 136.128 56.4998 135.77 56.1353C135.411 55.7702 135.233 55.3111 135.233 54.7589C135.233 54.2073 135.411 53.7481 135.77 53.3831C136.128 53.0185 136.576 52.837 137.118 52.837C137.658 52.837 138.108 53.0201 138.466 53.3831C138.824 53.7481 139.002 54.2073 139.002 54.7589C139.002 55.3111 138.824 55.7723 138.466 56.1353Z" fill="white"/>
<path d="M13.1723 37.525C11.601 37.525 10.3223 38.78 10.3223 40.3244C10.3223 41.8686 11.601 43.1237 13.1723 43.1237C14.7434 43.1237 16.0222 41.8686 16.0222 40.3244C16.0222 38.7819 14.7434 37.525 13.1723 37.525Z" fill="white"/>
<path d="M152.429 13.351C152.399 11.336 150.773 9.75769 148.73 9.75769H140.547C138.955 9.75769 137.662 11.0166 137.662 12.5647C137.662 14.1127 138.955 15.3716 140.547 15.3716H145.561C146.086 15.3716 146.436 15.5549 146.735 15.9859C147.007 16.3791 147.787 18.7286 146.348 32.423C145.692 38.6739 141.341 43.2103 136.001 43.2103C130.589 43.2103 126.187 38.1957 126.187 32.0336C126.187 29.1832 127.151 26.4443 128.9 24.3198C130.038 22.938 131.186 20.6017 131.186 18.4942C131.186 18.1804 131.167 17.859 131.133 17.5434C130.634 13.0788 126.761 9.71423 122.12 9.71423C117.122 9.71423 113.056 13.6515 113.056 18.4923C113.056 18.5433 113.058 29.3836 113.058 29.3836V37.5076C113.058 40.7701 111.076 43.4258 108.641 43.4258C106.563 43.4258 104.746 41.4506 104.319 38.7325L103.065 30.134L100.869 15.1788L100.829 14.916L100.822 14.9198C100.537 13.5173 99.772 12.2395 98.6492 11.2963C97.4472 10.2889 95.9095 9.73315 94.3195 9.73315C92.7296 9.73315 91.1924 10.2889 89.9884 11.2963C88.8655 12.2376 88.1022 13.5154 87.8157 14.916L87.8025 14.9104L85.5674 30.1302C85.5674 30.1302 84.3016 38.7155 84.3 38.7287C83.8629 41.4468 82.0482 43.4201 79.9821 43.4201C77.6101 43.4201 75.6712 40.9213 75.5698 37.7307L75.5627 37.5435H75.5551L73.924 15.4226C73.7851 12.2244 71.0981 9.71991 67.7965 9.71991C64.6202 9.71991 61.986 12.1715 61.669 15.4207C61.3317 18.876 59.5465 29.221 59.5298 29.3193L58.5788 34.1412C58.4607 34.8859 57.814 35.4246 57.0396 35.4246C56.2895 35.4246 55.6429 34.9124 55.5024 34.2055C55.4963 34.179 54.5423 29.3325 54.5423 29.3325C54.5423 29.3325 52.3149 14.8159 52.3129 14.8102C52.0897 13.4209 51.3584 12.1469 50.2578 11.2245C49.146 10.2926 47.7248 9.78039 46.2548 9.78039C43.1611 9.78039 40.5474 12.0486 40.1705 14.9992L40.1611 14.9954L38.5074 37.5209H38.4943L38.4886 37.7344C38.4006 40.9251 36.5256 43.4239 34.2194 43.4239C31.8625 43.4239 29.9463 40.7682 29.9463 37.5001C29.9425 37.3016 29.935 37.1145 29.9294 36.9254C29.9107 36.3452 29.8938 35.797 29.9163 34.9899C29.9163 33.0714 29.4981 31.5252 28.6019 30.1208C28.0619 29.2739 27.3251 28.465 26.3538 27.6427C24.8876 26.4047 22.8251 25.6486 20.2227 25.3953C20.157 25.3896 20.1027 25.3839 20.0633 25.3783C16.8327 25.004 14.744 22.9569 14.744 20.167C14.744 17.3374 17.1196 15.037 20.0408 15.037C22.3039 15.037 24.2013 16.6947 25.0095 18.2352C25.4557 19.0896 26.3482 19.6189 27.3401 19.6189C28.7913 19.6189 29.9707 18.4602 29.9707 17.035V17.0293L29.9688 16.9877C29.95 16.6607 29.9331 16.4018 29.6856 15.8649C28.0338 12.1393 24.267 9.73126 20.0895 9.73126C20.007 9.73126 19.9246 9.73126 19.842 9.73315C14.1534 9.86169 9.58221 14.4624 9.64966 19.9893C9.68532 22.8813 10.9997 25.6297 13.2515 27.5255C14.9859 29.0207 17.7458 29.8561 19.5758 29.9998C22.8533 30.2568 25.1445 32.3285 25.1445 35.039C25.1501 35.3093 25.1426 36.2903 25.1332 36.6873C25.1332 38.5699 25.7482 40.3618 26.9126 41.8721C28.6207 44.0874 31.3507 45.4086 34.2175 45.4086C36.5968 45.4086 38.8468 44.5316 40.5511 42.9382C42.2555 41.3447 43.2305 39.2126 43.2961 36.9387L44.1398 21.0346C44.2092 19.7247 44.3404 17.2353 44.3442 17.1824C44.4173 16.2089 45.2573 15.4472 46.2567 15.4472C47.1792 15.4472 47.9517 16.0539 48.1354 16.9215L51.6997 34.8765C52.2414 37.3016 54.4876 39.0613 57.0432 39.0613C59.6216 39.0613 61.8754 37.2846 62.4018 34.833L65.886 16.9839C66.0564 16.0937 66.8608 15.4472 67.798 15.4472C68.7525 15.4472 69.5756 16.1277 69.7146 17.0293C69.7334 17.1672 69.8662 19.4544 69.9509 20.9571L70.7664 36.9387C70.8339 39.2183 71.8259 41.3504 73.5563 42.9419C75.2868 44.5335 77.5705 45.4105 79.9856 45.4105C82.2075 45.4105 84.3563 44.6525 86.0305 43.2765C87.6935 41.9118 88.7869 40.031 89.109 37.9821L92.3827 17.1181L92.407 16.9877C92.5744 16.0974 93.3787 15.451 94.316 15.451C95.2664 15.451 96.0916 16.1333 96.2341 17.0425L99.4855 37.7704C100.054 42.1273 103.989 45.4143 108.641 45.4143C113.728 45.4143 117.866 41.5016 117.866 36.693V25.8962L117.87 19.1822C117.87 17.1105 119.615 15.4245 121.76 15.4245C123.901 15.4245 125.643 17.1068 125.643 19.1728C125.643 20.0063 125.05 21.1669 124.464 21.8833C123.204 23.42 122.296 25.142 121.766 27.0019C121.408 28.2513 121.228 29.5462 121.228 30.8504C121.228 38.8024 127.921 45.2707 136.15 45.2707C139.477 45.2707 142.6 44.2727 145.184 42.3825C147.736 40.5168 149.596 37.9103 150.565 34.8462C152.659 28.223 152.487 17.292 152.431 13.7007L152.429 13.351Z" fill="white"/>
<path d="M158.947 9.76308C157.376 9.76308 156.098 11.0182 156.098 12.5625C156.098 14.1049 157.376 15.3618 158.947 15.3618C160.519 15.3618 161.798 14.1067 161.798 12.5625C161.798 11.0182 160.519 9.76308 158.947 9.76308Z" fill="white"/>
</svg>
