<svg width="68" height="55" viewBox="0 0 68 55" fill="none" xmlns="http://www.w3.org/2000/svg">
<g clip-path="url(#clip0_1301_33009)">
<path d="M34.4204 30.6771V25.6167H44.3672L34.4204 30.6771Z" fill="white"/>
<path d="M58.7369 39.1107C51.9785 39.1107 47.346 34.556 47.346 27.445C47.346 20.4167 51.9785 15.8896 58.7369 15.8896C62.9276 15.8896 66.2904 17.8011 67.4127 20.3023L63.458 23.7614C62.8975 22.4673 60.9802 21.2877 59.3274 21.2877C56.495 21.2877 54.2518 23.3962 54.2518 27.445C54.2518 31.4911 56.3764 33.6851 59.3274 33.6851C60.9502 33.6851 63.0148 32.5344 63.7239 30.9592L67.5 34.6125C66.0245 37.3963 62.6616 39.1107 58.7369 39.1107ZM35.6606 39.1107C28.1957 39.1107 23.8592 34.5009 23.8592 27.445C23.8592 20.64 28.3144 15.8896 34.8928 15.8896C39.3207 15.8896 42.7149 17.4634 44.0404 20.1907L40.1757 23.6484C39.2021 21.9629 37.6106 21.0065 35.6019 21.0065C32.535 21.0065 30.4676 23.3383 30.4676 27.445C30.4676 31.549 32.6809 34.1343 35.6606 34.1343C37.3447 34.1343 38.4357 33.6286 38.9075 33.0112V30.6767H34.421L44.3664 25.6163V35.5124C42.8008 37.705 39.8526 39.1107 35.6606 39.1107ZM23.4277 38.4643L16.0202 16.536H7.9062L0.5 38.4643H6.81388L8.3494 33.8835H15.4897L16.9952 38.4643H23.4277ZM13.8369 28.7928H10.0008C10.8272 26.4046 11.4763 24.4353 11.8895 22.2427H12.0068C12.3914 24.4353 13.0991 26.4597 13.8369 28.7928Z" fill="white"/>
</g>
<defs>
<clipPath id="clip0_1301_33009">
<rect width="67" height="55" fill="white" transform="translate(0.5)"/>
</clipPath>
</defs>
</svg>
