<svg width="65" height="55" viewBox="0 0 65 55" fill="none" xmlns="http://www.w3.org/2000/svg">
<path d="M7.92418 10.7818C7.92418 10.6862 7.89187 10.5907 7.85956 10.4315L5.82405 4.95434C5.56557 4.28562 5.21017 3.99902 4.6609 3.99902C4.07933 3.99902 3.72392 4.28562 3.49775 4.95434L1.42994 10.4315C1.36532 10.6225 1.33301 10.7181 1.33301 10.7818C1.33301 11.0684 1.55918 11.2913 1.88227 11.2913C2.14075 11.2913 2.33461 11.1639 2.46385 10.8454L3.14235 8.96666H6.17945L6.85796 10.8454C6.95489 11.1639 7.14874 11.2913 7.40722 11.2913C7.69801 11.3231 7.92418 11.0684 7.92418 10.7818ZM3.46544 8.01134L4.46704 5.17724C4.49935 5.08171 4.53166 5.04987 4.62859 5.04987C4.69321 5.04987 4.72552 5.08171 4.75783 5.17724L5.75943 8.01134H3.46544ZM17.197 11.2594H19.3941C20.8157 11.2594 21.6881 10.4315 21.6881 8.9985C21.6881 7.62922 20.848 6.86497 19.3941 6.86497H17.4555V5.11356H20.6865C21.0419 5.11356 21.2681 4.92249 21.2681 4.57221C21.2681 4.25377 21.0419 4.06271 20.6865 4.06271H17.1647C16.6155 4.06271 16.2924 4.34931 16.2924 4.92249V10.3996C16.357 10.9728 16.6478 11.2594 17.197 11.2594ZM17.4878 7.85213H19.2972C20.1372 7.85213 20.5249 8.29794 20.5249 9.03035C20.5249 9.7946 20.1372 10.2404 19.2972 10.2404H17.4878V7.85213ZM4.79014 17.8192H2.62539V15.5902H6.21176C6.43793 15.5902 6.63179 15.4628 6.63179 15.2399C6.63179 15.017 6.47024 14.8896 6.21176 14.8896H2.52846C2.10844 14.8896 1.88227 15.1125 1.88227 15.5265V21.4813C1.88227 21.8952 2.10844 22.1182 2.52846 22.1182H4.79014C6.17945 22.1182 6.9872 21.3221 6.9872 19.9528C6.9872 18.5835 6.17945 17.8192 4.79014 17.8192ZM4.69321 21.3857H2.62539V18.488H4.69321C5.75943 18.488 6.21176 18.9975 6.21176 19.9209C6.21176 20.8444 5.79174 21.3857 4.69321 21.3857ZM10.0243 16.6092C9.37811 16.6092 8.76423 16.7684 8.44113 16.9276C8.21496 17.0231 8.11803 17.1187 8.11803 17.3097C8.11803 17.5008 8.27958 17.6282 8.44113 17.6282C8.53806 17.6282 8.63499 17.5963 8.73192 17.5326C8.99039 17.4371 9.47504 17.2779 9.95968 17.2779C10.8967 17.2779 11.349 17.66 11.349 18.488V18.9975C10.7674 18.8382 10.3474 18.7746 9.83045 18.7746C8.44113 18.7746 7.76263 19.5706 7.76263 20.4304C7.76263 21.4813 8.57037 22.15 9.79813 22.15C10.832 22.15 11.6398 21.7997 11.9306 21.5768C12.0598 21.4813 12.0921 21.4176 12.0921 21.2584V18.4561C12.0598 17.2142 11.2844 16.6092 10.0243 16.6092ZM11.3167 21.131C10.8967 21.3539 10.3474 21.5131 9.86275 21.5131C8.95808 21.5131 8.44113 21.131 8.44113 20.4623C8.44113 19.8572 8.89347 19.4433 9.86275 19.4433C10.3474 19.4433 10.7674 19.507 11.3167 19.6662V21.131ZM30.5732 5.78228C29.6039 5.78228 28.8285 6.13256 28.5377 6.29178C28.2793 6.451 28.2469 6.54653 28.2469 6.9605V12.5013C28.2469 12.8516 28.4731 13.0745 28.7962 13.0745C29.1193 13.0745 29.3455 12.8516 29.3455 12.5013V11.0684C29.6686 11.2276 30.1855 11.3549 30.6702 11.3549C31.9626 11.3549 32.8349 10.527 32.9318 9.31694C32.9642 8.90297 32.9642 8.23425 32.9318 7.82028C32.8349 6.61022 31.9626 5.78228 30.5732 5.78228ZM31.8333 9.15772C31.7687 9.85829 31.3164 10.3041 30.5409 10.3041C30.1209 10.3041 29.6039 10.1767 29.3455 9.98566V7.11972C29.6039 6.92865 30.1209 6.80128 30.5409 6.80128C31.3487 6.80128 31.7687 7.27894 31.8333 7.94766C31.8656 8.32978 31.8656 8.7756 31.8333 9.15772ZM13.2553 10.3678L11.349 8.489L13.1583 6.70575C13.2876 6.57837 13.3845 6.41915 13.3845 6.25993C13.3845 6.00518 13.1906 5.81412 12.8999 5.81412C12.7383 5.81412 12.6091 5.87781 12.4798 6.03703L10.6059 7.85213C10.5089 7.94766 10.412 8.01134 10.2505 8.01134H9.86275V6.41915C9.86275 6.06887 9.63659 5.84596 9.31349 5.84596C8.99039 5.84596 8.76423 6.06887 8.76423 6.41915V10.7181C8.76423 11.0684 8.99039 11.2913 9.31349 11.2913C9.63659 11.2913 9.86275 11.0684 9.86275 10.7181V8.9985H10.1859C10.3151 8.9985 10.4443 9.06219 10.5413 9.15772L12.5121 11.1002C12.6737 11.2594 12.8029 11.3231 12.9645 11.3231C13.2553 11.3231 13.4491 11.132 13.4491 10.8454C13.4491 10.6544 13.3845 10.527 13.2553 10.3678ZM38.0691 9.2851C37.8106 9.2851 37.6814 9.44432 37.5844 9.60353C37.3906 10.0175 37.0029 10.3041 36.4213 10.3041C35.6459 10.3041 35.1612 9.82644 35.0966 9.15772C35.0643 8.7756 35.0643 8.36163 35.0966 7.9795C35.1612 7.27894 35.6135 6.83312 36.4213 6.83312C36.9705 6.83312 37.3906 7.11972 37.5844 7.53369C37.6814 7.69291 37.8106 7.85213 38.0691 7.85213C38.3922 7.85213 38.6183 7.66106 38.6183 7.34262C38.6183 7.1834 38.5537 7.02419 38.4568 6.83312C38.1337 6.22809 37.4229 5.78228 36.4213 5.78228C35.0643 5.78228 34.1596 6.64206 34.0304 7.85213C33.9981 8.26609 33.9981 8.93481 34.0304 9.31694C34.1596 10.527 35.0643 11.3868 36.4213 11.3868C37.4229 11.3868 38.1337 10.9091 38.4568 10.3041C38.5537 10.113 38.6183 9.95382 38.6183 9.7946C38.586 9.47616 38.3922 9.2851 38.0691 9.2851ZM24.7252 5.78228C24.1113 5.78228 23.562 5.9415 23.2066 6.06887C22.9158 6.19625 22.7866 6.35547 22.7866 6.57837C22.7866 6.83312 22.9805 7.05603 23.2389 7.05603C23.3682 7.05603 23.4974 6.99234 23.659 6.9605C23.8851 6.86497 24.2729 6.76944 24.6606 6.76944C25.5006 6.76944 25.856 7.08787 25.856 7.72475V8.17056C25.3714 8.04319 24.9514 7.9795 24.499 7.9795C23.1097 7.9795 22.4312 8.7756 22.4312 9.60353C22.4312 10.5907 23.2066 11.3549 24.5313 11.3549C25.5652 11.3549 26.373 11.0047 26.6961 10.7818C26.8576 10.6862 26.8899 10.5907 26.8899 10.3678V7.72475C26.9222 6.38731 26.1145 5.78228 24.7252 5.78228ZM25.856 10.1449C25.5329 10.3041 25.0806 10.4315 24.6606 10.4315C23.9498 10.4315 23.4974 10.113 23.4974 9.60353C23.4974 9.12588 23.8851 8.74375 24.6606 8.74375C25.0806 8.74375 25.436 8.80744 25.8883 8.93481V10.1449H25.856ZM21.2681 19.3477L23.3682 17.2779C23.4651 17.1824 23.4974 17.0868 23.4974 16.9913C23.4974 16.8321 23.3682 16.6729 23.1743 16.6729C23.0774 16.6729 22.9805 16.7047 22.8835 16.8002L20.8157 18.8382C20.6865 18.9656 20.5896 19.0293 20.428 19.0293H20.0726V17.0868C20.0726 16.8321 19.9434 16.7047 19.7172 16.7047C19.491 16.7047 19.3618 16.8321 19.3618 17.0868V21.7997C19.3618 22.0545 19.491 22.1818 19.7172 22.1818C19.9434 22.1818 20.0726 22.0545 20.0726 21.7997V19.698H20.4603C20.6219 19.698 20.7511 19.7617 20.848 19.8891L23.0451 22.0545C23.142 22.15 23.2389 22.1818 23.3359 22.1818C23.5297 22.1818 23.659 22.0226 23.659 21.8634C23.659 21.736 23.6267 21.6723 23.4974 21.545L21.2681 19.3477ZM17.5201 16.641C17.294 16.641 17.1647 16.7684 17.1647 17.0231V18.9656H14.1276V17.0231C14.1276 16.7684 13.9984 16.641 13.7722 16.641C13.5461 16.641 13.4168 16.7684 13.4168 17.0231V21.736C13.4168 21.9908 13.5461 22.1182 13.7722 22.1182C13.9984 22.1182 14.1276 21.9908 14.1276 21.736V19.6343H17.1647V21.736C17.1647 21.9908 17.294 22.1182 17.5201 22.1182C17.7463 22.1182 17.8755 21.9908 17.8755 21.736V17.0231C17.8755 16.8002 17.7463 16.641 17.5201 16.641Z" fill="white"/>
<path d="M38.554 36.5119L33.6106 37.4035C32.8029 37.5627 32.2536 38.327 32.3829 39.1231C32.5444 39.9192 33.3199 40.4605 34.1276 40.3331L39.071 39.4415C40.2341 39.2186 40.9772 39.9192 41.268 40.6516C41.5588 41.384 41.4942 42.3712 40.4926 43.008L33.2552 47.6572C32.5767 48.103 31.769 48.103 31.0582 47.7528C30.3474 47.3706 29.9273 46.6701 29.9273 45.874V34.442C29.9273 32.5314 28.9257 30.8755 27.2133 29.9521C25.5332 29.0286 23.53 29.1241 21.9146 30.1431L3.6273 41.8298C1.55948 43.1354 0.78405 45.5237 1.68872 47.7846C2.59339 50.0455 4.82276 51.2556 7.24598 50.8416L23.2069 48.0075C24.0147 47.8483 24.5639 47.084 24.4347 46.2879C24.2732 45.4918 23.4977 44.9505 22.69 45.0779L6.72902 47.912C5.53357 48.1349 4.82275 47.4343 4.53197 46.7019C4.24118 45.9695 4.3058 44.9823 5.3074 44.3455L23.5947 32.6588C24.2732 32.213 25.0809 32.213 25.7917 32.5633C26.5025 32.9454 26.9225 33.6459 26.9225 34.442V45.874C26.9225 47.7846 27.9241 49.4405 29.6366 50.3639C30.412 50.7779 31.2843 51.0008 32.1244 51.0008C33.0937 51.0008 34.063 50.7142 34.9353 50.1729L42.205 45.5237C44.2728 44.2181 45.0483 41.8298 44.1436 39.5689C43.2066 37.308 40.9772 36.0661 38.554 36.5119ZM64.1433 39.5371C63.2386 37.2761 61.0092 36.0661 58.586 36.48L53.6426 37.3717C52.8349 37.5309 52.2856 38.2951 52.4149 39.0912C52.5764 39.8873 53.3518 40.4287 54.1596 40.3013L59.103 39.4097C60.2661 39.1868 61.0092 39.8873 61.3 40.6197C61.5908 41.3521 61.5262 42.3393 60.5246 42.9762L53.2872 47.6572C52.6087 48.103 51.801 48.103 51.0902 47.7528C50.3793 47.3706 49.9593 46.6701 49.9593 45.874V30.8118C49.9593 29.9839 49.2808 29.3152 48.4408 29.3152C47.6007 29.3152 46.9222 29.9839 46.9222 30.8118V45.874C46.9222 47.7846 47.9238 49.4405 49.6362 50.3639C50.4117 50.7779 51.284 51.0008 52.1241 51.0008C53.0934 51.0008 54.0626 50.7142 54.935 50.1729L62.2047 45.5237C64.2725 44.1862 65.0479 41.798 64.1433 39.5371Z" fill="white"/>
</svg>
