<svg width="178" height="55" viewBox="0 0 178 55" fill="none" xmlns="http://www.w3.org/2000/svg">
<path fill-rule="evenodd" clip-rule="evenodd" d="M51.1517 25.2117C49.2364 25.4525 48.0396 26.0145 47.2416 26.8177C46.603 27.4598 46.2841 28.2626 46.2841 29.0655C46.2841 30.5107 47.3214 31.5546 48.5981 31.5546C49.3959 31.5546 50.1938 31.2331 50.5929 30.7517C50.7524 30.591 50.9122 30.2699 50.9122 29.9489L51.1515 25.2117H51.1517ZM54.4231 33.8024C52.8272 33.8024 51.3905 32.7587 50.9919 31.1533C50.1938 32.5981 48.6779 33.8024 46.6831 33.8024C44.4488 33.8024 42.5337 32.0361 42.5337 29.7881C42.5337 26.6568 45.4862 24.409 51.0716 24.3286V23.5257C51.1515 21.2778 49.8747 19.9126 47.6404 19.9126C46.0443 19.9126 44.369 20.9567 43.2519 22.3213C43.1722 22.4017 42.6935 21.9202 42.6935 21.8396C44.1295 18.9496 46.7628 17.3437 49.4758 17.3437C52.5874 17.3437 54.8219 19.5919 54.742 23.3651L54.5031 29.6277C54.5031 31.0729 55.1412 31.715 55.8593 31.715C56.657 31.715 57.2156 31.0728 57.5348 30.1892C57.5348 30.1092 58.0134 30.35 58.0134 30.4302C58.0134 32.5981 56.4177 33.8024 54.4227 33.8024H54.4231ZM74.2914 33.2403H70.0625C69.9826 33.2403 69.9826 32.4377 70.0625 32.4377C71.818 32.1967 72.0573 32.0361 72.0573 28.5838V23.7667C72.0573 21.5988 70.7807 20.0735 68.9454 20.0735C67.6688 20.0735 66.4717 20.7158 65.9131 21.5188C65.5142 22.0006 65.2748 22.8836 65.2748 24.0077V28.5838C65.2748 32.0362 65.6735 32.1967 67.4294 32.4377C67.4294 32.4377 67.509 33.2403 67.4294 33.2403H59.29C59.2104 33.2403 59.2104 32.4377 59.2104 32.4377C61.1253 32.1161 61.365 32.0361 61.365 28.5838V22.7229C61.365 19.1901 60.9659 19.0297 58.8909 18.7086C58.7316 18.7086 58.8113 17.9056 58.8909 17.9056H64.9555V21.4384H65.0355C66.392 18.8689 68.4667 17.3436 71.0199 17.3436C73.8926 17.3436 76.1268 19.5917 76.1268 23.2849V28.5036C76.1268 31.956 76.4457 32.1164 78.3609 32.3574C78.5204 32.3574 78.4407 33.1601 78.3609 33.1601C77.164 33.2403 75.4084 33.2403 74.2913 33.2403H74.2914ZM87.1382 33.8024C82.3507 33.8024 79.2387 30.0289 79.2387 25.6935C79.2387 21.0368 82.3508 17.3434 87.4577 17.3434C89.8515 17.3434 91.0482 18.1464 91.7666 18.1464C92.0856 18.1464 92.4049 17.9056 92.5643 17.5042C92.5643 17.4238 93.522 17.4238 93.522 17.5042V23.2848C93.522 23.3651 92.5645 23.3651 92.5645 23.2848C91.2879 20.6352 89.5324 18.3874 87.4581 18.3874C84.9042 18.3874 83.3882 21.1172 83.3882 24.8905C83.3882 28.9047 85.4628 31.5546 88.3355 31.5546C90.2504 31.5546 92.4052 30.1895 93.2827 28.6641C93.3624 28.5033 94.0009 28.8248 94.0009 28.9856C92.9637 31.715 90.2504 33.8024 87.1385 33.8024H87.1382ZM106.528 23.606V22.4819C106.528 19.993 105.331 18.5479 103.815 18.5479C101.9 18.5479 100.464 20.6352 100.145 23.606H106.528H106.528ZM100.145 25.4523C100.145 28.9047 102.06 31.5543 105.331 31.5543C107.246 31.5543 109.161 30.2698 110.199 28.6637C110.199 28.5837 110.837 28.8245 110.837 28.9853C109.96 31.715 107.087 33.8022 103.895 33.8022C98.8681 33.8022 95.9158 30.109 95.9158 25.6933C95.9158 21.2776 99.0277 17.3436 104.294 17.3436C108.284 17.3436 110.917 19.993 111.156 23.606V24.73H100.304C100.145 24.8905 100.145 25.2919 100.145 25.4526L100.145 25.4523ZM119.136 33.8024C116.662 33.8024 114.508 33.1604 113.79 32.6783C113.71 32.5981 113.47 30.5107 113.47 28.4232C113.47 28.3432 114.428 28.2625 114.428 28.4232C115.704 31.2332 117.54 32.8389 119.535 32.8389C121.21 32.8389 122.407 31.956 122.407 30.591C122.407 28.9854 120.492 28.2626 118.577 27.3796C116.263 26.4965 113.63 25.292 113.63 22.3216C113.63 19.993 115.625 17.5844 119.375 17.5844C120.971 17.5844 122.008 18.2267 122.727 18.2267C123.046 18.2267 123.365 17.986 123.604 17.5844C123.604 17.5042 124.562 17.5042 124.562 17.5844V22.8836C124.562 22.9639 123.604 22.9639 123.604 22.8836C122.327 20.4749 120.811 18.7888 118.976 18.7888C117.3 18.7888 116.502 19.9129 116.502 20.7963C116.502 22.4018 118.338 23.0441 120.252 23.8471C122.566 24.8104 125.279 26.015 125.279 29.0656C125.279 31.6346 122.886 33.8022 119.136 33.8022L119.136 33.8024ZM127.035 19.5915C126.796 19.5915 126.716 18.9491 126.955 18.7887C128.631 17.263 131.424 14.694 132.94 13.0882C133.02 13.0078 133.578 13.0882 133.578 13.2489V17.9855H139.004C139.164 17.9855 139.164 19.511 139.004 19.511H133.578V28.4229C133.578 30.43 134.775 31.3131 136.052 31.3131C137.01 31.3131 138.047 30.5106 138.526 29.5468C138.526 29.4667 139.164 29.7878 139.164 29.8683C138.526 32.0362 136.451 33.7218 134.137 33.7218C131.663 33.7218 129.668 32.1161 129.668 28.9849V19.5914H127.035V19.5915ZM152.25 22.161C151.771 22.161 150.574 20.7158 149.697 20.7158C149.298 20.7158 148.819 20.9566 148.42 21.358C147.782 22.0003 147.223 23.5259 147.223 24.8104V28.6642C147.223 32.1968 147.782 32.2771 149.617 32.5177C149.617 32.5177 149.697 33.3204 149.617 33.3204H141.159C141.079 33.3204 141.079 32.5179 141.159 32.5179C143.074 32.1967 143.314 32.1163 143.314 28.6644V22.8029C143.314 19.3506 142.915 19.1097 140.84 18.7887C140.68 18.7887 140.76 17.9857 140.84 17.9857H146.984V21.9999H147.144C147.303 21.5183 147.622 20.9563 147.862 20.3942C148.979 18.5475 150.336 17.4235 151.772 17.4235C153.128 17.4235 154.245 18.4673 154.245 19.5914C154.325 20.8759 152.649 22.1604 152.251 22.1604L152.25 22.161ZM168.767 24.2482L163.581 37.6562C161.746 42.3931 160.07 43.3567 157.835 43.3567C156.559 43.3567 155.122 42.7143 155.122 42.313C155.043 41.6706 155.92 39.3424 156.399 39.3424C156.559 39.3424 158.474 40.2252 159.431 40.2252C160.788 40.2252 161.665 39.3424 162.383 37.4154L163.341 34.8461C163.022 33.5616 159.192 25.1314 158.713 24.0072C157.756 21.7591 157.117 19.993 156.479 19.3506C156.08 18.949 155.681 18.7887 154.564 18.6279C154.484 18.6279 154.484 17.8249 154.564 17.8249C155.601 17.8249 157.756 17.9051 158.953 17.9051C160.15 17.9051 162.224 17.8248 163.262 17.8248C163.341 17.8248 163.341 18.6278 163.262 18.6278C160.868 18.9486 161.107 19.7515 162.384 22.9632L165.177 29.7875L167.411 23.9265C168.209 21.9194 168.608 20.7151 168.608 19.9925C168.608 19.1091 168.049 18.788 166.373 18.708C166.294 18.708 166.294 17.8246 166.373 17.8246C167.491 17.8246 168.927 17.9048 169.884 17.9048C170.603 17.9048 171.321 17.8244 172.677 17.8244C172.757 17.8244 172.837 18.7078 172.677 18.7078C171.8 18.7879 171.401 19.0287 170.922 19.5104C170.284 20.1528 169.805 21.4373 168.767 24.2473L168.767 24.2482Z" fill="white"/>
<path fill-rule="evenodd" clip-rule="evenodd" d="M24.4205 16.9421C21.6278 13.8912 18.8352 14.3731 18.3564 14.4532C18.5957 14.5334 18.8352 19.8325 21.7875 22.6425C23.7823 24.4889 27.8518 23.8466 27.8518 23.8466C27.8518 23.8466 27.1336 19.9127 24.4206 16.9421H24.4205ZM27.7722 27.2993C26.8943 27.2993 23.3036 27.6205 20.9099 30.591C18.4362 33.7223 18.516 36.2112 17.9574 36.7731C18.4362 36.9339 23.4633 37.4154 25.6177 34.1237C27.6922 31.0724 27.7722 27.7808 27.7722 27.2992V27.2993ZM5.90841 25.1311C6.46683 25.2117 8.38205 27.7006 11.8132 28.0216C15.5635 28.4234 16.8401 26.4965 16.9201 26.4965C16.9201 26.2555 13.8879 22.9639 10.5366 22.9639C8.22228 23.0439 5.90841 25.1313 5.90841 25.1313V25.1311ZM19.5531 26.8175C19.4733 26.8977 16.3616 31.0728 9.02036 29.9487C3.11554 28.9853 0.961129 25.6933 0.562012 25.6131C1.04086 24.9707 5.50945 21.3578 10.6958 21.4381C15.8028 21.5988 19.5529 24.489 19.5529 24.489H22.8243C20.1914 23.6862 16.9997 22.2411 15.5633 19.0295C14.2867 16.0591 14.5261 14.2926 13.9675 11.8038C13.9675 11.8038 19.8721 11.322 24.4205 14.2926C28.5698 17.0224 30.8837 24.2482 30.9636 24.489H33.5168L32.9585 11.6431L36.1502 11.7233C35.5918 15.0955 36.31 39.1817 36.1502 39.1817C35.8311 39.2617 33.118 39.422 32.8788 38.7799C32.8788 38.7799 33.5171 26.9778 33.597 26.7368H31.123C31.123 26.8976 30.8837 33.5612 25.8568 37.094C20.8295 40.6266 13.5685 39.5828 13.5685 39.5828C14.4465 38.2179 13.5685 36.7728 16.1217 32.8388C19.0742 28.3427 22.9841 26.7368 22.9045 26.7368C22.6652 26.8174 19.6331 26.8174 19.5531 26.8174" fill="white"/>
<path fill-rule="evenodd" clip-rule="evenodd" d="M175.776 19.3069C176.008 19.3069 176.17 19.2218 176.17 19.0198C176.17 18.8415 176.077 18.7253 175.8 18.7253H175.553V19.3071H175.776V19.3069ZM175.306 18.5079H175.838C176.139 18.5079 176.432 18.6166 176.432 19.0045C176.432 19.1984 176.3 19.3849 176.123 19.439L176.501 20.1059H176.216L175.915 19.5164H175.552V20.1059H175.306V18.5079V18.5079ZM176.995 19.3379C176.995 18.593 176.478 18.0423 175.83 18.0423C175.183 18.0423 174.666 18.593 174.666 19.3379C174.666 20.0749 175.183 20.6102 175.83 20.6102C176.478 20.6102 176.995 20.0751 176.995 19.3379H176.995ZM174.427 19.3379C174.427 18.4302 175.067 17.8252 175.83 17.8252C176.601 17.8252 177.234 18.4304 177.234 19.3381C177.234 20.2381 176.601 20.8354 175.83 20.8354C175.067 20.8354 174.427 20.2381 174.427 19.3381V19.3379Z" fill="#54524F"/>
</svg>
