<svg width="70" height="55" viewBox="0 0 70 55" fill="none" xmlns="http://www.w3.org/2000/svg">
<g clip-path="url(#clip0_1302_33652)">
<path fill-rule="evenodd" clip-rule="evenodd" d="M58.4489 48.3876V39.2935H54.7151V48.3915L58.4489 48.3876Z" fill="white"/>
<path fill-rule="evenodd" clip-rule="evenodd" d="M38.5999 44.6134V39.4268H34.9673V43.3889C35.0006 43.9829 34.9614 44.5787 34.8505 45.1632C34.5974 45.9939 33.7253 46.3604 32.8298 46.3604C31.5878 46.3604 31.0116 45.8769 30.7818 45.1164C30.7184 44.8528 30.6794 44.5839 30.665 44.3131C30.6417 44.0128 30.665 43.6891 30.665 43.346V39.4463H26.9857V44.6524C26.9613 45.1426 27.041 45.6324 27.2196 46.0895C27.3981 46.5467 27.6714 46.9606 28.0214 47.3042C29.1271 48.3844 30.9882 48.7081 32.6935 48.7081C34.7882 48.7081 36.3962 48.4078 37.5448 47.2808C37.8995 46.9416 38.1759 46.5288 38.3548 46.0715C38.5337 45.6141 38.6107 45.1231 38.5804 44.6329L38.5999 44.6134Z" fill="white"/>
<path fill-rule="evenodd" clip-rule="evenodd" d="M20.7521 43.9734C20.5709 43.9408 20.3872 43.9252 20.2031 43.9266H16.0605C15.8765 43.9263 15.6928 43.942 15.5115 43.9734C15.6342 43.8511 15.7486 43.7208 15.8541 43.5834L17.7269 40.487C17.8797 40.2311 18.01 39.9623 18.1162 39.6837C18.2326 39.9706 18.3706 40.2483 18.5289 40.5143L20.4406 43.6341C20.5293 43.7567 20.6283 43.8716 20.7365 43.9773L20.7521 43.9734ZM27.698 48.3956L19.4205 35.9517H14.7757L15.9943 37.4024C16.0287 37.4295 16.0667 37.4518 16.1072 37.4686C16.0665 37.4866 16.0285 37.5103 15.9943 37.5388L8.77197 48.3878H12.9574L14.0826 46.5238C14.1211 46.4526 14.145 46.3743 14.1527 46.2937C14.2438 46.3149 14.3361 46.3305 14.4291 46.3405H21.9046C21.9913 46.3428 22.0775 46.3269 22.1576 46.2937C22.1534 46.3582 22.1697 46.4224 22.2043 46.477L23.3724 48.3878L27.698 48.3956Z" fill="white"/>
<path fill-rule="evenodd" clip-rule="evenodd" d="M53.6869 43.7121C53.6869 42.6982 53.2742 41.5243 51.9855 39.8904L48.8707 35.9517H44.5568L47.0174 38.7127C47.3094 39.0281 47.6243 39.3214 47.9596 39.5901C47.3612 39.2686 46.692 39.1023 46.0129 39.1065C44.5622 39.086 43.1301 39.4349 41.8508 40.1205C41.1602 40.4622 40.5787 40.9907 40.1721 41.646C39.7655 42.3013 39.55 43.0575 39.5498 43.8291C39.5567 44.3972 39.6763 44.9584 39.9015 45.4799C40.1268 46.0014 40.4532 46.4729 40.8619 46.8669C42.5166 48.5282 45.534 48.6881 46.6359 48.6881C48.2672 48.6881 50.8213 48.3215 52.2697 47.0073C52.7286 46.592 53.0933 46.083 53.3391 45.5145C53.5849 44.9461 53.7062 44.3315 53.6947 43.7121H53.6869ZM50.101 43.8291C50.0823 44.2681 49.9406 44.693 49.692 45.0551C49.4434 45.4171 49.0981 45.7018 48.6955 45.8764C48.0524 46.1895 47.3427 46.3408 46.6281 46.3171C45.904 46.3212 45.1882 46.1626 44.5334 45.853C44.1461 45.6798 43.8132 45.4043 43.5704 45.056C43.3276 44.7077 43.184 44.2997 43.1551 43.8759C43.1551 42.8814 43.9338 42.1015 44.8098 41.7076C45.3629 41.4745 45.958 41.3577 46.558 41.3645C47.1767 41.3558 47.7922 41.4561 48.3762 41.6608C49.408 42.1015 50.101 42.9282 50.101 43.8291V43.8291Z" fill="white"/>
<path fill-rule="evenodd" clip-rule="evenodd" d="M57.2573 6.29444C54.5646 6.28954 51.9498 7.19966 49.8403 8.87604C47.7285 7.20404 45.1153 6.29448 42.4233 6.29448C39.7314 6.29448 37.1182 7.20404 35.0063 8.87604C32.8945 7.20404 30.2812 6.29448 27.5893 6.29448C24.8974 6.29448 22.2841 7.20404 20.1723 8.87604C18.409 7.47955 16.2886 6.60885 14.054 6.36372C11.8194 6.11859 9.56112 6.50895 7.53783 7.49007C5.51454 8.47119 3.80814 10.0034 2.61414 11.9111C1.42015 13.8187 0.786865 16.0247 0.786865 18.2763C0.786865 20.5278 1.42015 22.7339 2.61414 24.6415C3.80814 26.5492 5.51454 28.0814 7.53783 29.0625C9.56112 30.0436 11.8194 30.434 14.054 30.1889C16.2886 29.9437 18.409 29.073 20.1723 27.6765C22.2841 29.3485 24.8974 30.2581 27.5893 30.2581C30.2812 30.2581 32.8945 29.3485 35.0063 27.6765C37.1182 29.3485 39.7314 30.2581 42.4233 30.2581C45.1153 30.2581 47.7285 29.3485 49.8403 27.6765C51.3374 28.8606 53.0956 29.6688 54.968 30.0337C56.8405 30.3986 58.7729 30.3097 60.604 29.7743C62.4351 29.2389 64.1119 28.2726 65.4943 26.9561C66.8766 25.6395 67.9246 24.0109 68.5506 22.2061C69.1767 20.4013 69.3627 18.4727 69.0931 16.5812C68.8235 14.6898 68.1061 12.8904 67.0009 11.3331C65.8956 9.77588 64.4345 8.50601 62.7396 7.62949C61.0446 6.75297 59.1649 6.29521 57.2573 6.29444V6.29444ZM18.2139 25.7189C16.8399 26.731 15.2126 27.3416 13.5129 27.483C11.8132 27.6244 10.1077 27.291 8.58578 26.5198C7.0639 25.7487 5.7853 24.57 4.89206 23.1147C3.99881 21.6594 3.52592 19.9846 3.52592 18.2763C3.52592 16.568 3.99881 14.8932 4.89206 13.4379C5.7853 11.9826 7.0639 10.8039 8.58578 10.0328C10.1077 9.26159 11.8132 8.92819 13.5129 9.06958C15.2126 9.21098 16.8399 9.82164 18.2139 10.8337C16.5372 12.9509 15.6246 15.5739 15.6246 18.2763C15.6246 20.9787 16.5372 23.6017 18.2139 25.7189V25.7189ZM20.1606 23.769C18.9874 22.1803 18.3543 20.2563 18.3543 18.2802C18.3543 16.3041 18.9874 14.3801 20.1606 12.7914C21.3315 14.3811 21.9632 16.3047 21.9632 18.2802C21.9632 20.2557 21.3315 22.1793 20.1606 23.769V23.769ZM33.0362 25.7189C31.4542 26.8775 29.5452 27.5019 27.5854 27.5019C25.6256 27.5019 23.7166 26.8775 22.1346 25.7189C23.8122 23.6002 24.7245 20.9752 24.7231 18.271C24.7217 15.5669 23.8066 12.9429 22.1268 10.8259C23.7107 9.66282 25.6234 9.03574 27.5874 9.03574C29.5513 9.03574 31.4641 9.66282 33.0479 10.8259C31.3738 12.9443 30.4629 15.5668 30.4629 18.2685C30.4629 20.9702 31.3738 23.5927 33.0479 25.7111L33.0362 25.7189ZM34.983 23.769C33.8098 22.1803 33.1766 20.2563 33.1766 18.2802C33.1766 16.3041 33.8098 14.3801 34.983 12.7914C36.1538 14.3811 36.7855 16.3047 36.7855 18.2802C36.7855 20.2557 36.1538 22.1793 34.983 23.769V23.769ZM47.8586 25.7189C46.2765 26.8775 44.3676 27.5019 42.4078 27.5019C40.448 27.5019 38.539 26.8775 36.9569 25.7189C38.6337 23.6017 39.5462 20.9787 39.5462 18.2763C39.5462 15.5739 38.6337 12.9509 36.9569 10.8337C38.539 9.67513 40.448 9.05068 42.4078 9.05068C44.3676 9.05068 46.2765 9.67513 47.8586 10.8337C46.1845 12.9521 45.2736 15.5746 45.2736 18.2763C45.2736 20.978 46.1845 23.6005 47.8586 25.7189V25.7189ZM49.8053 23.769C48.6321 22.1803 47.999 20.2563 47.999 18.2802C47.999 16.3041 48.6321 14.3801 49.8053 12.7914C50.9761 14.3811 51.6078 16.3047 51.6078 18.2802C51.6078 20.2557 50.9761 22.1793 49.8053 23.769V23.769ZM57.2223 27.5167C55.2616 27.5114 53.3532 26.8833 51.7715 25.7228C53.4456 23.6044 54.3565 20.9819 54.3565 18.2802C54.3565 15.5785 53.4456 12.956 51.7715 10.8376C52.9461 9.9741 54.3083 9.40174 55.7464 9.16743C57.1846 8.93312 58.6576 9.04355 60.0449 9.48965C61.4322 9.93575 62.6942 10.7048 63.7274 11.7338C64.7606 12.7628 65.5356 14.0224 65.9889 15.4094C66.4421 16.7963 66.5608 18.2712 66.335 19.7129C66.1093 21.1547 65.5456 22.5223 64.6902 23.7037C63.8347 24.8851 62.712 25.8466 61.4139 26.5094C60.1158 27.1722 58.6793 27.5174 57.2223 27.5167V27.5167Z" fill="white"/>
</g>
<defs>
<clipPath id="clip0_1302_33652">
<rect width="69" height="55" fill="white" transform="translate(0.5)"/>
</clipPath>
</defs>
</svg>
