<svg width="98" height="55" viewBox="0 0 98 55" fill="none" xmlns="http://www.w3.org/2000/svg">
<path d="M18.5458 35.1106C14.2614 35.1106 10.7892 31.7035 10.7892 27.5008C10.7892 23.2979 14.2614 19.894 18.5458 19.894C20.0559 19.894 21.4658 20.3164 22.6568 21.0485L18.5458 27.5008L26.2852 23.118C25.4444 21.8041 24.2384 20.6719 22.7801 19.8127C20.9244 18.7231 18.3431 18.0488 15.4887 18.0488C11.4171 18.0488 7.84499 19.4999 5.85294 21.673C4.37807 23.2794 3.5 25.3013 3.5 27.5007C3.5 29.7017 4.37807 31.7249 5.85294 33.3325C7.85017 35.5083 11.369 36.9509 15.3735 36.9509C19.3774 36.9509 22.8953 35.5072 24.8938 33.3325C25.0032 33.2128 25.1092 33.0919 25.2094 32.9665L24.9076 31.8571C23.5035 33.8228 21.1778 35.1106 18.5458 35.1106" fill="white"/>
<path d="M44.2046 36.4931L40.9563 24.6087C40.4345 22.6882 38.6514 21.2766 36.5285 21.2766C35.9779 21.2766 35.4503 21.3731 34.9608 21.5477L27.9677 24.0417H35.1601L36.3891 28.5433C35.1969 27.5369 33.6442 26.9246 31.944 26.9246C28.5679 26.9246 25.8345 29.1435 25.8345 31.8805C25.8345 34.6178 28.5679 36.8399 31.944 36.8399C34.3745 36.8399 36.5239 35.6729 37.8497 33.8801L38.5627 36.4931H44.2046V36.4931ZM34.2961 34.6471C32.7388 34.6471 31.4764 33.4101 31.4764 31.8805C31.4764 30.3532 32.7388 29.115 34.2961 29.115C35.8535 29.115 37.1171 30.3532 37.1171 31.8805C37.1171 33.4101 35.8535 34.6471 34.2961 34.6471Z" fill="white"/>
<path d="M57.4498 21.2781C57.0236 21.2781 56.6204 21.3705 56.261 21.536L51.771 23.5882C51.5487 22.2773 50.3876 21.2781 48.987 21.2781C48.5631 21.2781 48.1588 21.3705 47.7948 21.536L42.313 24.0411H46.1672V36.4926H51.809V25.4263C51.809 24.6628 52.4391 24.0412 53.2201 24.0412C53.9965 24.0412 54.6311 24.6628 54.6311 25.4263V36.4926H60.2707V24.0411C60.2707 22.5141 59.0071 21.2782 57.4498 21.2782" fill="white"/>
<path d="M78.6029 29.1143C78.6029 33.4423 75.0263 36.95 70.6146 36.95C66.1995 36.95 62.6206 33.4423 62.6206 29.1143C62.6206 24.7875 66.1995 21.2781 70.6146 21.2781C75.0263 21.2781 78.6029 24.7876 78.6029 29.1143V29.1143ZM70.9452 23.6563C70.6941 22.7343 69.7277 22.1869 68.7877 22.4348C67.849 22.6816 67.288 23.63 67.5403 24.5519L70.2806 34.572C70.534 35.495 71.4981 36.0417 72.438 35.7977C73.378 35.5481 73.9366 34.6003 73.6844 33.6784L70.9452 23.6563V23.6563Z" fill="white"/>
<path d="M92.8295 21.2781C92.4022 21.2781 91.9967 21.3705 91.6316 21.536L87.1462 23.5882C86.925 22.2773 85.7639 21.2781 84.3632 21.2781C83.9394 21.2781 83.535 21.3705 83.1699 21.536L77.6904 24.0411H81.5434V36.4926H87.1842V25.4263C87.1842 24.6628 87.8154 24.0412 88.5964 24.0412C89.375 24.0412 90.0051 24.6628 90.0051 25.4263V36.4926H95.6493V24.0411C95.6493 22.5141 94.3846 21.2782 92.8295 21.2782" fill="white"/>
</svg>
