<svg width="58" height="55" viewBox="0 0 58 55" fill="none" xmlns="http://www.w3.org/2000/svg">
<g clip-path="url(#clip0_1302_33445)">
<path d="M0.708008 51.262C0.708008 50.016 1.68824 49.0593 2.8467 49.0593C3.67099 49.0593 4.38389 49.4821 4.71806 50.283L4.11655 50.55C3.89377 49.9716 3.42593 49.6823 2.8467 49.6823C2.04469 49.6823 1.42091 50.3498 1.42091 51.262C1.42091 52.2187 2.04469 52.8417 2.86898 52.8417C3.47049 52.8417 3.98289 52.4857 4.18339 51.885L4.82945 52.1075C4.53984 52.9307 3.78238 53.4647 2.89126 53.4647C1.66597 53.4647 0.708008 52.597 0.708008 51.262Z" fill="white"/>
<path d="M5.58643 49.1265H6.23249V53.3983H5.58643V49.1265Z" fill="white"/>
<path d="M7.39111 49.1265H9.01741C9.88626 49.1265 10.51 49.6827 10.51 50.4614C10.51 51.0177 10.1759 51.4626 9.66348 51.6851L10.7105 53.3983H9.93082L8.97286 51.7964H8.03718V53.3983H7.39111V49.1265V49.1265ZM8.03718 49.7272V51.2179H8.95058C9.50753 51.2179 9.81943 50.9064 9.81943 50.4837C9.81943 50.0387 9.50753 49.7272 8.95058 49.7272H8.03718V49.7272Z" fill="white"/>
<path d="M17.7285 55.0008C15.6121 55.0008 14.3199 53.7549 12.8496 53.4211C11.9139 53.1986 11.1787 52.3532 11.1787 51.2852C11.1787 50.017 12.1589 49.0825 13.3397 49.0825C14.5204 49.0825 15.5007 50.017 15.5007 51.2852C15.5007 52.2197 14.9437 52.9762 14.1417 53.2876C15.367 53.7549 16.5032 54.5781 18.0404 54.5781C18.6864 54.5781 19.2879 54.4001 19.8672 53.9996L20.0008 54.1999C19.4216 54.6894 18.7087 55.0008 17.7285 55.0008ZM14.7878 51.263C14.7878 50.3285 14.1417 49.6833 13.3174 49.6833C12.4931 49.6833 11.8471 50.3285 11.8471 51.263C11.8471 52.1974 12.4931 52.8427 13.3174 52.8427C14.164 52.8427 14.7878 52.1974 14.7878 51.263Z" fill="white"/>
<path d="M16.3477 51.7519V49.1265H16.9937V51.7074C16.9937 52.4416 17.3947 52.8421 18.0631 52.8421C18.7091 52.8421 19.1324 52.4416 19.1324 51.7074V49.1265H19.7785V51.7519C19.7785 52.7976 19.0433 53.4651 18.0631 53.4651C17.0606 53.4651 16.3477 52.8199 16.3477 51.7519Z" fill="white"/>
<path d="M20.8472 49.1265H23.7879V49.7272H21.4932V50.9732H23.5651V51.5516H21.4932V52.7976H23.8102V53.3983H20.8472V49.1265Z" fill="white"/>
<path d="M26.2837 49.1265H27.7318C28.9793 49.1265 29.915 50.0164 29.915 51.2624C29.915 52.4861 29.0016 53.3983 27.7318 53.3983H26.2837V49.1265ZM26.9298 49.7272V52.7976H27.6427C28.5783 52.7976 29.2021 52.1746 29.2021 51.2624C29.2021 50.3502 28.5783 49.7272 27.6427 49.7272H26.9298Z" fill="white"/>
<path d="M30.7393 51.7519V49.1265H31.3853V51.7074C31.3853 52.4416 31.7863 52.8421 32.4547 52.8421C33.1007 52.8421 33.524 52.4416 33.524 51.7074V49.1265H34.1701V51.7519C34.1701 52.7976 33.4349 53.4651 32.4547 53.4651C31.4744 53.4651 30.7393 52.8199 30.7393 51.7519Z" fill="white"/>
<path d="M38.4248 51.6182L37.8455 51.4848C37.0658 51.3068 36.7094 50.7728 36.7094 50.2833C36.7094 49.6381 37.2663 49.0596 38.1574 49.0596C38.9594 49.0596 39.5164 49.5491 39.6278 50.1943L39.004 50.3055C38.9372 49.8828 38.6475 49.6381 38.1352 49.6381C37.6005 49.6381 37.3554 49.9495 37.3554 50.261C37.3554 50.5503 37.5336 50.795 38.0238 50.9063L38.5807 51.0398C39.3382 51.2178 39.7392 51.685 39.7392 52.219C39.7392 52.931 39.1599 53.4872 38.1797 53.4872C37.244 53.4872 36.6425 52.9087 36.5757 52.1522L37.2217 52.041C37.2663 52.5527 37.5782 52.8865 38.202 52.8865C38.7589 52.8865 39.0486 52.5972 39.0486 52.2412C39.0486 51.9742 38.8703 51.7295 38.4248 51.6182Z" fill="white"/>
<path d="M40.3853 51.2623C40.3853 49.994 41.3655 49.0596 42.5462 49.0596C43.727 49.0596 44.7072 49.994 44.7072 51.2623C44.7072 52.5082 43.727 53.4649 42.5462 53.4649C41.3655 53.4649 40.3853 52.5305 40.3853 51.2623ZM43.9943 51.2623C43.9943 50.3278 43.3482 49.6826 42.5239 49.6826C41.6997 49.6826 41.0536 50.3278 41.0536 51.2623C41.0536 52.1967 41.6997 52.842 42.5239 52.842C43.3482 52.842 43.9943 52.1967 43.9943 51.2623Z" fill="white"/>
<path d="M45.5986 49.1265H46.2447V52.7976H48.3388V53.3983H45.5986V49.1265Z" fill="white"/>
<path d="M49.0521 49.1265H51.9928V49.7272H49.6981V50.9732H51.77V51.5516H49.6981V52.7976H52.0151V53.3983H49.0298V49.1265H49.0521Z" fill="white"/>
<path d="M52.9722 49.1265H53.6182V53.3983H52.9722V49.1265Z" fill="white"/>
<path d="M54.7773 49.1265H55.4234V52.7976H57.5176V53.3983H54.7773V49.1265Z" fill="white"/>
<path d="M57.0494 49.126C57.2944 49.126 57.5172 49.3262 57.5172 49.5932C57.5172 49.838 57.3167 50.0604 57.0494 50.0604C56.8043 50.0604 56.5815 49.8602 56.5815 49.5932C56.6038 49.3485 56.8043 49.126 57.0494 49.126ZM57.0494 49.9714C57.2499 49.9714 57.4058 49.8157 57.4058 49.6155C57.4058 49.4152 57.2499 49.2595 57.0494 49.2595C56.8489 49.2595 56.6929 49.4152 56.6929 49.6155C56.6929 49.7935 56.8489 49.9714 57.0494 49.9714ZM57.0494 49.66H57.0048V49.838H56.8934V49.3485H57.0717C57.1608 49.3485 57.2499 49.4152 57.2499 49.5042C57.2499 49.571 57.2053 49.6377 57.1385 49.66L57.2499 49.8602H57.1385L57.0494 49.66ZM57.0717 49.571C57.1162 49.571 57.1608 49.5487 57.1608 49.5042C57.1608 49.4597 57.1385 49.4375 57.0717 49.4375H57.0048V49.571H57.0717V49.571Z" fill="white"/>
<path d="M35.1733 25.3427L38.4481 30.1263L34.4604 26.1659C33.5024 27.1227 32.2994 27.8124 30.9404 28.1461L31.0295 28.5021C31.0741 28.6801 31.0964 28.8359 31.1409 29.0138C31.3192 29.9706 31.4974 30.8605 33.1905 31.8618C34.594 32.6627 34.6831 34.2647 34.6386 34.7097C34.8614 34.4872 35.1733 33.931 35.2178 33.2412C35.2624 32.6182 35.1064 31.706 34.1039 30.816C32.7672 29.6368 32.9677 28.2574 33.1905 27.5454L33.2351 27.4341L41.1438 32.8407L35.5966 24.7197C35.4629 24.9422 35.3292 25.1425 35.1733 25.3427Z" fill="white"/>
<path d="M18.442 25.7435C20.3357 26.2552 21.0931 25.7213 21.8951 25.1873C22.0288 25.0983 22.1847 24.987 22.3407 24.898L22.6526 24.72C22.1402 23.8746 21.7837 22.9178 21.6501 21.8944L15.9692 20.8264H21.5387C21.5387 20.2034 21.6055 19.5804 21.7615 19.002L12.0928 20.8264L21.5387 22.6063L21.4941 22.6953C21.16 23.3628 20.3134 24.4975 18.5311 24.3863C17.2167 24.2973 16.437 24.8313 16.036 25.2985C15.5682 25.8325 15.4122 26.4332 15.3899 26.7447C15.6795 26.3887 16.8826 25.3208 18.442 25.7435Z" fill="white"/>
<path d="M25.0593 31.8391C26.7524 30.8601 26.9307 29.9479 27.1089 28.9911C27.1312 28.8354 27.1757 28.6574 27.198 28.5017L27.2871 28.1457C25.9281 27.8119 24.7251 27.1 23.7672 26.1432L19.8017 30.1036L23.0765 25.32C22.9206 25.1198 22.7869 24.8973 22.6533 24.697L17.0837 32.8403L25.0147 27.4337L25.0593 27.5449C25.3044 28.2569 25.5049 29.6364 24.1459 30.8156C23.1434 31.6833 22.9874 32.6178 23.032 33.2408C23.0765 33.9305 23.3884 34.4867 23.6112 34.7092C23.5667 34.242 23.6558 32.6623 25.0593 31.8391Z" fill="white"/>
<path d="M24.6353 7.7431C24.1007 7.27586 23.4991 7.12012 23.1873 7.09787C23.5214 7.38711 24.5908 8.58857 24.1675 10.146C23.6551 12.0372 24.1898 12.7937 24.7244 13.5947C24.8136 13.7282 24.9249 13.8839 25.0141 14.0397L25.1923 14.3512C26.0389 13.8394 26.9968 13.4834 28.0216 13.3499L29.0909 7.67635V13.2609C30.5167 13.2609 31.8534 13.6614 32.9896 14.3289L33.1678 14.0174C33.257 13.8617 33.3683 13.7282 33.4575 13.5724C34.0144 12.7714 34.5268 12.015 34.0144 10.1238C33.5911 8.56632 34.6605 7.36486 34.9946 7.07562C34.6827 7.07562 34.0812 7.25361 33.5466 7.72085C33.0787 8.12134 32.5441 8.90006 32.6332 10.2128C32.7446 11.9927 31.6307 12.8159 30.9623 13.1719L30.8732 13.2164L29.0909 3.78271L27.3087 13.2164L27.2196 13.1719C26.5512 12.8382 25.4373 11.9927 25.5487 10.2128C25.6378 8.92231 25.1032 8.14359 24.6353 7.7431Z" fill="white"/>
<path d="M34.4603 15.4629L38.4258 11.5025L35.1509 16.2861C35.7524 17.0871 36.198 17.9993 36.443 18.9783L36.7995 18.8893C36.9777 18.8448 37.1337 18.8225 37.3119 18.778C38.2698 18.6 39.161 18.4221 40.1635 16.7311C40.9655 15.3294 42.5695 15.2404 43.0151 15.2849C42.7923 15.0624 42.2353 14.7509 41.5447 14.7064C40.9209 14.6619 40.0075 14.8177 39.1164 15.8189C37.9357 17.1538 36.5544 16.9536 35.8415 16.7311L35.7301 16.6866L41.1437 8.78809L33.0122 14.3282C33.5469 14.6619 34.037 15.0402 34.4603 15.4629Z" fill="white"/>
<path d="M30.9177 28.1455C30.6726 28.2123 30.4276 28.2568 30.1825 28.3013L29.1132 33.9748V28.368C28.4894 28.368 27.8656 28.279 27.2864 28.1455L29.1132 37.8017L30.9177 28.1455Z" fill="white"/>
<path d="M42.8366 26.7225C42.8366 26.411 42.6583 25.8103 42.1905 25.2763C41.7895 24.809 41.0098 24.275 39.6954 24.364C37.9131 24.4753 37.0665 23.3628 36.7324 22.6953L36.6878 22.6063L46.1337 20.8264L36.465 19.002C36.5319 19.2467 36.5764 19.4914 36.621 19.7362L42.3019 20.8041H36.6878C36.6878 22.2281 36.2868 23.5631 35.5962 24.6978L35.9081 24.8758C36.064 24.9648 36.1977 25.076 36.3536 25.165C37.1557 25.7213 37.9131 26.233 39.8067 25.7213C41.3439 25.3208 42.547 26.3887 42.8366 26.7225Z" fill="white"/>
<path d="M22.4079 16.7533C21.695 16.9981 20.3138 17.1983 19.133 15.8411C18.2642 14.8399 17.3285 14.6842 16.7047 14.7287C16.0141 14.7732 15.4572 15.0846 15.2344 15.3071C15.6799 15.2626 17.284 15.3739 18.086 16.7533C19.0662 18.4443 19.9796 18.6223 20.9376 18.8003C21.0935 18.8225 21.2717 18.867 21.4277 18.9115L21.7841 19.0005C22.0292 17.9993 22.4748 17.0871 23.0763 16.3084L19.8014 11.5025L23.7669 15.4629C24.1902 15.0402 24.6803 14.6619 25.215 14.3282L17.0835 8.78809L22.497 16.7089L22.4079 16.7533Z" fill="white"/>
<path d="M20.6248 31.5053C21.0926 31.8835 21.5827 32.2173 22.1174 32.5288C22.1619 32.0838 22.2956 31.7278 22.4293 31.4386C22.1397 31.2606 21.8723 31.0826 21.605 30.8823L20.6248 31.5053Z" fill="white"/>
<path d="M36.1075 32.5288C36.6199 32.2173 37.1101 31.8835 37.6002 31.5053L36.6199 30.8823C36.3526 31.0826 36.0853 31.2606 35.7957 31.4386C35.9516 31.75 36.063 32.106 36.1075 32.5288Z" fill="white"/>
<path d="M38.6921 32.2178C37.8678 32.9075 36.999 33.5082 36.041 33.9977C35.796 34.8654 35.2167 35.4439 34.7043 35.7999C36.5311 35.1102 38.2243 34.109 39.6724 32.8408L38.6921 32.2178Z" fill="white"/>
<path d="M14.5652 27.4774C14.4538 26.8545 14.4538 26.0312 14.8994 25.2525C14.5875 24.2513 14.387 23.1833 14.2756 22.1153L13.1394 21.8706C13.2731 23.8508 13.7632 25.742 14.5652 27.4774Z" fill="white"/>
<path d="M15.5229 22.3831C15.5898 22.9838 15.7012 23.5845 15.8571 24.163C16.2136 23.896 16.5477 23.718 16.8596 23.6068C16.7928 23.273 16.726 22.9615 16.6814 22.6278L15.5229 22.3831Z" fill="white"/>
<path d="M33.7908 34.9314C32.7214 35.2874 31.5852 35.5321 30.4045 35.6211L30.1594 36.7558C31.3847 36.6668 32.5877 36.4666 33.7239 36.1106C33.7908 35.7324 33.813 35.3319 33.7908 34.9314Z" fill="white"/>
<path d="M15.813 27.522C15.5011 27.789 15.2338 28.0782 15.011 28.3897C15.5902 29.4577 16.2808 30.4589 17.0828 31.3489L17.7066 30.3921C16.9715 29.5022 16.3477 28.5454 15.813 27.522Z" fill="white"/>
<path d="M16.8594 26.8554C17.2827 27.7231 17.8173 28.5463 18.4188 29.3028L19.0426 28.3238C18.6639 27.8121 18.3297 27.3004 18.0401 26.7441C17.6614 26.6551 17.2604 26.7219 16.8594 26.8554Z" fill="white"/>
<path d="M41.3652 23.6068C41.6994 23.718 42.0336 23.896 42.3677 24.163C42.5237 23.5845 42.6128 22.9838 42.7019 22.3831L41.5435 22.6278C41.4989 22.9615 41.4321 23.2953 41.3652 23.6068Z" fill="white"/>
<path d="M24.7239 33.7523C25.6373 34.0638 26.573 34.2641 27.5532 34.3753L27.3081 33.2184C26.6843 33.1294 26.0606 32.9959 25.4813 32.8179C25.1472 33.0404 24.9021 33.3519 24.7239 33.7523Z" fill="white"/>
<path d="M11.8468 21.5821L10.7329 21.3374C10.8666 26.0098 12.7602 30.2371 15.7455 33.4188L16.3693 32.4621C13.7182 29.5697 12.0473 25.7873 11.8468 21.5821Z" fill="white"/>
<path d="M22.1845 33.975C21.2265 33.4855 20.3577 32.8848 19.5334 32.1951L18.5754 32.818C20.0235 34.0863 21.6944 35.1097 23.5435 35.7772C23.0088 35.4212 22.4295 34.8427 22.1845 33.975Z" fill="white"/>
<path d="M41.3659 26.8552C40.9649 26.6994 40.5639 26.6549 40.1851 26.7217C39.8955 27.2779 39.5391 27.8119 39.1826 28.3014L39.8064 29.2804C40.4079 28.5461 40.9426 27.7452 41.3659 26.8552Z" fill="white"/>
<path d="M30.6721 34.3748C31.6524 34.2636 32.588 34.0411 33.5014 33.7518C33.3232 33.3736 33.0782 33.0398 32.744 32.8396C32.1425 33.0176 31.541 33.1511 30.9172 33.2401L30.6721 34.3748Z" fill="white"/>
<path d="M17.9517 23.4053C18.4418 23.3608 18.9096 23.3608 19.3329 23.1828L17.8625 22.8713C17.8848 23.0493 17.9294 23.2273 17.9517 23.4053Z" fill="white"/>
<path d="M19.6889 27.3219L19.9562 26.8992C19.8003 26.9214 19.6444 26.9437 19.4438 26.9437C19.533 27.0772 19.6221 27.1884 19.6889 27.3219Z" fill="white"/>
<path d="M23.053 30.5263C23.3872 30.148 23.6991 29.8143 23.8551 29.4138L22.5852 30.237C22.7634 30.326 22.9194 30.4373 23.053 30.5263Z" fill="white"/>
<path d="M31.6082 31.9728C31.4745 31.8393 31.3408 31.7058 31.274 31.5723L31.1626 32.0618C31.3185 32.0395 31.4745 32.0173 31.6082 31.9728Z" fill="white"/>
<path d="M27.063 32.0618L26.9516 31.5723C26.8625 31.6835 26.7511 31.817 26.6174 31.9728C26.7511 32.0173 26.907 32.0395 27.063 32.0618Z" fill="white"/>
<path d="M49.943 20.8031C49.943 9.32248 40.6085 0 29.113 0C17.6175 0 8.28296 9.32248 8.28296 20.8031C8.28296 32.2838 17.6175 41.6063 29.113 41.6063C40.6085 41.6063 49.943 32.306 49.943 20.8031ZM48.8514 21.0479C48.7845 26.321 46.6681 31.0823 43.2373 34.5977C39.6505 38.2466 34.6602 40.5161 29.1352 40.5161C29.0461 40.5161 28.957 40.5161 28.8679 40.5161C23.6103 40.4493 18.8428 38.3134 15.3451 34.9092C11.7138 31.3716 9.44142 26.4322 9.41914 20.9811C9.41914 20.9366 9.41914 20.8699 9.41914 20.8254C9.41914 20.8254 9.41914 20.8254 9.41914 20.8031C9.41914 20.7364 9.41914 20.6474 9.41914 20.5806L18.3527 18.6672C18.0185 18.4225 17.5952 17.9997 17.1274 17.221C16.5259 16.1975 14.855 15.9973 13.6297 16.2643C13.6297 16.2643 14.4094 13.7946 16.8377 13.7946C18.9987 13.7946 19.4888 15.1741 20.5359 15.5968L14.3872 6.11857L23.0311 11.6809C22.9642 11.2804 22.9642 10.6574 23.187 9.78971C23.4766 8.63275 22.4518 7.32003 21.3825 6.6303C21.3825 6.6303 23.6771 5.42884 25.3925 7.16429C26.9297 8.69949 26.3059 10.0122 26.7292 11.0579L29.113 0.0444987L31.4967 11.0579C31.92 10.0345 31.2962 8.69949 32.8334 7.16429C34.5711 5.42884 36.8435 6.6303 36.8435 6.6303C35.7741 7.32003 34.7716 8.63275 35.0389 9.78971C35.2617 10.6574 35.2617 11.2804 35.1949 11.6809L43.8388 6.11857L37.7123 15.5968C38.7371 15.1741 39.2495 13.7946 41.4105 13.7946C43.8611 13.7946 44.6185 16.2643 44.6185 16.2643C43.3709 15.9973 41.7224 16.2198 41.1209 17.221C40.653 17.9997 40.2297 18.4225 39.8956 18.6672L48.8736 20.6029C48.8736 20.6696 48.8736 20.7364 48.8736 20.8254C48.8736 20.8254 48.8736 20.8254 48.8736 20.8476C48.8736 20.9144 48.8736 20.9811 48.8736 21.0256C48.8514 21.0256 48.8514 21.0479 48.8514 21.0479Z" fill="white"/>
<path d="M41.8552 32.4621L42.479 33.4188C45.4866 30.2371 47.3579 26.0098 47.4916 21.3374L46.3777 21.5821C46.1772 25.7873 44.5063 29.5697 41.8552 32.4621Z" fill="white"/>
<path d="M17.4609 33.552L16.5029 34.175C19.6887 37.1786 23.9215 39.0476 28.5777 39.1811L28.3326 38.0686C24.1443 37.8684 20.357 36.1997 17.4609 33.552Z" fill="white"/>
<path d="M38.7812 26.9437C38.5807 26.9437 38.4025 26.9214 38.2688 26.8992L38.5361 27.3219C38.603 27.1884 38.6921 27.0772 38.7812 26.9437Z" fill="white"/>
<path d="M42.4134 27.522C41.901 28.5454 41.255 29.5244 40.5198 30.3921L41.1436 31.3489C41.9456 30.4366 42.6362 29.4577 43.2154 28.3897C42.9926 28.0782 42.703 27.7667 42.4134 27.522Z" fill="white"/>
<path d="M40.7643 33.552C37.8681 36.1997 34.0586 37.8684 29.8703 38.0464L29.6252 39.1588C34.3036 39.0253 38.5365 37.1564 41.7 34.1527L40.7643 33.552Z" fill="white"/>
<path d="M45.0864 21.8706L43.9502 22.1153C43.8611 23.2056 43.6606 24.2513 43.3264 25.2525C43.772 26.0312 43.772 26.8545 43.6606 27.4774C44.4626 25.742 44.9527 23.8508 45.0864 21.8706Z" fill="white"/>
<path d="M40.3856 22.8713L38.9153 23.1828C39.3163 23.3608 39.7841 23.3608 40.2965 23.4053C40.2965 23.2273 40.3411 23.0493 40.3856 22.8713Z" fill="white"/>
<path d="M35.6178 30.2141L34.3479 29.3909C34.5261 29.7914 34.838 30.1251 35.1499 30.5033C35.3059 30.4366 35.4618 30.3253 35.6178 30.2141Z" fill="white"/>
<path d="M27.8203 35.6211C26.6396 35.5099 25.5257 35.2874 24.434 34.9314C24.4118 35.3319 24.434 35.7324 24.4786 36.1106C25.6148 36.4443 26.8178 36.6668 28.0431 36.7558L27.8203 35.6211Z" fill="white"/>
<path d="M29.1122 14.373C25.5477 14.373 22.6738 17.2655 22.6738 20.8031C22.6738 24.363 25.57 27.2332 29.1122 27.2332C32.6544 27.2332 35.5506 24.3408 35.5506 20.8031C35.5506 17.2655 32.6767 14.373 29.1122 14.373ZM30.2261 18.2667C30.2261 18.2667 30.4934 17.4435 31.5405 17.399C32.5876 17.3545 33.0331 17.9329 33.0331 17.9774L33.1223 18.0887L32.9886 18.0664C32.9886 18.0664 32.3871 17.9552 31.6296 17.9997C30.6717 18.0664 30.3152 18.3334 30.3152 18.3334L30.1815 18.4224L30.2261 18.2667ZM29.1122 22.2716C29.7805 22.2716 29.981 22.1603 29.981 21.9156C29.981 21.7821 29.9588 21.6486 29.9588 21.6486C29.9588 21.6486 30.137 21.7598 30.1815 22.0491C30.2261 22.3606 29.9365 22.7833 29.1122 22.7833C28.2879 22.7833 27.9983 22.3606 28.0428 22.0491C28.0651 21.7598 28.2656 21.6486 28.2656 21.6486C28.2656 21.6486 28.2434 21.7821 28.2434 21.9156C28.2434 22.1603 28.4439 22.2716 29.1122 22.2716ZM25.169 17.9774C25.1913 17.9552 25.5923 17.399 26.5725 17.399C26.5948 17.399 26.6393 17.399 26.6616 17.399C27.7087 17.4435 27.976 18.2667 27.976 18.2667L28.0206 18.4224L27.8869 18.3334C27.8869 18.3334 27.5305 18.0887 26.5725 17.9997C25.815 17.9329 25.2135 18.0442 25.2135 18.0664L25.0799 18.0887L25.169 17.9774ZM25.1913 23.3173C24.8348 23.473 24.3447 23.1615 24.1219 22.6053C23.8991 22.0713 24.0105 21.5151 24.3892 21.3593C24.7457 21.2036 25.2358 21.5151 25.4586 22.0713C25.6814 22.6276 25.57 23.1838 25.1913 23.3173ZM25.8373 19.8241C25.8373 19.7351 25.8596 19.6684 25.8596 19.6461C25.8819 19.4681 25.6145 19.4236 25.3695 19.4681C25.2581 19.4904 25.1021 19.5126 24.8571 19.6016C24.7234 19.6461 24.5452 19.7574 24.5452 19.7574C24.7902 19.2457 25.4363 18.8674 26.2383 18.8007C27.2854 18.7117 28.1988 19.2234 28.2656 19.9576C28.2879 20.0911 28.2656 20.2246 28.2211 20.3581C28.2211 20.3581 28.2211 20.2246 28.1765 20.1134C28.1542 20.0689 28.1542 20.0466 28.132 20.0021C28.0206 19.7574 27.7755 19.5126 27.4413 19.4236C26.9735 19.3124 26.773 19.4904 26.773 19.4904C26.7284 19.5349 26.6839 19.6016 26.6839 19.6684C26.6839 19.8019 26.7953 19.9131 26.9289 19.9131C27.0403 19.9131 27.1294 19.8464 27.1517 19.7574C27.1517 19.8019 27.1517 19.8241 27.1517 19.8241C27.1517 20.1801 26.8621 20.4471 26.5057 20.4471C26.1269 20.4694 25.8596 20.1801 25.8373 19.8241ZM29.5578 25.3197C29.4464 25.3865 29.3127 25.431 29.1345 25.431C28.934 25.431 28.8003 25.3865 28.6889 25.3197C28.5775 25.253 28.5107 25.1862 28.5107 25.1862C28.5107 25.1862 28.5998 25.164 28.7112 25.1417C28.8226 25.1195 28.9785 25.1195 29.1122 25.1195C29.2459 25.1195 29.4018 25.1195 29.5132 25.1417C29.6246 25.164 29.7137 25.1862 29.7137 25.1862C29.7137 25.1862 29.6691 25.253 29.5578 25.3197ZM31.2286 23.6288C30.7162 24.274 29.9365 24.6522 29.1122 24.6522C28.2879 24.6522 27.5082 24.274 26.9958 23.6288L26.8621 23.473L27.0403 23.5398C27.7087 23.7845 28.3993 23.918 29.0899 23.918C29.8028 23.918 30.4934 23.7845 31.1395 23.5398L31.3177 23.473L31.2286 23.6288ZM32.0083 19.4904C31.9638 19.5349 31.9192 19.6016 31.9192 19.6684C31.9192 19.8019 32.0306 19.9131 32.1643 19.9131C32.2757 19.9131 32.3425 19.8464 32.3871 19.7574C32.3871 19.7796 32.3871 19.7796 32.3871 19.8019C32.3871 20.1579 32.0975 20.4471 31.741 20.4471C31.4068 20.4471 31.1395 20.1801 31.0949 19.8686C31.0949 19.8686 31.0949 19.8464 31.0727 19.7796C31.0504 19.6016 30.9167 19.5794 30.7162 19.6016C30.5603 19.6239 30.4266 19.6906 30.2707 19.9131C30.0924 20.1801 29.9365 21.1146 29.9365 21.1146V20.1134C29.9365 20.0466 29.9365 20.0021 29.9365 19.9131C29.9588 19.2012 30.8944 18.6894 31.9638 18.7784C32.7658 18.8452 33.4119 19.2457 33.6569 19.7351C33.6569 19.7351 33.5678 19.6906 33.4341 19.6239C33.1 19.4681 32.7881 19.4014 32.4539 19.3791C32.0975 19.3569 32.0083 19.4904 32.0083 19.4904ZM33.0331 23.3173C32.6767 23.1615 32.543 22.6053 32.7658 22.0713C32.9886 21.5373 33.4564 21.2258 33.8352 21.3593C34.1916 21.5151 34.3253 22.0713 34.1025 22.6053C33.8574 23.1615 33.3896 23.473 33.0331 23.3173Z" fill="white"/>
<path opacity="0.15" d="M31.4958 11.0574C31.7854 10.3899 31.6071 9.58891 31.8745 8.67669L29.1343 0.0439453L29.2679 0.733675L31.4958 11.0574Z" fill="black"/>
<path opacity="0.15" d="M35.0385 9.78978C35.2613 10.6575 35.2613 11.2805 35.1944 11.681L36.5757 10.791C36.3529 10.3905 36.0855 9.96777 35.9519 9.34479C35.6623 7.89858 36.843 6.63037 36.843 6.63037C35.7737 7.3201 34.7489 8.65506 35.0385 9.78978Z" fill="black"/>
<path opacity="0.15" d="M39.137 14.5296C39.1593 14.5074 39.1816 14.4851 39.2039 14.4629C39.2707 14.4184 39.3153 14.3739 39.4044 14.3294C39.5603 14.2181 39.7385 14.1291 39.9168 14.0624L43.8154 6.11938L37.689 15.5976C38.2236 15.3751 38.6246 14.9301 39.137 14.5296Z" fill="black"/>
<path opacity="0.15" d="M41.1203 17.2213C40.6525 18 40.2292 18.4227 39.895 18.6675L41.3654 18.9789H41.4099C41.6995 18.4227 41.7664 17.7552 42.1006 17.2213C42.6575 16.3535 44.6403 16.2423 44.6403 16.2423C43.3704 15.9753 41.7218 16.1978 41.1203 17.2213Z" fill="black"/>
<path opacity="0.15" d="M38.8931 23.2065C39.7842 23.5847 40.8981 23.162 42.1679 24.0297C42.1679 24.0297 42.3016 24.1187 42.3016 24.1409L48.8068 21.0928L38.8931 23.2065Z" fill="#77787B"/>
<path opacity="0.15" d="M40.7417 27.9C42.2789 27.633 43.1032 28.2782 43.1923 28.3895C42.9918 28.1225 42.769 27.8777 42.524 27.633C41.8334 26.9878 40.9422 26.565 40.1402 26.743C39.2714 26.9655 38.6476 26.9655 38.2466 26.8988L39.1377 28.256C39.7392 28.2337 40.2293 27.989 40.7417 27.9Z" fill="#77787B"/>
<path opacity="0.15" d="M35.8626 30.3928L34.3477 29.4138C34.7264 30.326 35.8626 30.8378 36.1076 32.462V32.4842L42.8356 34.8872L35.8626 30.3928Z" fill="#77787B"/>
<path opacity="0.15" d="M32.7217 32.8184C31.942 32.3512 31.5187 31.9285 31.2736 31.5947L30.9395 33.1744C31.2513 33.4414 31.8529 33.5082 32.2761 33.8197C33.6797 34.7764 33.7242 36.0891 33.7242 36.1336C33.947 34.9099 33.7019 33.3969 32.7217 32.8184Z" fill="#77787B"/>
<path opacity="0.15" d="M26.7508 11.0574C26.4612 10.3899 26.6394 9.58891 26.3721 8.67669L29.1123 0.0439453L28.9786 0.733675L26.7508 11.0574Z" fill="black"/>
<path opacity="0.15" d="M23.1864 9.78978C22.9636 10.6575 22.9636 11.2805 23.0304 11.681L21.6492 10.791C21.872 10.3905 22.1393 9.96777 22.273 9.34479C22.5626 7.89858 21.3818 6.63037 21.3818 6.63037C22.4512 7.3201 23.476 8.65506 23.1864 9.78978Z" fill="black"/>
<path opacity="0.15" d="M19.0874 14.5296C19.0651 14.5074 19.0428 14.4851 19.0206 14.4629C18.9537 14.4184 18.9092 14.3739 18.8201 14.3294C18.6641 14.2181 18.4859 14.1291 18.3077 14.0624L14.3867 6.11938L20.5132 15.5976C20.0008 15.3751 19.6221 14.9301 19.0874 14.5296Z" fill="black"/>
<path opacity="0.15" d="M17.1269 17.2213C17.5947 18 18.018 18.4227 18.3522 18.6675L16.8818 18.9789H16.8373C16.5476 18.4227 16.4808 17.7552 16.1466 17.2213C15.5897 16.3535 13.6069 16.2423 13.6069 16.2423C14.8545 15.9753 16.5031 16.1978 17.1269 17.2213Z" fill="black"/>
<path opacity="0.15" d="M19.333 23.2063C18.4419 23.5845 17.328 23.1618 16.0581 24.0295C16.0581 24.0295 15.9245 24.1185 15.9245 24.1407L9.39697 21.0703L19.333 23.2063Z" fill="#77787B"/>
<path opacity="0.15" d="M17.4833 27.9C15.9461 27.633 15.1218 28.2782 15.0327 28.3895C15.2332 28.1225 15.456 27.8777 15.7011 27.633C16.3917 26.9878 17.2828 26.565 18.0848 26.743C18.9537 26.9655 19.5774 26.9655 19.9785 26.8988L19.0873 28.256C18.5081 28.2337 17.9957 27.989 17.4833 27.9Z" fill="#77787B"/>
<path opacity="0.15" d="M22.3622 30.3928L23.8771 29.4138C23.4984 30.326 22.3622 30.8378 22.1171 32.462V32.4842L15.3892 34.8872L22.3622 30.3928Z" fill="#77787B"/>
<path opacity="0.15" d="M25.5034 32.8184C26.2832 32.3512 26.7065 31.9285 26.9515 31.5947L27.2857 33.1744C26.9738 33.4414 26.3723 33.5082 25.949 33.8197C24.5455 34.7764 24.5009 36.0891 24.5009 36.1336C24.3004 34.9099 24.5455 33.3969 25.5034 32.8184Z" fill="#77787B"/>
<path opacity="0.15" d="M29.1132 22.7839C28.5339 22.7839 28.222 22.5836 28.0884 22.3389C28.1775 22.6281 28.4226 23.0063 29.1132 23.0063C29.8038 23.0063 30.0489 22.6059 30.138 22.3389C30.138 22.3389 30.138 22.3611 30.1157 22.3611C30.0043 22.5614 29.6924 22.7839 29.1132 22.7839Z" fill="#77787B"/>
<path opacity="0.15" d="M29.5583 25.3193C29.4469 25.386 29.3132 25.4305 29.135 25.4305C28.9345 25.4305 28.8008 25.386 28.6895 25.3193C28.5781 25.2525 28.5112 25.1858 28.5112 25.1858C28.5112 25.1858 28.5781 25.653 29.1127 25.653C29.6474 25.653 29.7142 25.1858 29.7142 25.1858C29.7142 25.1858 29.6697 25.2525 29.5583 25.3193Z" fill="#77787B"/>
<path d="M42.8354 37.8008H43.3033V37.912H43.1251V38.4015H42.9914V37.912H42.8354V37.8008ZM43.9716 37.8008V38.4015H43.838V38.179C43.838 38.1345 43.838 38.09 43.838 38.0455L43.7043 38.4015H43.5929L43.4592 38.0455C43.4592 38.09 43.4592 38.1345 43.4592 38.179V38.4238H43.3701V37.823H43.5038L43.682 38.2903L43.838 37.823H43.9716V37.8008Z" fill="white"/>
</g>
<defs>
<clipPath id="clip0_1302_33445">
<rect width="57" height="55" fill="white" transform="translate(0.708008)"/>
</clipPath>
</defs>
</svg>
