<svg width="97" height="55" viewBox="0 0 97 55" fill="none" xmlns="http://www.w3.org/2000/svg">
<path d="M36.9327 39.2246C33.3624 36.9194 28.517 36.5149 20.7029 38.6878C12.3724 40.6499 9.59486 41.9077 5.94721 39.3828C4.54586 38.1424 4.04344 36.1454 4.4186 33.2687C5.28875 28.5793 7.64024 24.0664 11.8172 19.0606C14.1485 16.4566 16.3112 14.2218 19.1668 13.3245C21.3555 12.7615 21.1508 14.4855 20.886 14.732C20.6066 14.732 20.1371 14.7761 19.7743 15.0134C19.4799 15.2423 18.6716 15.9814 18.6282 16.9755C18.5656 18.4974 20.1369 18.1806 20.8147 17.345C21.5452 16.4034 22.6249 14.6003 21.7756 12.9197C21.4196 12.3215 20.8046 11.9081 20.0409 11.7674C17.4261 11.6176 14.9909 12.8669 12.7432 14.2482C7.82795 17.6705 3.89604 22.4125 1.6712 27.6033C0.388584 30.7351 -0.771451 35.2214 0.967283 38.8728C2.3125 41.4064 5.10501 42.7522 8.43675 42.4708C10.7735 42.2247 13.5991 41.4677 15.4995 41.0107C17.4 40.5528 27.1279 37.2013 30.3243 43.0346C30.3243 43.0346 31.3871 40.9666 34.0434 40.9224C36.2272 40.7205 39.3777 41.5561 41.6719 43.2449C40.9075 42.0928 38.7405 40.3948 36.9327 39.2246V39.2246Z" fill="white"/>
<path d="M21.6948 19.6506C19.8753 18.4541 16.2184 20.7415 13.2894 24.6651C10.611 28.1845 9.45443 32.2749 10.7132 34.1665C12.5854 36.3922 16.0613 33.1548 17.5394 31.4219L17.7301 31.2194C18.7353 30.1372 19.5118 28.8351 20.2636 27.5856C20.2636 27.5856 20.9544 26.4419 20.9874 26.389C21.4144 26.3102 21.9286 26.1869 22.5082 26.0197C22.4999 26.0459 20.2909 29.7674 20.5163 31.6146C20.5864 32.1782 20.5329 34.2368 22.5382 34.8613C25.2109 35.3103 27.345 33.2337 29.2278 31.3862C29.2278 31.3862 29.5486 31.0786 29.7301 30.903C29.6842 31.0871 29.6243 31.333 29.6243 31.333C28.8418 34.0603 29.8966 34.6326 30.5563 34.8437C32.5503 35.4248 34.9324 32.5214 34.9402 32.5214C34.8783 33.4359 34.6978 34.1924 35.6597 34.7996C36.5675 35.1254 37.4863 34.6287 38.1848 34.1624C40.7005 32.3854 42.7272 29.604 44.3642 27.1998H43.32C43.3076 27.1998 40.7435 30.925 39.0784 31.7346C39.0757 31.7346 38.7727 31.8905 38.5982 31.7672C38.3819 31.5824 38.4672 31.1981 38.6007 30.9259C38.6091 30.9082 45.0298 19.7467 45.0298 19.7467H41.9983C41.9983 19.7467 41.6671 20.2837 41.6401 20.3189C41.6197 20.3014 41.5712 20.2091 41.5376 20.1648C39.6594 17.5608 35.406 21.5663 32.2038 26.2112C30.971 27.9973 29.4013 30.0083 27.7738 31.4599C27.7738 31.4599 25.3626 33.6752 24.3324 32.0836C23.9558 31.4148 24.0717 30.4371 24.2841 29.7951C25.4836 26.3727 27.5505 23.2668 29.9026 21.3928C30.5664 20.8741 31.2882 20.7241 31.6462 20.944C31.9876 21.1467 32.0426 21.6478 31.8267 21.991C31.279 21.9734 30.84 22.1403 30.4833 22.5098C29.7805 23.2489 29.5363 23.9616 29.7597 24.6303C30.8453 26.1787 33.0103 23.117 32.9056 21.2519C32.8681 20.5832 32.5123 19.9499 31.981 19.6417C31.1893 19.1668 29.9815 19.2898 29.1999 19.6684C28.1534 20.0641 26.4972 21.4452 25.5304 22.5187C24.3132 23.8649 22.2257 25.3604 21.573 25.1929C21.7864 24.621 23.5496 21.0052 21.6948 19.6506ZM36.3105 24.9995C36.9002 24.1815 38.6166 21.9907 39.0351 21.6213C40.4424 20.3804 41.0049 20.9264 41.0536 21.3132C39.7402 23.6709 38.19 26.3719 36.7325 28.8002C36.7355 28.7916 36.2764 29.4952 36.2764 29.4952C35.6327 30.4802 34.9846 31.3249 33.9273 31.9142C33.7765 31.9585 33.528 31.9762 33.3626 31.8525C33.1635 31.7205 33.085 31.5005 33.1074 31.2718C33.1709 30.5154 33.9392 28.202 36.3105 24.9995ZM19.8185 26.4158C19.8185 26.4158 19.792 26.4953 19.779 26.5213C19.7756 26.5213 18.4572 28.6764 18.4572 28.6764C17.6615 29.7411 16.6681 31.0787 15.4262 31.7206C15.0581 31.8437 14.5493 31.9232 14.29 31.5979C13.7403 30.9379 14.0236 30.0229 14.2537 29.2841L14.3353 29.0201C14.9952 27.2256 16.0421 25.6417 17.0613 24.1724C17.0741 24.1638 17.1026 24.155 17.1129 24.155C17.1154 24.1638 17.1195 24.1638 17.1212 24.1815C17.7607 25.4129 18.9598 25.9845 19.8566 26.2489C19.862 26.2489 19.8679 26.2576 19.8679 26.2753C19.868 26.3015 19.8534 26.337 19.8185 26.4158ZM21.0675 23.8736C21.0616 23.8911 20.4803 25.2284 20.4803 25.2284C20.3962 25.2987 20.2633 25.2636 20.111 25.2284L19.85 25.1841C19.0305 24.9292 18.4123 24.3837 18.2217 23.7327C17.959 22.4658 19.0388 21.4717 19.5144 21.1111C19.9709 20.7941 20.6806 20.627 21.0927 20.9527C21.3468 21.2519 21.4431 21.6389 21.4431 22.0614C21.4433 22.633 21.2672 23.2752 21.0675 23.8736ZM59.3923 27.9554C59.0999 27.3221 58.4061 26.9173 57.6665 26.9612C55.265 27.1813 52.9161 29.1607 51.6826 32.0022C51.0354 33.4627 50.6822 34.6679 50.4506 36.5857C51.1975 35.7238 52.7207 34.3075 54.4492 33.5332C54.4492 33.5332 54.6844 31.6946 55.8838 30.0581C56.3376 29.3805 57.2458 28.2897 58.2656 28.5799C59.1568 28.8791 58.8435 31.3513 57.6592 33.7438C56.783 35.5036 55.4421 37.2636 54.0853 38.4774C52.8858 39.4978 51.1111 40.7295 49.5584 39.7795C48.5804 39.1991 48.0816 37.9846 48.1869 36.4187C48.6542 31.9761 50.672 28.193 53.5595 23.8823C56.5368 19.8793 59.8188 15.7709 64.2401 13.5799C65.1419 13.1225 65.977 13.0169 66.6989 13.2985C66.6989 13.2985 62.5486 15.5859 60.5702 19.8177C60.067 20.8912 59.367 22.3423 60.0719 23.6269C60.4402 24.2954 61.0941 24.3483 61.6208 24.3131C64.0458 23.7499 65.6125 21.4802 66.8926 19.4041C67.6348 17.8294 68.2944 16.2634 68.2944 14.5214C68.2944 14.3103 68.2835 14.0289 68.2658 13.8176C69.4242 13.2019 71.8001 14.2926 71.8001 14.2926C73.6566 14.9087 77.6096 17.944 78.9431 18.5244C79.5935 17.7679 80.6624 16.6244 81.2643 16.0524L80.393 15.5157C78.9981 14.6623 77.5237 13.8528 76.0726 13.0523C72.7768 11.249 70.0941 11.8823 68.7288 12.375C68.1922 12.5684 67.7019 12.7356 67.7019 12.7356C66.6887 11.6272 65.0269 11.7325 63.8024 12.0318C59.399 13.2986 55.3107 16.3865 50.9276 21.7444C47.7051 25.941 45.7062 29.5657 44.6408 33.1462C43.8196 35.5567 43.57 39.1021 45.5744 41.2048C47.2786 42.9903 49.5384 42.6035 51.134 41.9616C54.5915 40.2548 57.6989 36.5772 59.2473 32.3454C59.621 31.0875 60.0357 29.3104 59.3923 27.9554ZM67.3426 14.6975C66.8849 19.9586 62.8048 23.0468 61.7951 23.2927C61.1833 23.4157 60.1394 23.1432 61.0714 20.9353C62.4438 17.9614 64.787 15.4367 67.3009 14.1433C67.3622 14.3633 67.3605 14.5037 67.3426 14.6975ZM91.5457 15.3659C89.351 16.6154 87.0758 17.4245 84.3218 17.1431C83.5586 18.0055 82.8154 18.894 82.1304 19.8088C85.9959 20.7941 90.0938 18.6035 92.3793 16.5187C94.7971 14.416 96.0368 11.7681 96.0368 11.7681C96.0368 11.7681 94.2245 13.8441 91.5457 15.3659ZM50.0683 19.747H47.1893L45.5653 22.3916H48.4437L50.0683 19.747Z" fill="white"/>
<path d="M84.3102 39.4695C84.0007 39.6806 83.5658 39.5183 83.7283 39.0346C84.1334 37.8029 85.7437 35.2929 85.7437 35.2929L90.2289 27.3197H87.1567C87.0106 27.5602 86.6984 28.1122 86.6984 28.1122C86.5563 27.8749 86.1312 27.3473 85.9562 27.2332C85.2057 26.7578 84.1045 26.9826 83.3448 27.4135C80.0419 29.3493 77.632 33.1738 75.7313 36.1564C75.7313 36.1564 73.7306 39.4718 72.6201 39.7183C71.7531 39.7888 71.8426 38.6182 71.8801 38.3454C72.2154 36.3744 72.9939 34.5007 73.7781 32.8027C75.3735 31.6942 77.1941 30.2427 78.8486 28.6504C82.4393 25.2102 85.4664 21.3128 85.9089 20.4419C85.9089 20.4419 85.4299 20.5387 84.8644 20.5562C82.102 24.4183 76.4491 30.0315 74.7354 30.8671C75.4946 29.0367 80.3998 20.301 84.5738 16.1222L85.2307 15.4885C86.2465 14.4944 87.2988 13.4739 88.1189 13.3067C88.2055 13.2979 88.3171 13.3067 88.4134 13.5094C88.45 14.2834 88.1625 14.8554 87.8327 15.5063L87.3704 16.4566C87.3704 16.4566 88.0252 16.3334 88.4553 16.1923C88.9541 15.2514 89.5067 14.1953 89.303 12.9375C89.2351 12.5328 88.9427 12.2249 88.5607 12.1545C87.3155 11.9169 85.9585 12.8404 84.8665 13.5885L84.8225 13.6147C79.2092 18.0224 74.4693 24.3743 70.3253 33.0489C70.0249 33.2773 68.8645 33.5503 68.6674 33.4182C69.0766 32.5738 69.5918 31.4387 69.8496 30.207C69.8942 29.8549 69.9357 29.4945 69.9357 29.1426C69.9357 28.3854 69.7544 27.673 69.0777 27.1807C68.2842 26.7847 67.3034 26.9696 66.6421 27.2684C63.68 28.5001 61.4661 31.5443 59.8684 34.0513C59.0092 35.6441 58.1524 37.3501 57.9152 39.3035C57.7481 40.834 58.0883 41.8195 58.9566 42.3123C59.8494 42.7694 60.9733 42.2942 61.4147 42.0657C64.4157 40.482 66.5126 37.3063 68.1653 34.403C68.231 34.3943 69.1334 34.3681 69.8161 34.1919C69.8251 34.1919 69.829 34.1919 69.8441 34.201C69.805 34.3325 69.4522 35.3886 69.4522 35.3886C68.4047 38.4674 67.9203 40.5615 68.9098 41.8018C70.3237 43.5526 72.6646 41.7405 74.5689 39.3471C74.1601 42.215 75.643 42.664 76.7736 42.4443C78.0721 42.0925 79.5192 40.7022 80.1907 39.9898C79.9751 40.8254 80.0336 42.3213 81.215 42.4706C82.0246 42.6206 82.6306 42.1792 83.3316 41.8008C85.8466 40.4282 88.8572 35.8545 89.6388 34.5322H88.6139C87.5027 36.2155 86.0888 38.4221 84.3102 39.4695V39.4695ZM61.7358 39.1632C61.5763 38.9256 61.5234 38.6659 61.5181 38.3851C61.4875 36.6599 63.3394 33.5707 64.6463 31.8878H64.6491C65.1967 33.0899 66.4371 33.8626 67.1859 34.1883C66.256 36.2647 63.0665 40.7115 61.7358 39.1632V39.1632ZM67.7109 33.26C67.6223 33.322 66.0582 32.7938 65.7559 31.3423C65.4995 30.0925 66.3581 29.1161 67.1888 28.6239C67.5453 28.3421 68.0824 28.2457 68.4764 28.3859C68.8421 28.6327 68.9412 29.0729 68.9412 29.5471C68.9412 29.8381 68.9027 30.1369 68.8687 30.4095L68.8613 30.4713C68.5993 31.4467 68.2126 32.384 67.7109 33.26V33.26ZM80.256 38.609C80.2546 38.609 79.9591 38.8729 79.9591 38.8729C79.5372 39.2511 79.103 39.6557 78.5789 39.4533C78.4341 39.4006 78.3323 39.2072 78.3078 39.0572C78.284 37.975 78.7701 36.9724 79.2417 35.9959L79.3626 35.7407C80.7188 33.471 82.2953 30.7965 84.6105 28.9404C85.0007 28.6583 85.4241 28.4212 85.871 28.6061C85.9737 28.7028 86.0934 28.87 86.0934 29.037C86.0934 29.09 86.0464 29.2306 86.0194 29.2745C85.3727 30.3219 84.757 31.4214 84.1581 32.4771C82.9878 34.5621 81.7737 36.7171 80.256 38.609V38.609Z" fill="white"/>
</svg>
