<svg width="94" height="55" viewBox="0 0 94 55" fill="none" xmlns="http://www.w3.org/2000/svg">
<path d="M29.1789 29.4005C29.2392 29.2793 29.3405 29.0803 29.3803 28.9795L31.8343 23.0602L34.2474 29.0395C34.2878 29.1402 34.3674 29.2997 34.4277 29.4401L34.1274 29.5C33.443 29.6799 32.6791 29.7999 31.8946 29.7999C31.1102 29.7999 30.386 29.7003 29.6215 29.5C29.4804 29.4598 29.2802 29.4005 29.1789 29.4005ZM4.22314 20.3797C6.95816 20.3797 8.88944 20.9398 10.096 22C11.5431 23.2593 12.2672 24.9204 12.2672 27C12.2672 28.9795 11.563 30.6208 10.1756 31.9005C8.96902 33.0404 6.99853 33.6401 4.22314 33.6401H3.33858V20.3797H4.22314ZM88.6841 22.0804C90.0528 23.4002 90.7161 25.0601 90.7161 27C90.7161 28.9201 90.0318 30.5596 88.6841 31.9203C87.3372 33.2599 85.7086 33.9399 83.7984 33.9399C79.957 33.9399 76.9006 30.8001 76.9006 27C76.9006 25.0805 77.5838 23.42 78.9314 22.06C80.2585 20.7203 81.9082 20.0595 83.7984 20.0595C85.6887 20.0595 87.3172 20.7401 88.6841 22.0804ZM56.2885 23.2395L58.7214 21.1593C56.6297 18.3799 53.8345 17 50.5369 17C44.9252 17 40.4006 21.4597 40.4006 27.0402C40.4006 32.5007 44.9052 37 50.3952 37C51.7826 37 53.1097 36.6996 54.397 36.1197C55.6445 35.5596 56.7298 34.7795 57.6156 33.76C58.4597 32.8203 59.003 31.7404 59.3244 30.5596C59.5861 29.5804 59.7471 28.3799 59.6657 26.9395L59.6258 26.3596H50.8583V29.4203H56.2474C56.107 30.6208 55.4829 31.6606 54.397 32.5205C53.211 33.48 51.8628 33.9399 50.3554 33.9399C48.6056 33.9399 47.0367 33.2203 45.5896 31.8003C44.2824 30.4799 43.618 28.9004 43.618 27.06C43.618 25.1201 44.3023 23.4398 45.7096 22.0402C47.0367 20.6999 48.6454 20.0595 50.4953 20.0595C52.8685 20.0595 54.7389 21.1395 56.2885 23.2395ZM35.6746 32.46L37.4648 36.6996H41.0047L32.699 17.2603H31.0903L22.5633 36.6996H26.0828L27.9531 32.3802C27.9929 32.2603 28.0128 32.1799 28.0333 32.1002C28.1129 32.1403 28.2347 32.1799 28.3746 32.2405C29.4201 32.6404 30.6676 32.8599 31.8946 32.8599C33.1006 32.8599 34.2878 32.6201 34.9921 32.3802C35.3532 32.2603 35.4732 32.2009 35.5744 32.1403C35.595 32.2207 35.6547 32.4006 35.6746 32.46ZM4.12245 36.6996C7.70218 36.6996 10.4571 35.9002 12.3076 34.2398C14.4185 32.3598 15.4846 29.9599 15.4846 27.0198C15.4846 23.9597 14.3986 21.5005 12.2274 19.6601C10.3974 18.0998 7.68231 17.3196 4.16287 17.3196H0V36.6996H4.12245ZM21.2964 17.3196H18.0996V36.6996H21.2964V17.3196ZM64.9548 27.6596H71.7725V24.62H64.9548V20.3797H72.3754V17.3196H61.7573V36.6996H72.3953V33.6401H64.9548V27.6596ZM76.6594 19.9402C74.6678 21.8801 73.6838 24.2595 73.6838 27.0198C73.6838 32.6003 78.2078 37 83.7984 37C89.409 37 93.913 32.6201 93.913 27.0198C93.913 24.2799 92.9072 21.9395 90.9573 19.96C88.9856 17.9799 86.5931 17 83.7984 17C81.0224 17 78.6298 17.9799 76.6594 19.9402Z" fill="white"/>
</svg>
