<svg width="99" height="55" viewBox="0 0 99 55" fill="none" xmlns="http://www.w3.org/2000/svg">
<g clip-path="url(#clip0_1302_33659)">
<g clip-path="url(#clip1_1302_33659)">
<path d="M40.8373 20.6857C40.9688 21.6829 41.8368 22.4001 43.2451 22.4001C43.9836 22.4001 44.9507 22.1221 45.408 21.6487L46.6868 22.9058C45.8349 23.7862 44.4409 24.2112 43.2127 24.2112C40.4266 24.2112 38.7715 22.4968 38.7715 19.9202C38.7715 17.4725 40.4428 15.7097 43.065 15.7097C45.7702 15.7097 47.4576 17.3738 47.146 20.6857H40.8373ZM45.2279 19.0378C45.0964 17.9942 44.279 17.4725 43.1318 17.4725C42.0493 17.4725 41.1651 17.9942 40.8697 19.0378H45.2279Z" fill="white"/>
<path d="M50.6158 13.6871C50.6158 15.2363 48.2566 15.2363 48.2566 13.6871C48.2566 12.1378 50.6158 12.1378 50.6158 13.6871ZM48.4367 15.9232V23.9977H50.4357V15.9232H48.4367Z" fill="white"/>
<path d="M60.4126 12.5933V23.9978H58.543L58.4135 22.8877C57.7903 23.8507 56.7949 24.1771 55.8075 24.1771C53.4301 24.1791 51.6394 22.6117 51.6394 19.9686C51.6394 17.1946 53.3916 15.7602 55.7528 15.7602C56.6047 15.7602 57.932 16.2155 58.4074 17.0475V12.5933H60.4126ZM53.6445 19.9686C53.6445 21.3788 54.6562 22.3337 55.939 22.3337C56.2514 22.3411 56.5621 22.2847 56.8519 22.168C57.1416 22.0514 57.4043 21.8769 57.6238 21.6553C57.8433 21.4338 58.0149 21.1698 58.1281 20.8798C58.2413 20.5897 58.2937 20.2796 58.282 19.9686C58.2891 19.6596 58.2335 19.3523 58.1185 19.0651C58.0035 18.778 57.8314 18.5169 57.6126 18.2976C57.3938 18.0783 57.1328 17.9051 56.8453 17.7887C56.5577 17.6722 56.2494 17.6147 55.939 17.6196C54.6602 17.6196 53.6445 18.5161 53.6445 19.9686Z" fill="white"/>
<path d="M70.052 19.9848C70.052 22.3016 68.4616 24.1792 65.8394 24.1792C63.2171 24.1792 61.645 22.3016 61.645 19.9848C61.645 17.6681 63.2515 15.7925 65.8232 15.7925C68.3948 15.7925 70.052 17.6842 70.052 19.9848ZM63.6441 19.9848C63.6441 21.2097 64.3826 22.3519 65.8394 22.3519C67.2962 22.3519 68.0286 21.2097 68.0286 19.9848C68.0286 18.76 67.1748 17.6036 65.8313 17.6036C64.3866 17.6036 63.64 18.7781 63.64 19.9848H63.6441Z" fill="white"/>
<path d="M76.3749 18.093C75.8023 17.553 75.1468 17.3737 74.3759 17.3737C73.4269 17.3737 72.9029 17.6679 72.9029 18.1796C72.9029 18.6913 73.3763 18.9854 74.4103 19.062C75.9338 19.1587 77.8681 19.5011 77.8681 21.6386C77.8681 23.0589 76.7027 24.2817 74.3941 24.2817C73.1153 24.2817 71.8366 24.0803 70.657 22.8474L71.6403 21.4371C72.2129 22.0738 73.524 22.5472 74.4264 22.5633C75.1791 22.5794 75.8853 22.1886 75.8853 21.6003C75.8853 21.0463 75.426 20.8167 74.2787 20.7522C72.7552 20.6374 70.9362 20.0834 70.9362 18.2561C70.9362 16.3947 72.8685 15.7419 74.3435 15.7419C75.606 15.7419 76.557 15.9877 77.4898 16.8036L76.3749 18.093Z" fill="white"/>
<path d="M40.9849 31.4939L41.1306 32.4246C41.7538 31.4294 42.5894 31.2823 43.4088 31.2823C44.1744 31.2706 44.9167 31.5436 45.4909 32.0479L44.5884 33.7784C44.3934 33.6018 44.1651 33.4654 43.9168 33.3772C43.6685 33.289 43.405 33.2508 43.1418 33.2647C42.0917 33.2647 41.1184 33.8187 41.1184 35.3034V39.5461H39.1194V31.4939H40.9849Z" fill="white"/>
<path d="M53.8535 35.5231C53.8535 37.8419 52.2631 39.7175 49.6409 39.7175C47.0187 39.7175 45.4465 37.8419 45.4465 35.5231C45.4465 33.2044 47.0531 31.3308 49.6166 31.3308C52.1802 31.3308 53.8535 33.2245 53.8535 35.5231ZM47.4456 35.5231C47.4456 36.748 48.1821 37.8903 49.6409 37.8903C51.0997 37.8903 51.8423 36.748 51.8423 35.5231C51.8423 34.2983 50.9905 33.1419 49.647 33.1419C48.2003 33.1419 47.4456 34.3164 47.4456 35.5231V35.5231Z" fill="white"/>
<path d="M57.0579 28.1335V32.5878C57.5334 31.7558 58.8607 31.2984 59.7125 31.2984C62.0717 31.2984 63.8259 32.7348 63.8259 35.5069C63.8259 38.15 62.0393 39.7174 59.6619 39.7174C58.6806 39.7174 57.6791 39.391 57.0579 38.428L56.9264 39.5381H55.0588V28.1335H57.0579ZM57.1874 35.5069C57.1757 35.818 57.2281 36.1281 57.3412 36.4183C57.4544 36.7085 57.626 36.9726 57.8455 37.1943C58.0649 37.416 58.3276 37.5907 58.6174 37.7076C58.9071 37.8245 59.2178 37.8811 59.5304 37.874C60.8071 37.874 61.8249 36.9111 61.8249 35.5069C61.8249 34.0564 60.8132 33.1579 59.5304 33.1579C59.22 33.1529 58.9117 33.2104 58.6241 33.3269C58.3365 33.4434 58.0755 33.6165 57.8568 33.8359C57.638 34.0552 57.4659 34.3163 57.3509 34.6034C57.2359 34.8905 57.1803 35.1978 57.1874 35.5069Z" fill="white"/>
<path d="M73.1052 35.5231C73.1052 37.8419 71.5148 39.7175 68.8946 39.7175C66.2744 39.7175 64.6982 37.8419 64.6982 35.5231C64.6982 33.2044 66.3048 31.3308 68.8764 31.3308C71.4481 31.3308 73.1052 33.2245 73.1052 35.5231ZM66.6973 35.5231C66.6973 36.748 67.4358 37.8903 68.8946 37.8903C70.3534 37.8903 71.0899 36.748 71.0899 35.5231C71.0899 34.2983 70.2381 33.1419 68.8946 33.1419C67.452 33.1419 66.6973 34.3164 66.6973 35.5231V35.5231Z" fill="white"/>
<path d="M77.0487 29.2356V31.5201H79.2743V33.2345H77.0325V36.7097C77.0325 37.4752 77.4594 37.8519 78.0826 37.8519C78.4186 37.842 78.7482 37.758 79.0477 37.6062L79.6062 39.3024C79.0815 39.5208 78.5197 39.6371 77.9511 39.6449C76.1968 39.7114 75.0496 38.7162 75.0496 36.7097V33.2245H73.5422V31.5101H75.0496V29.4371L77.0487 29.2356Z" fill="white"/>
<path d="M82.6835 29.2353C82.6835 30.7865 80.3223 30.7865 80.3223 29.2353C80.3223 27.6841 82.6835 27.676 82.6835 29.2353ZM80.5023 31.4715V39.5479H82.5034V31.4614L80.5023 31.4715Z" fill="white"/>
<path d="M91.0742 38.5026C90.6726 38.9187 90.1882 39.2467 89.652 39.4656C89.1158 39.6845 88.5396 39.7895 87.9603 39.7738C85.6172 39.7738 83.6667 38.3636 83.6667 35.515C83.6667 32.6664 85.6172 31.2582 87.9603 31.2582C88.5042 31.2413 89.0456 31.3396 89.5486 31.5466C90.0515 31.7536 90.5046 32.0645 90.8779 32.4589L89.6153 33.7805C89.1723 33.378 88.5963 33.1515 87.9967 33.1439C86.6532 33.1439 85.6698 34.1229 85.6698 35.5251C85.6698 37.0602 86.72 37.8761 87.9643 37.8761C88.2893 37.8884 88.6136 37.8355 88.9177 37.7206C89.2218 37.6057 89.4997 37.4311 89.7347 37.2073L91.0742 38.5026Z" fill="white"/>
<path d="M97.3671 33.6314C96.7945 33.0935 96.1389 32.9142 95.3681 32.9142C94.4191 32.9142 93.893 33.2063 93.893 33.72C93.893 34.2338 94.3685 34.5259 95.4004 34.6024C96.926 34.6991 98.8583 35.0436 98.8583 37.1811C98.8583 38.5913 97.6949 39.8242 95.3842 39.8242C94.1075 39.8242 92.8288 39.6107 91.6492 38.3878L92.6325 36.9776C93.2051 37.6142 94.5162 38.0876 95.4186 38.1038C96.1713 38.1199 96.8754 37.7291 96.8754 37.1408C96.8754 36.5868 96.4182 36.3571 95.2709 36.2927C93.7453 36.1778 91.9264 35.6238 91.9264 33.7966C91.9264 31.9371 93.8607 31.2844 95.3357 31.2844C96.5982 31.2844 97.5472 31.5282 98.482 32.3441L97.3671 33.6314Z" fill="white"/>
<path d="M15.0416 33.5085V39.7537H9.85583V15.7379H15.0416C16.8649 15.7344 18.6452 16.2883 20.142 17.3248C21.6389 18.3613 22.78 19.8304 23.4111 21.5335C24.0423 23.2366 24.133 25.0916 23.6711 26.8477C23.2092 28.6038 22.2169 30.1764 20.8283 31.3529L25.4557 35.9602L26.5422 34.8784C29.1275 32.1443 30.5356 28.5115 30.4653 24.757C30.3949 21.0025 28.8517 17.4245 26.1658 14.7884C23.4799 12.1523 19.8645 10.6673 16.0931 10.6513C12.3217 10.6352 8.69368 12.0892 5.98519 14.7024C3.09992 17.5685 1.30807 21.3462 0.917919 25.3855C0.527765 29.4249 1.56371 33.4733 3.84751 36.8344C6.13132 40.1954 9.52019 42.6589 13.4311 43.8009C17.342 44.943 21.5304 44.6922 25.2756 43.0918L15.6243 33.4883C15.4362 33.5024 15.2399 33.5085 15.0416 33.5085Z" fill="white"/>
<path d="M15.042 20.9758V28.5809C16.0541 28.5809 17.0247 28.1806 17.7403 27.468C18.456 26.7555 18.858 25.7891 18.858 24.7814C18.858 23.7737 18.456 22.8073 17.7403 22.0947C17.0247 21.3822 16.0541 20.9819 15.042 20.9819V20.9758Z" fill="white"/>
</g>
</g>
<defs>
<clipPath id="clip0_1302_33659">
<rect width="98" height="55" fill="white" transform="translate(0.854004)"/>
</clipPath>
<clipPath id="clip1_1302_33659">
<rect width="98" height="34" fill="white" transform="translate(0.854004 10.5)"/>
</clipPath>
</defs>
</svg>
