<svg width="103" height="55" viewBox="0 0 103 55" fill="none" xmlns="http://www.w3.org/2000/svg">
<path d="M44.622 28.3757C44.622 33.1757 40.8718 36.7127 36.2695 36.7127C31.6672 36.7127 27.917 33.1757 27.917 28.3757C27.917 23.542 31.6672 20.0388 36.2695 20.0388C40.8718 20.0388 44.622 23.542 44.622 28.3757ZM40.9657 28.3757C40.9657 25.3763 38.7922 23.324 36.2695 23.324C33.7469 23.324 31.5733 25.3763 31.5733 28.3757C31.5733 31.3452 33.7469 33.4275 36.2695 33.4275C38.7922 33.4275 40.9657 31.3414 40.9657 28.3757Z" fill="white"/>
<path d="M62.6401 28.3757C62.6401 33.1757 58.8899 36.7127 54.2876 36.7127C49.6852 36.7127 45.9351 33.1757 45.9351 28.3757C45.9351 23.5457 49.6852 20.0388 54.2876 20.0388C58.8899 20.0388 62.6401 23.542 62.6401 28.3757ZM58.9838 28.3757C58.9838 25.3763 56.8102 23.324 54.2876 23.324C51.7649 23.324 49.5914 25.3763 49.5914 28.3757C49.5914 31.3452 51.7649 33.4275 54.2876 33.4275C56.8102 33.4275 58.9838 31.3414 58.9838 28.3757Z" fill="white"/>
<path d="M79.9085 20.5425V35.5099C79.9085 41.6667 76.2822 44.1813 71.9952 44.1813C67.9597 44.1813 65.5309 41.4788 64.615 39.2686L67.7983 37.9418C68.3652 39.2987 69.7541 40.8999 71.9915 40.8999C74.7356 40.8999 76.4361 39.2047 76.4361 36.0135V34.8145H76.3085C75.4901 35.8256 73.9135 36.7089 71.9239 36.7089C67.7608 36.7089 63.9468 33.0779 63.9468 28.4058C63.9468 23.6998 67.7608 20.0388 71.9239 20.0388C73.9097 20.0388 75.4864 20.9221 76.3085 21.9032H76.4361V20.5462H79.9085V20.5425ZM76.6952 28.4058C76.6952 25.4702 74.7394 23.324 72.2505 23.324C69.7278 23.324 67.6144 25.4702 67.6144 28.4058C67.6144 31.3113 69.7278 33.4275 72.2505 33.4275C74.7394 33.4275 76.6952 31.3113 76.6952 28.4058Z" fill="white"/>
<path d="M85.6336 11.7698V36.2017H82.0674V11.7698H85.6336Z" fill="white"/>
<path d="M99.5312 31.1195L102.369 33.0139C101.453 34.3708 99.2459 36.7088 95.4319 36.7088C90.7019 36.7088 87.1694 33.0477 87.1694 28.3718C87.1694 23.414 90.7319 20.0349 95.0227 20.0349C99.3435 20.0349 101.457 23.4779 102.148 25.3385L102.527 26.2857L91.3964 30.9015C92.2485 32.5741 93.5737 33.4274 95.4319 33.4274C97.2938 33.4274 98.5852 32.5102 99.5312 31.1195ZM90.7957 28.12L98.2361 25.0265C97.8269 23.9854 96.5956 23.2599 95.1466 23.2599C93.2884 23.2599 90.7019 24.9025 90.7957 28.12V28.12Z" fill="white"/>
<path d="M14.4177 26.2072V22.6702H26.3214C26.4378 23.2866 26.4979 24.0158 26.4979 24.8052C26.4979 27.4589 25.7733 30.7403 23.4384 33.0782C21.1673 35.4462 18.2655 36.7092 14.4214 36.7092C7.29646 36.7092 1.30518 30.8981 1.30518 23.764C1.30518 16.6299 7.29646 10.8188 14.4214 10.8188C18.3631 10.8188 21.171 12.3675 23.2807 14.3859L20.7881 16.8817C19.2753 15.4609 17.2256 14.3558 14.4177 14.3558C9.21473 14.3558 5.14546 18.5544 5.14546 23.764C5.14546 28.9736 9.21473 33.1722 14.4177 33.1722C17.7925 33.1722 19.7145 31.8153 20.9458 30.5824C21.9443 29.5826 22.6013 28.1542 22.8603 26.2034L14.4177 26.2072Z" fill="white"/>
</svg>
