<svg width="94" height="55" viewBox="0 0 94 55" fill="none" xmlns="http://www.w3.org/2000/svg">
<path d="M38.8188 28.9867C38.7871 29.0088 38.7487 29.0207 38.7094 29.0207C38.6701 29.0207 38.6317 29.0088 38.6 28.9867C38.532 28.9401 38.5047 28.8672 38.5292 28.7962L41.484 20.1327L33.7519 14.7835C33.7203 14.7617 33.6968 14.7308 33.6849 14.6954C33.6731 14.66 33.6734 14.6219 33.6859 14.5867C33.6972 14.551 33.7202 14.5197 33.7517 14.4976C33.7831 14.4754 33.8213 14.4635 33.8604 14.4637H43.418L46.3709 5.80911C46.383 5.77337 46.4066 5.7422 46.4385 5.72009C46.4704 5.69797 46.5088 5.68605 46.5482 5.68604C46.6311 5.68604 46.7001 5.73812 46.7255 5.80911L49.6775 14.4637H59.2361C59.3143 14.4637 59.3879 14.5113 59.4134 14.5867C59.4256 14.6221 59.4256 14.6603 59.4134 14.6957C59.4012 14.7311 59.3774 14.7619 59.3454 14.7835L51.6114 20.1327L54.5662 28.7927C54.5898 28.8646 54.5633 28.9401 54.4964 28.9868C54.4646 29.0089 54.4263 29.0208 54.3869 29.0208C54.3476 29.0208 54.3092 29.0089 54.2775 28.9868L46.5482 23.6358L38.8188 28.9867Z" fill="white"/>
<path d="M24.5483 28.0656V26.3587H24.1965V25.8079H25.5578V26.3587H25.1899V28.0656H24.5483ZM26.9695 26.8529C27.1384 26.8529 27.2299 26.7118 27.2299 26.5654C27.2299 26.3677 27.1044 26.2833 26.9289 26.2932V26.8502L26.9695 26.8529V26.8529ZM27.2809 28.0658L26.9253 27.126L26.9187 27.1314C26.9225 27.242 26.929 27.3535 26.929 27.4638V28.0658H26.2875V25.8081H26.9064C27.463 25.8081 27.8649 25.9635 27.8649 26.5591C27.8649 26.808 27.7526 27.029 27.4979 27.126L27.9753 28.0658H27.2809V28.0658ZM29.4687 27.2963L29.3999 26.7725C29.381 26.6315 29.3687 26.4878 29.3536 26.3467H29.3461C29.3282 26.4878 29.3122 26.6315 29.2866 26.7725L29.199 27.2963H29.4687V27.2963ZM29.5913 28.0654L29.5442 27.7751H29.114L29.0602 28.0654H28.3999L28.9687 25.8076H29.7518L30.2546 28.0654H29.5913V28.0654ZM31.4848 27.5208C31.7773 27.5181 31.8272 27.1704 31.8272 26.9574C31.8272 26.7122 31.7772 26.3707 31.4848 26.3707V27.5208ZM30.8433 25.8084H31.3594C32.0886 25.8084 32.4811 26.245 32.4811 26.9278C32.4811 27.9701 31.7934 28.0652 31.4028 28.0652H30.8433V25.8084ZM33.1981 25.808H34.3896V26.3407H33.8396V26.6552H34.333V27.1879H33.8396V27.5321H34.3896V28.0657H33.1981V25.808V25.808ZM60.1916 28.0656L60.1322 26.6461H60.1256C60.0973 26.8105 60.0756 26.9758 60.0445 27.1402L59.8625 28.0656H59.3398L59.1163 26.6461H59.1105C59.1068 26.8141 59.1105 26.9786 59.1011 27.1464L59.0473 28.0656H58.3586L58.635 25.8078H59.4341L59.6171 27.0081H59.6228C59.6417 26.8679 59.6577 26.7296 59.685 26.5895L59.8398 25.8078H60.6285L60.8587 28.0656H60.1916V28.0656ZM62.3455 27.2963L62.2767 26.7725C62.2578 26.6315 62.2455 26.4878 62.2295 26.3467H62.2229C62.2041 26.4878 62.189 26.6315 62.1634 26.7725L62.0758 27.2963H62.3455V27.2963ZM62.4682 28.0654L62.421 27.7751H61.9909L61.9371 28.0654H61.2767L61.8465 25.8076H62.6286L63.1314 28.0654H62.4682V28.0654ZM64.3706 26.8529C64.5404 26.8529 64.632 26.7118 64.632 26.5654C64.632 26.3677 64.5056 26.2833 64.3301 26.2932V26.8502L64.3706 26.8529V26.8529ZM64.6819 28.0658L64.3264 27.126L64.3206 27.1314C64.3235 27.242 64.3301 27.3535 64.3301 27.4638V28.0658H63.6886V25.8081H64.3074C64.865 25.8081 65.267 25.9635 65.267 26.5591C65.267 26.808 65.1537 27.029 64.899 27.126L65.3764 28.0658H64.6819V28.0658ZM67.7 25.808L67.1877 26.8977L67.7594 28.0657H67.0717L66.6726 27.029H66.6689V28.0657H66.0274V25.808H66.6689V26.7692H66.6726L67.0236 25.808H67.7V25.808ZM18.3213 43.1402C18.0638 42.4619 18.2694 40.3893 19.4685 39.9985C20.7299 39.5862 21.5053 40.2051 21.8817 41.4162C22.0222 41.8654 21.9911 42.3398 21.8374 42.5169C21.6138 42.7756 21.2148 42.9291 20.8553 43.0451L19.9109 43.3425C18.9827 43.6434 18.5393 43.7036 18.3213 43.1402V43.1402ZM24.2789 45.6541C23.6657 46.239 22.8695 46.8193 22.0855 47.0565C21.3468 47.2829 19.2411 47.4581 18.6213 45.8023C18.4873 45.443 18.5958 45.3324 18.9373 45.2362C19.4449 45.0926 20.7544 44.726 22.1355 44.2327C23.3893 43.7872 24.5072 43.24 24.8581 43.0172C25.4855 42.6255 25.5779 42.0738 25.3025 41.4799C24.4232 39.5961 22.4317 37.624 19.1223 38.2233C16.492 38.7011 14.6081 40.9562 14.6081 43.5355C14.6081 46.7303 16.6298 48.5972 19.2015 49.1768C21.5798 49.7148 24.3751 48.6171 25.5713 46.7717C26.0459 46.061 24.71 45.2175 24.2789 45.6541V45.6541ZM49.1278 43.1402C48.9749 42.7342 48.9853 41.8303 49.2749 41.0857C49.472 40.5851 49.7627 40.1934 50.2749 39.9985C50.8513 39.7775 51.3447 39.8377 51.7306 40.0496C52.172 40.2914 52.4872 40.7702 52.688 41.4161C52.8277 41.8653 52.7975 42.3397 52.6437 42.5168C52.4182 42.7755 52.0701 42.9048 51.6607 43.045C51.3481 43.151 51.0336 43.2517 50.7173 43.3469C49.7834 43.6255 49.3457 43.7036 49.1278 43.1402V43.1402ZM55.0834 45.6541C54.4721 46.239 53.675 46.8193 52.8928 47.0565C52.1532 47.2829 50.0466 47.4581 49.4278 45.8023C49.2938 45.443 49.4032 45.3324 49.7438 45.2362C50.2514 45.0926 51.5609 44.726 52.9419 44.2327C54.1957 43.7872 55.3147 43.24 55.6637 43.0172C56.292 42.6255 56.3844 42.0738 56.1089 41.4799C55.2288 39.5961 53.2391 37.624 49.9287 38.2233C47.2985 38.7011 45.4146 40.9562 45.4146 43.5355C45.4146 46.7303 47.4354 48.5972 50.008 49.1768C52.3854 49.7148 55.1816 48.6171 56.3778 46.7717C56.8523 46.061 55.5164 45.2175 55.0834 45.6541V45.6541ZM72.6124 43.1402C72.4577 42.7342 72.4699 41.8303 72.7595 41.0857C72.9567 40.5851 73.2473 40.1934 73.7595 39.9985C74.3359 39.7775 74.8292 39.8377 75.2152 40.0496C75.6566 40.2914 75.9708 40.7702 76.1726 41.4161C76.3113 41.8653 76.2821 42.3397 76.1275 42.5168C75.9039 42.7755 75.5557 42.9048 75.1454 43.045C74.8325 43.1509 74.5176 43.2515 74.201 43.3469C73.2662 43.6255 72.8303 43.7036 72.6124 43.1402V43.1402ZM78.568 45.6541C77.9576 46.239 77.1596 46.8193 76.3756 47.0565C75.6379 47.2829 73.5313 47.4581 72.9115 45.8023C72.7784 45.443 72.8878 45.3324 73.2284 45.2362C73.7359 45.0926 75.0444 44.726 76.4265 44.2327C77.6793 43.7872 78.7992 43.24 79.1482 43.0172C79.7755 42.6255 79.868 42.0738 79.5934 41.4799C78.7133 39.5961 76.7227 37.624 73.4132 38.2233C70.7821 38.7011 68.8991 40.9562 68.8991 43.5355C68.8991 46.7303 70.9199 48.5972 73.4925 49.1768C75.8699 49.7148 78.6652 48.6171 79.8615 46.7717C80.3361 46.061 79.001 45.2175 78.568 45.6541V45.6541ZM6.02184 42.3007C5.93301 42.3008 5.84783 42.3344 5.78503 42.3942C5.72224 42.4541 5.68696 42.5352 5.68696 42.6198L5.6879 46.2378C5.69162 46.7991 5.86903 47.1747 6.19068 47.3104C6.36426 47.3841 6.74256 47.5503 6.95668 47.6419C7.1039 47.7057 7.10949 47.8485 7.08778 48.0319C7.06896 48.1953 7.01892 48.6617 7.0001 48.8333C6.98035 49.0201 6.82744 49.0991 6.5303 49.0991H1.03121C0.752889 49.0991 0.580233 49.0525 0.556659 48.8333C0.537744 48.6617 0.486777 48.1694 0.467955 48.0059C0.443356 47.7983 0.487708 47.6913 0.622628 47.6321C0.806652 47.5503 1.2075 47.3804 1.38118 47.3033C1.72267 47.1524 1.86793 46.7122 1.86793 46.2494L1.867 37.3037C1.86607 36.8042 1.71885 36.4009 1.33683 36.232C1.16324 36.1556 0.800968 35.9992 0.624585 35.9194C0.478391 35.8528 0.438697 35.7244 0.467023 35.5421C0.491529 35.3784 0.532154 35.0991 0.556659 34.9275C0.58778 34.71 0.752889 34.6625 1.03121 34.6625H6.27463C6.55388 34.6625 6.7133 34.71 6.74536 34.9275C6.76986 35.0991 6.81049 35.3784 6.83499 35.5421C6.86332 35.7244 6.82558 35.8502 6.68311 35.923C6.49629 36.019 6.2341 36.1592 6.0661 36.2464C5.83968 36.3641 5.69153 36.6076 5.6878 37.1844L5.68687 39.7917C5.68678 39.8336 5.69538 39.8751 5.71217 39.9139C5.72896 39.9527 5.7536 39.988 5.78471 40.0177C5.81581 40.0474 5.85275 40.0709 5.89342 40.087C5.9341 40.1031 5.9777 40.1114 6.02175 40.1115H8.95765C9.00172 40.1115 9.04536 40.1033 9.08607 40.0872C9.12679 40.0711 9.16376 40.0476 9.19488 40.0178C9.226 39.9881 9.25065 39.9528 9.2674 39.914C9.28416 39.8752 9.2927 39.8336 9.29252 39.7917L9.29159 37.1844C9.28777 36.6076 9.13972 36.3641 8.91423 36.2464C8.74539 36.1593 8.48403 36.0191 8.29721 35.923C8.15475 35.8502 8.11608 35.7244 8.14431 35.5421C8.16891 35.3784 8.20944 35.0991 8.23395 34.9275C8.266 34.71 8.42636 34.6625 8.70467 34.6625H13.9481C14.2264 34.6625 14.3915 34.71 14.4236 34.9275C14.4481 35.0991 14.4877 35.3784 14.5132 35.5421C14.5405 35.7244 14.5018 35.8528 14.3556 35.9194C14.1782 35.9992 13.816 36.1556 13.6424 36.232C13.2613 36.4009 13.1141 36.8042 13.1131 37.3037L13.1122 46.2494C13.1122 46.7122 13.2565 47.1524 13.598 47.3033C13.7716 47.3804 14.1735 47.5503 14.3574 47.6321C14.4923 47.6913 14.5358 47.7983 14.5122 48.0059C14.4933 48.1694 14.4415 48.6617 14.4235 48.8333C14.3999 49.0525 14.2263 49.0991 13.948 49.0991H8.44918C8.15204 49.0991 7.99914 49.0201 7.97939 48.8333C7.96047 48.6617 7.91053 48.1953 7.89161 48.0319C7.87084 47.8486 7.87559 47.7057 8.02365 47.6419C8.23693 47.5503 8.61522 47.3841 8.78974 47.3104C9.11046 47.1747 9.28787 46.7991 9.29159 46.2378L9.29252 42.6198C9.2926 42.5779 9.28399 42.5364 9.26719 42.4977C9.25039 42.4589 9.22573 42.4237 9.19462 42.3941C9.16351 42.3644 9.12656 42.3409 9.0859 42.3249C9.04524 42.3089 9.00165 42.3007 8.95765 42.3007H6.02184V42.3007Z" fill="white"/>
<path d="M64.9595 42.0116C64.9595 42.0116 66.951 45.4426 67.4944 46.3851C67.9077 47.1012 68.3718 47.2997 69.001 47.641C69.1632 47.7282 69.2123 47.7858 69.1831 48.0758C69.1614 48.2995 69.1246 48.6419 69.1067 48.8199C69.0812 49.0677 68.8963 49.0984 68.6378 49.0984H65.702C65.3303 49.0984 65.185 49.0248 65.0528 48.7965C64.9113 48.5522 62.4567 44.2989 62.4567 44.2989L61.5311 45.1407V46.3142C61.5359 46.8523 61.7962 47.2008 62.05 47.3357C62.2142 47.4228 62.4633 47.555 62.6632 47.6599C62.817 47.7409 62.8283 47.8433 62.8076 48.0733C62.7925 48.2358 62.7453 48.6608 62.7274 48.8332C62.7067 49.0236 62.5708 49.0983 62.2566 49.0983H57.3698C57.0906 49.0983 56.9161 49.0524 56.8924 48.8332C56.8736 48.6608 56.8274 48.2044 56.8086 48.0417C56.7849 47.8368 56.8227 47.7327 56.9642 47.6573C57.1696 47.5466 57.3756 47.437 57.5821 47.3283C57.8227 47.2016 58.018 46.8585 58.018 46.297V37.2105C58.0161 36.5815 57.7662 36.2959 57.5718 36.1924C57.435 36.1188 57.0387 35.9094 56.9483 35.86C56.8115 35.7864 56.785 35.6444 56.8115 35.47C56.836 35.3084 56.8662 35.0981 56.8916 34.9265C56.9246 34.6983 57.0812 34.6616 57.3662 34.6616H60.8954C61.1954 34.6616 61.5303 34.8727 61.5303 35.2716L61.5312 42.2146C61.5312 42.2146 63.5114 40.5157 63.8039 40.2659C64.0124 40.0872 63.9531 39.8967 63.8361 39.8446C63.6332 39.7548 63.4068 39.6595 63.2794 39.6047C63.1388 39.5436 63.0672 39.4718 63.0907 39.2508C63.1143 39.0415 63.1531 38.7035 63.1691 38.5428C63.1899 38.3343 63.2643 38.2489 63.6247 38.2489H67.938C68.2087 38.2489 68.3003 38.338 68.3182 38.5068C68.337 38.6992 68.3861 39.0979 68.4051 39.2903C68.4201 39.4438 68.3079 39.5327 68.0701 39.6154C67.4455 39.8329 67.1749 39.9865 66.3314 40.7628C65.8038 41.2479 64.9595 42.0116 64.9595 42.0116V42.0116ZM30.8253 46.3309C30.83 46.869 31.0177 47.2006 31.2724 47.3354C31.4764 47.4442 31.6808 47.5523 31.8856 47.6596C32.0384 47.7405 32.0507 47.8438 32.029 48.0729C32.0148 48.2364 31.9677 48.6613 31.9497 48.8328C31.9289 49.0241 31.7922 49.0989 31.479 49.0989H26.5912C26.3129 49.0989 26.1403 49.0521 26.1167 48.8328C26.089 48.5689 26.0604 48.3051 26.0309 48.0413C26.0073 47.8373 26.046 47.7331 26.1865 47.6567C26.3917 47.5467 26.5974 47.4374 26.8035 47.3289C27.0441 47.2013 27.2403 46.859 27.2403 46.2966L27.2394 41.2042C27.2384 40.5205 27.0271 40.2007 26.795 40.0758C26.6572 40.0022 26.4639 39.8963 26.3724 39.8469C26.228 39.7687 26.2045 39.6365 26.2308 39.4632C26.2553 39.3015 26.2931 39.0284 26.3185 38.8568C26.3496 38.6393 26.5147 38.5918 26.793 38.5918H30.4968C30.5399 38.5918 30.5825 38.5998 30.6223 38.6155C30.6621 38.6313 30.6983 38.6543 30.7287 38.6833C30.7591 38.7124 30.7832 38.7469 30.7996 38.7848C30.816 38.8227 30.8243 38.8634 30.8241 38.9044L30.8253 46.3309V46.3309ZM28.7459 34.3695C27.662 34.3695 26.7846 35.1763 26.7846 36.1718C26.7846 37.1673 27.662 37.9741 28.7459 37.9741C29.828 37.9741 30.7064 37.1673 30.7064 36.1718C30.7064 35.1763 29.828 34.3695 28.7459 34.3695ZM43.5689 41.2087C43.5689 39.339 42.6793 38.6257 41.6491 38.3121C40.4594 37.9518 39.0237 38.5447 38.2868 38.8691C38.0922 38.9548 37.8994 39.0443 37.7086 39.1377C37.518 38.7119 37.417 38.5914 37.135 38.5914H33.651C33.3727 38.5914 33.2076 38.6391 33.1765 38.8564C33.151 39.028 33.1133 39.3011 33.0887 39.4628C33.0623 39.6363 33.085 39.7683 33.2302 39.8465C33.3208 39.8959 33.5152 40.0029 33.652 40.0765C33.8849 40.2004 34.0954 40.5204 34.0973 41.2041L34.0982 46.2963C34.0982 46.8588 33.902 47.2011 33.6614 47.3287C33.4548 47.4368 33.2492 47.5464 33.0444 47.6575C32.9028 47.7331 32.8642 47.8371 32.8887 48.042C32.9076 48.2046 32.9557 48.6611 32.9745 48.8327C32.9971 49.0519 33.1707 49.0985 33.449 49.0985H38.3359C38.649 49.0985 38.7859 49.024 38.8066 48.8327C38.8245 48.661 38.8717 48.2361 38.8867 48.0726C38.9075 47.8434 38.8962 47.741 38.7424 47.6592C38.5372 47.5526 38.3328 47.4445 38.1292 47.335C37.8131 47.1643 37.681 46.7204 37.681 46.3171L37.683 42.2697C37.683 41.2121 38.2245 40.6184 38.9679 40.5312C39.4622 40.4719 40.0962 40.7621 40.0962 41.5949V47.0474C40.0962 48.5999 41.482 49.1956 42.5697 49.1956C43.7217 49.1956 44.7047 48.6916 45.1443 47.8147C45.2839 47.537 45.1131 47.3259 44.9708 47.1759C44.8075 47.0043 44.6604 46.8517 44.3943 46.9811C44.1321 47.1095 43.8566 47.3575 43.698 47.274C43.58 47.2129 43.5687 47.114 43.5687 46.8714V41.2087H43.5689ZM91.0195 41.2087C91.0195 39.339 90.1298 38.6257 89.0997 38.3121C87.9101 37.9518 86.4742 38.5447 85.7374 38.8691C85.4384 39.0003 85.1591 39.1377 85.1591 39.1377C84.9695 38.7119 84.8676 38.5914 84.5856 38.5914H81.1015C80.8233 38.5914 80.6582 38.6391 80.626 38.8564C80.6015 39.028 80.5638 39.3011 80.5392 39.4628C80.5119 39.6363 80.5354 39.7683 80.6798 39.8465C80.7713 39.8959 80.9647 40.0029 81.1034 40.0765C81.3355 40.2004 81.5468 40.5204 81.5477 41.2041L81.5487 46.2963C81.5487 46.8588 81.3525 47.2011 81.111 47.3287C80.9049 47.437 80.6996 47.5466 80.495 47.6575C80.3535 47.7331 80.3148 47.8371 80.3393 48.042C80.3572 48.2046 80.4063 48.6611 80.4252 48.8327C80.4488 49.0519 80.6214 49.0985 80.8998 49.0985H85.7865C86.1007 49.0985 86.2365 49.024 86.2573 48.8327C86.2752 48.661 86.3224 48.2361 86.3385 48.0726C86.3582 47.8434 86.347 47.741 86.1931 47.6592C85.9879 47.5526 85.7835 47.4445 85.5799 47.335C85.2629 47.1643 85.1318 46.7204 85.1318 46.3171L85.1337 42.2697C85.1337 41.2121 85.6753 40.6184 86.4186 40.5312C86.913 40.4719 87.5469 40.7621 87.5469 41.5949V47.0474C87.5469 48.5999 88.9327 49.1956 90.0205 49.1956C91.1724 49.1956 92.1554 48.6916 92.596 47.8147C92.7338 47.537 92.5639 47.3259 92.4205 47.1759C92.2583 47.0043 92.1111 46.8517 91.846 46.9811C91.5818 47.1095 91.3064 47.3575 91.1488 47.274C91.0319 47.2129 91.0196 47.114 91.0196 46.8714V41.2087H91.0195ZM91.7604 34.9002C91.7604 34.7215 91.5642 34.6586 91.401 34.6586H91.0246V35.1679H91.4529C91.6359 35.168 91.7604 35.0531 91.7604 34.9002ZM92.2783 35.9315C92.316 36.1725 92.4293 36.3458 92.4915 36.4725C92.2321 36.4725 92.1349 36.4716 91.9122 36.4716C91.8018 36.2354 91.7774 36.0763 91.7217 35.9128C91.6461 35.6747 91.4906 35.6045 91.2208 35.6045H91.0208V36.4715H90.4877V34.2533H91.6018C91.8612 34.2533 92.3094 34.3997 92.3094 34.8713C92.3094 35.1679 92.1368 35.3727 91.9623 35.4356C92.1548 35.5562 92.2396 35.6936 92.2783 35.9315V35.9315ZM93.101 35.4402C93.101 34.531 92.3321 33.7979 91.3821 33.7979C90.4254 33.7979 89.65 34.531 89.65 35.4402C89.65 36.3466 90.4254 37.0834 91.3821 37.0834C92.3322 37.0834 93.101 36.3466 93.101 35.4402V35.4402ZM93.5416 35.4402C93.5416 36.5766 92.5717 37.4976 91.3821 37.4976C90.1858 37.4976 89.2141 36.5766 89.2141 35.4402C89.2141 34.3 90.1858 33.3792 91.3821 33.3818C92.5717 33.3793 93.5416 34.3001 93.5416 35.4402Z" fill="white"/>
</svg>
