<svg width="134" height="55" viewBox="0 0 134 55" fill="none" xmlns="http://www.w3.org/2000/svg">
<g clip-path="url(#clip0_1302_33362)">
<path d="M114.432 27.779H120.249L117.314 23.1729L114.432 27.779ZM104.829 34.9988V32.9949L106.857 32.7644C107.558 32.6756 107.855 32.0338 107.942 31.887L112.995 23.671C113.406 23.0251 113.005 22.4577 112.476 22.3988L109.821 22.0867V20.0622H121.338C121.985 20.0622 122.395 20.5014 122.659 20.8827L129.386 31.1543C129.915 31.9738 130.326 32.6208 131.002 32.7097L133.118 32.9463V34.9988H120.163V32.9742L121.808 32.7686C122.602 32.6818 123.248 32.3283 122.602 31.36L121.985 30.4195H112.787L112.083 31.5656C111.644 32.2684 112.083 32.6818 112.759 32.7686L114.404 32.9742V34.9988H104.829V34.9988Z" fill="white"/>
<path d="M93.9606 32.1206H90.1418V22.9073H93.9606C97.6024 22.9073 99.1316 23.7599 99.1316 27.5144C99.1316 31.3011 97.6024 32.1206 93.9606 32.1206ZM96.2502 20.0622H81.4376L81.4345 22.0867L83.2906 22.2779C83.9859 22.3792 84.2663 22.8783 84.2663 23.5511V31.5935C84.2663 32.1506 84.0304 32.6818 83.4148 32.7686L81.4263 33.0269V34.9926L96.2502 34.9988C103.066 34.9988 106.004 31.6824 106.004 27.3109C106.004 23.3785 103.066 20.0622 96.2502 20.0622" fill="white"/>
<path d="M1.00537 34.9988H12.9893V33.0021L10.9356 32.7686C10.4638 32.7097 9.99407 32.4172 9.99407 31.4158V29.0119H19.2187V31.3011C19.2187 31.9728 19.1007 32.6208 18.3082 32.7097L16.2214 32.9463V34.9988H28.2074V32.9463L26.0916 32.7097C25.6819 32.6528 25.2111 32.3283 25.2111 31.4767V23.6999C25.2111 22.9073 25.5039 22.3792 26.1205 22.3213L28.2074 22.0867V20.0622H16.2214V22.0578L18.3082 22.3213C19.0128 22.4091 19.2187 22.9672 19.2187 23.6999V26.018H9.99407V23.671C9.99407 22.7905 10.3469 22.3792 10.9635 22.3213L12.9893 22.0867V20.0622H1.03331V22.0867L3.03217 22.3213C3.82675 22.4091 4.03057 22.9962 4.0016 23.7599V31.329C4.0016 32.1805 3.76675 32.6818 3.0032 32.7686L1.00537 33.0021V34.9988Z" fill="white"/>
<path d="M41.0161 22.3492C37.6102 22.3492 35.6703 23.6121 35.6703 27.4845C35.6703 31.4158 37.6102 32.6818 41.0161 32.6818C44.4241 32.6818 46.364 31.4158 46.364 27.4845C46.364 23.6121 44.4241 22.3492 41.0161 22.3492ZM28.7974 27.4556C28.7974 22.7616 32.5871 19.4741 41.0461 19.4741C49.4492 19.4741 53.239 22.7616 53.239 27.4556C53.239 32.2684 49.4492 35.5259 41.0461 35.5259C32.5871 35.5259 28.7974 32.2684 28.7974 27.4556Z" fill="white"/>
<path d="M53.9058 34.9988H63.4832V33.0021L61.4253 32.7686C60.8366 32.7097 60.4849 32.2157 60.4849 31.5346V23.9345L68.4482 34.4118C68.71 34.7642 69.2097 34.9988 69.6794 34.9988H77.2V23.671C77.2 23.1398 77.3418 22.4122 78.1115 22.3213L80.1952 22.0867V20.0622H70.6199V22.0578L72.7067 22.3213C73.4433 22.4102 73.6161 23.0251 73.6161 23.7289V31.1254L65.7138 20.707C65.421 20.3257 65.0392 20.0622 64.4805 20.0622H53.9058V22.0867L55.9026 22.3213C56.6061 22.4257 56.872 22.7833 56.872 23.7599V31.329C56.872 32.227 56.6268 32.659 55.8726 32.7686L53.9058 33.0021V34.9988Z" fill="white"/>
</g>
<defs>
<clipPath id="clip0_1302_33362">
<rect width="133" height="55" fill="white" transform="translate(0.562012)"/>
</clipPath>
</defs>
</svg>
