<svg width="96" height="55" viewBox="0 0 96 55" fill="none" xmlns="http://www.w3.org/2000/svg">
<path fill-rule="evenodd" clip-rule="evenodd" d="M95.4024 46.3207H0.416016V8.6792H95.416V46.3207H95.4024ZM2.31592 27.5C2.31592 36.7527 21.4264 44.4386 47.9228 44.4386C74.419 44.4386 93.5159 36.7527 93.5159 27.5C93.5159 18.2472 74.4054 10.5613 47.9228 10.5613C21.44 10.5613 2.31592 18.2472 2.31592 27.5Z" fill="white"/>
<path d="M44.5411 33.1501C44.8407 33.5714 45.1675 33.9664 45.5487 34.3219H35.2686C35.2686 33.9269 34.8737 33.1238 34.438 32.4919C34.0023 31.8599 31.6467 28.3974 31.6467 28.3974V33.1501C31.6467 33.5451 31.6467 33.9269 31.8509 34.3219H23.2865C23.4907 33.9269 23.4907 33.5451 23.4907 33.1501V21.854C23.4907 21.459 23.4907 21.0773 23.2865 20.6823H31.8509C31.6467 21.0773 31.6467 21.459 31.6467 21.854V26.7912C31.6467 26.7912 34.3835 23.3418 35.0099 22.5386C35.4864 21.933 36.072 21.0772 36.072 20.6823H45.0041C44.3913 21.0773 43.7105 21.7882 43.1522 22.4465C42.662 23.0258 39.8844 26.304 39.8844 26.304C39.8844 26.304 43.9964 32.3734 44.541 33.1501H44.5411ZM47.237 21.854V33.1501C47.237 33.5451 47.237 33.9269 47.0328 34.3219H63.5627V30.5302C63.1542 30.7276 62.7593 30.7276 62.3509 30.7276H55.3931V28.9371H62.0785V26.0669H55.3931V24.2633H62.3509C62.7594 24.2633 63.1542 24.2633 63.5627 24.4477V20.6691H47.0328C47.237 21.0773 47.237 21.459 47.237 21.854V21.854ZM86.4648 33.1501C86.6009 33.5846 86.8325 33.9796 87.132 34.3219H78.1726C78.2135 33.9269 78.0638 33.5451 77.9004 33.1501C77.9004 33.1501 77.7641 32.8341 77.5736 32.3734L77.4919 32.1759H72.3314L72.2497 32.3865C72.2497 32.3865 72.0999 32.7683 71.9637 33.1633C71.8276 33.5582 71.6778 33.94 71.7323 34.335H64.6655C64.9542 33.9897 65.1717 33.5916 65.3056 33.1633L69.5401 21.8672C69.6899 21.4722 69.8396 21.0904 69.7852 20.6955H81.7264C81.6175 21.0904 81.8354 21.4722 81.9852 21.8672C82.3391 22.723 86.1652 32.3865 86.4648 33.1501V33.1501ZM76.3617 29.2926L75.1091 26.1328C75.0001 25.8432 74.9048 25.5404 74.8367 25.2376C74.7822 25.5427 74.7002 25.8423 74.5916 26.1328C74.5508 26.2645 74.0197 27.6469 73.407 29.2926H76.3617ZM19.2289 20.6823H9.91553C10.1198 21.0773 10.1198 21.459 10.1198 21.854V33.1501C10.1198 33.5451 10.1198 33.9269 9.91553 34.3219H19.2289C19.0246 33.9269 19.0246 33.5451 19.0246 33.1501V21.854C19.0246 21.459 19.0246 21.0773 19.2289 20.6823V20.6823ZM83.6054 21.7619C83.5646 20.8008 84.3407 19.9977 85.3347 19.9714H85.4572C86.4648 19.9582 87.2954 20.7217 87.309 21.696V21.7619C87.3362 22.7493 86.5328 23.5787 85.4981 23.6051C84.4768 23.6314 83.619 22.8546 83.5918 21.854C83.6054 21.8277 83.6054 21.7881 83.6054 21.7618V21.7619ZM83.9731 21.7619C83.9731 22.5518 84.6402 23.197 85.4572 23.197C86.2742 23.197 86.9413 22.5518 86.9413 21.7619C86.9413 20.972 86.2741 20.3268 85.4572 20.3268C84.6675 20.3004 84.0003 20.8929 83.9731 21.6565V21.7619ZM85.0896 22.8283H84.7628V20.6691H85.5934C85.9883 20.6823 86.2878 20.985 86.2878 21.3669C86.2878 21.6302 86.138 21.8672 85.8929 21.9988L86.3695 22.8283H86.0019L85.5661 22.0647H85.0896V22.8283V22.8283ZM85.0896 21.7619H85.5389C85.7568 21.775 85.9474 21.617 85.9474 21.4063C85.9474 21.1957 85.7976 21.0114 85.5798 21.0114H85.0896V21.7619V21.7619Z" fill="white"/>
</svg>
