<svg width="105" height="55" viewBox="0 0 105 55" fill="none" xmlns="http://www.w3.org/2000/svg">
<g clip-path="url(#clip0_1302_33692)">
<path d="M18.9025 40.4697V50.1048C18.9025 50.1048 15.7213 41.0744 15.6484 40.838C15.5712 40.597 15.3975 40.4693 15.0705 40.4693H12.0366V52.1997H14.0847V42.6919C14.0847 42.6919 17.2176 51.5998 17.2975 51.8314C17.3667 52.0662 17.5682 52.2 17.8323 52.2H20.9496V40.4693L18.9025 40.4697ZM29.6693 40.4697V52.1997H32.0774L32.0732 47.2083H36.4112V45.064L32.0774 45.0699V42.6286H36.4765V40.4693L29.6693 40.4697ZM85.342 40.4697V42.7249H88.0305V52.1987H90.4789V42.7249H93.1621V40.4693L85.342 40.4697ZM44.9509 52.199H47.5431V40.4738H44.9509V52.199ZM74.4762 52.199H77.0691V40.4738H74.4762V52.199ZM101.402 52.199H103.983V40.4738H101.402V52.199ZM0.433105 52.199H3.02603V40.4738H0.433105V52.199ZM65.5198 40.4697H63.4725V50.1048C63.4725 50.1048 60.2937 41.0744 60.2176 40.838C60.1394 40.597 59.9657 40.4693 59.647 40.4693H56.6065V52.1997H58.6504V42.6919C58.6504 42.6919 61.7917 51.5998 61.8647 51.8314C61.9387 52.0662 62.1413 52.2 62.398 52.2H65.5198V40.4697ZM62.8206 21.2165C61.8327 19.9357 52.2091 6.95407 52.2091 6.95407C52.2091 6.95407 42.5488 20.0456 41.6255 21.2454C38.0575 20.9407 31.8577 18.5589 31.8577 14.4254C31.8577 9.16932 40.8593 4.30134 52.2091 4.30134C64.1285 4.30134 72.5623 9.16932 72.5623 14.4254C72.5623 18.5589 66.3934 20.9122 62.8206 21.2165V21.2165ZM52.2091 2.80005C37.5499 2.80005 27.3467 8.53048 27.3467 15.9524C27.3467 19.4147 29.5776 23.3319 34.312 25.6877C38.7066 27.872 44.9144 28.6332 45.8109 28.7435L52.2091 9.87423L58.673 28.7438C59.5668 28.6336 65.7179 27.872 70.1132 25.6877C74.8449 23.3323 77.0768 19.4147 77.0768 15.9524C77.0768 8.53048 66.8705 2.80005 52.2091 2.80005" fill="white"/>
</g>
<defs>
<clipPath id="clip0_1302_33692">
<rect width="104" height="55" fill="white" transform="translate(0.208008)"/>
</clipPath>
</defs>
</svg>
