<svg width="92" height="55" viewBox="0 0 92 55" fill="none" xmlns="http://www.w3.org/2000/svg">
<path d="M87.4938 22.1955C85.913 22.1927 84.479 23.4677 82.6952 24.9521C81.0583 26.3122 77.7096 29.7507 74.6545 31.7095C75.5057 30.3719 77.558 27.4815 77.8667 26.1252C78.1913 24.7034 77.1492 24.1514 75.7153 25.0307C74.1531 25.9942 72.663 30.6244 70.4564 30.6244C70.0542 30.6244 69.7736 30.428 69.7774 29.979C69.7867 28.6227 71.8867 25.9194 75.6563 24.4321C76.241 24.1982 76.4654 23.8213 76.4682 23.4967C76.4682 23.3938 76.4514 22.7072 75.2934 22.7072C71.5705 22.7072 66.5456 27.0521 65.8412 30.3831C65.1163 31.1127 63.8114 32.194 62.1576 32.8993C64.0247 30.255 65.6317 28.1288 66.4745 25.9212C67.4473 23.3489 66.0629 23.0121 64.6411 23.7642C63.2567 24.4957 62.2838 26.5264 61.8723 27.3C61.47 28.067 61.124 29.0492 59.9079 30.0267C58.6919 31.0042 57.4291 30.8405 58.3196 28.9323C59.1175 27.228 60.9107 25.4405 62.4541 24.6173C62.8189 24.4209 63.1398 24.3048 63.1276 23.8128C63.1089 23.0318 62.2053 22.4901 60.9172 23.0458C59.168 23.8035 58.3281 24.3086 56.8455 24.3086C55.6687 24.3086 55.0588 23.9906 54.5565 23.782C53.883 23.4957 53.3873 23.5949 53.1254 23.679C52.8897 23.7595 52.5173 23.9877 52.2058 24.3292C51.9589 24.6004 51.7503 25.0447 51.7008 25.33C51.3547 27.416 49.5288 31.1576 48.1874 31.1576C47.7244 31.1576 47.2146 31.0266 47.3455 29.9603C47.5607 28.2148 49.6653 25.8557 50.1517 25.3862C50.6381 24.9128 51.5548 24.5911 51.6203 24.0673C51.6764 23.6276 51.4089 23.1366 50.5446 23.1366C47.7075 23.1366 43.9163 27.069 43.5384 30.601C43.0988 31.0126 42.5694 31.4148 41.9642 31.4148C40.6546 31.4148 40.2823 30.1895 40.3759 29.2167C43.8219 26.1074 50.3585 19.1751 50.5558 14.2409C50.6026 13.0623 50.0283 12.473 49.0629 12.473C46.6309 12.473 43.2223 16.0275 41.1027 18.7682C38.4948 22.1431 36.8896 26.2187 36.3228 29.3083C34.4146 30.9639 33.6401 31.0743 32.8094 31.0743C31.6551 31.0743 31.252 30.239 31.2884 29.5824C34.5062 26.6583 40.0999 19.6915 40.2122 16.2483C40.2459 15.2287 39.6696 14.7479 38.6379 14.7479C36.4444 14.7479 33.3379 17.063 31.1042 20.1115C28.8733 23.1609 27.4262 26.7472 27.0165 29.9986C25.3468 31.499 24.098 31.804 23.0691 31.804C22.447 31.804 21.9906 31.3662 21.8811 31.1829C23.3591 30.3298 26.7265 28.1896 26.7265 24.9999C26.7265 23.4153 25.6573 22.7081 24.5938 22.7081C21.8886 22.7081 17.6344 26.0793 17.6625 30.732C17.6625 30.8143 17.6756 31.1006 17.6905 31.2044C16.4652 31.6253 15.6214 32.0556 15.816 32.9367C15.9937 33.7356 16.9853 33.6944 18.2761 33.2389C18.5736 33.7908 19.8382 34.7009 21.6248 34.7009C24.0438 34.7009 25.8902 33.5532 27.3495 32.3063C27.9622 33.7421 29.4728 34.4951 31.0537 34.4951C32.9712 34.4951 34.8701 33.1949 36.3667 32.0163C36.5407 33.1173 37.6604 34.8319 39.5976 34.8319C41.3655 34.8319 42.7162 33.8029 43.7835 32.6898C44.0642 33.8123 45.0931 34.7009 46.4344 34.7009C50.9085 34.7009 53.4172 28.3682 53.9953 26.0952C54.0701 25.8052 54.347 25.7397 54.5378 25.808C55.3703 26.098 55.7781 26.242 56.8295 26.1223C55.1271 27.4599 53.6268 29.7423 53.6268 31.4101C53.6268 33.0752 55.0701 33.8487 56.1243 33.8487C57.1813 33.8487 58.5787 33.1659 59.4982 32.3054C59.255 32.7955 58.9277 33.5447 58.4038 34.0732C57.4404 34.3379 54.6154 35.3576 52.8195 36.4492C51.117 37.4875 49.4707 39.1375 49.4707 41.0364C49.4707 42.0522 50.3033 43.2439 52.2611 43.2439C55.5518 43.2439 57.8547 41.0925 60.9603 35.4427C63.5326 34.3642 65.076 33.3567 66.0862 32.5008C66.5296 33.2735 67.3827 33.6327 68.2377 33.6327C69.5005 33.6327 70.2582 33.2679 71.2778 32.5354C71.1374 32.8815 70.9129 33.4016 70.5668 33.8637C68.7278 34.6288 66.5194 35.641 65.3885 36.3238C62.3718 38.1422 61.703 39.7726 61.703 41.0569C61.703 41.8427 62.3765 43.2084 64.4091 43.2084C68.8055 43.2084 71.5275 37.7409 73.301 34.6494C74.6012 33.9601 76.4589 32.6814 78.368 31.2165C78.3026 31.4504 78.2717 31.6936 78.2717 31.9695C78.2717 33.3418 79.5158 34.6326 81.555 34.6326C85.5838 34.6326 86.8372 31.6637 86.7876 28.459C86.7689 27.4113 86.6146 26.5769 86.6005 26.2046C86.5631 25.2262 86.8886 24.6987 87.7791 24.6987C88.6771 24.6987 89.2851 24.5396 89.2851 23.7726C89.2851 22.7109 88.5275 22.2292 87.4985 22.2292L87.4938 22.1955ZM46.9021 16.542C47.0172 16.542 47.0649 16.6449 47.0611 16.8039C47.0265 18.0667 43.7779 23.1693 40.7725 26.1392C42.5816 20.8214 46.1884 16.542 46.8993 16.542H46.9021ZM21.2114 29.342C21.3423 27.0755 23.1383 25.3291 23.8473 25.3291C24.1093 25.3291 24.2309 25.4788 24.2309 25.7903C24.2309 26.5984 23.1458 28.2878 21.2161 29.342H21.2114ZM36.4818 18.4165C36.6174 18.4165 36.6754 18.5222 36.6708 18.6943C36.6474 19.6278 34.3089 23.9139 31.3072 26.8838C32.8842 22.0664 35.451 18.4184 36.4799 18.4184L36.4818 18.4165ZM52.9027 40.3628C52.6726 40.3628 52.5566 40.2132 52.5566 39.9924C52.5566 38.6146 55.6154 36.9861 57.2196 36.3977C56.5274 37.5183 53.9869 40.3638 52.8999 40.3638L52.9027 40.3628ZM65.1443 40.4387C64.9198 40.4387 64.8356 40.304 64.8356 40.0832C64.8356 38.8672 67.6082 36.9833 69.2105 36.3958C68.378 37.8364 66.0629 40.4368 65.1415 40.4368L65.1443 40.4387ZM81.8524 31.6814C81.6598 31.6814 81.366 31.6346 81.366 30.9864C81.366 30.515 81.1415 29.993 80.3203 29.993C80.208 29.993 80.0864 30.0024 79.948 30.0258C81.7065 28.632 83.0815 27.098 84.363 26.0597C84.1011 29.2307 83.3434 31.6814 81.8468 31.6814" fill="white"/>
<path d="M80.3066 21.6079C80.2476 22.1644 79.6275 22.4142 79.5732 22.9118C79.5423 23.2018 79.7472 23.3935 80.1083 23.3889C81.0306 23.3795 83.5038 21.9521 83.7189 19.7315C83.8274 18.6118 83.1277 17.6399 81.907 17.6399C80.6723 17.6399 79.5554 18.7979 79.4516 19.7707C79.3515 20.722 80.3636 21.0663 80.3066 21.6079V21.6079ZM16.0287 37.2683C15.2364 37.2272 14.865 36.2815 14.865 35.1356C14.865 33.8757 15.6788 31.1462 16.0015 29.8544C16.3289 28.5514 16.4692 26.4439 15.2906 25.2353C19.7712 23.4328 26.4032 17.2938 27.2544 15.9534C28.1056 14.6111 28.274 12.904 27.0954 12.0509C25.9261 11.1978 24.0086 12.311 22.8767 13.9404C19.7619 18.4322 17.8817 20.6248 15.7583 22.4713C14.1027 23.9118 13.2982 23.9351 12.5031 24.0455C12.5031 24.0455 15.5619 19.0383 16.7031 17.5351C18.0735 15.7373 16.3851 15.0657 14.7481 16.2013C14.416 16.4323 11.8278 18.2218 8.69233 19.84C3.10799 22.721 1.76381 24.0493 1.76381 25.7779C1.76381 26.5449 2.29697 27.5102 3.41945 27.5102C5.60829 27.5102 7.77282 23.5984 8.83263 22.6247C9.24421 22.2412 10.2011 21.4086 10.5725 21.4086C10.6941 21.4086 10.7783 21.4835 10.7783 21.7173C10.7783 22.4656 9.32558 24.589 7.07408 27.021C3.80766 30.5475 1.13428 31.9693 1.13428 34.2236C1.13428 35.6922 2.23804 36.4873 3.43161 36.4873C5.94784 36.4873 7.63157 33.1292 8.63806 31.4642C9.04028 30.8 11.26 26.6628 11.7277 25.7676C12.2141 26.0267 12.5134 26.5664 12.3544 27.6627C12.0551 29.6364 10.2965 32.0273 10.2965 35.361C10.2965 38.0831 12.8128 38.9371 13.823 38.939C14.7565 38.939 15.9912 38.5789 16.2981 37.6444C16.3355 37.5041 16.2887 37.2674 16.0399 37.2515L16.0287 37.2683ZM90.4211 21.7894C90.9449 21.7894 91.2816 22.1261 91.2816 22.6527C91.2816 23.1765 90.9449 23.5133 90.4211 23.5133C89.8926 23.5133 89.5577 23.1765 89.5577 22.6527C89.5577 22.1233 89.8907 21.7847 90.4201 21.7847L90.4211 21.7894ZM90.4201 23.3C90.8177 23.3 91.0693 23.0446 91.0693 22.6452C91.0693 22.2458 90.8167 21.9942 90.4201 21.9942C90.0198 21.9942 89.7682 22.2467 89.7682 22.6433C89.7682 23.0399 90.0207 23.2981 90.4173 23.2981L90.4201 23.3ZM90.4734 22.2037C90.6072 22.2037 90.7578 22.2692 90.7578 22.4638C90.7578 22.5929 90.6736 22.6695 90.5801 22.7069C90.64 22.7911 90.6867 22.9109 90.7578 22.9109H90.8074C90.8167 22.9202 90.8261 22.9389 90.8261 22.9764C90.8261 23.0362 90.7821 23.0792 90.6951 23.0792C90.5268 23.0792 90.508 22.8791 90.3958 22.7331H90.2957V23.0606C90.277 23.0737 90.2302 23.0792 90.1928 23.0792C90.1367 23.0792 90.09 23.0699 90.09 22.9857V22.215C90.1087 22.2056 90.146 22.2018 90.1909 22.2018H90.4716L90.4734 22.2037ZM90.2985 22.3627V22.5779H90.4267C90.5165 22.5779 90.567 22.5358 90.567 22.4656C90.567 22.4001 90.5202 22.3627 90.4454 22.3627H90.2995H90.2985Z" fill="white"/>
</svg>
