<svg width="75" height="55" viewBox="0 0 75 55" fill="none" xmlns="http://www.w3.org/2000/svg">
<g clip-path="url(#clip0_1302_33742)">
<path fill-rule="evenodd" clip-rule="evenodd" d="M30.3089 16.5409C29.9629 16.5409 29.8095 16.7571 29.6811 17.0665C21.6048 36.5877 20.927 38.131 20.927 38.131C25.5038 38.131 25.5038 38.131 25.5038 38.131C26.4563 35.6819 26.4563 35.6819 26.4563 35.6819C33.3518 35.6819 33.3518 35.6819 33.3518 35.6819C34.3079 38.131 34.3079 38.131 34.3079 38.131C39.6908 38.131 39.6908 38.131 39.6908 38.131C39.6908 38.131 39.2306 37.1282 30.9367 17.0665C30.8083 16.7571 30.655 16.5409 30.3089 16.5409V16.5409ZM27.9117 31.9469C29.8987 26.8364 29.8987 26.8364 29.8987 26.8364C31.8927 31.9469 31.8927 31.9469 31.8927 31.9469H27.9117ZM53.1715 28.3238C54.7447 27.3397 55.9361 25.6212 55.9361 23.1573C55.9361 21.2227 55.1978 19.6273 53.9135 18.5502C52.6115 17.4542 51.1061 16.8614 48.0275 16.8614C41.4424 16.8614 41.4424 16.8614 41.4424 16.8614C41.4424 38.131 41.4424 38.131 41.4424 38.131C46.3081 38.131 46.3081 38.131 46.3081 38.131C46.3081 30.2135 46.3081 30.2135 46.3081 30.2135C47.817 30.2135 47.817 30.2135 47.817 30.2135C49.458 30.2135 50.2856 30.8659 50.9741 32.5918C51.5555 34.0529 51.9658 35.7863 52.5009 38.131C57.9267 38.131 57.9267 38.131 57.9267 38.131C57.1562 35.7192 56.7709 34.5785 56.193 32.8788C55.4011 30.5529 54.4415 29.1215 53.1715 28.3238V28.3238ZM50.0609 25.7145C49.4723 26.1878 48.7125 26.3369 47.3462 26.3369C46.3081 26.3369 46.3081 26.3369 46.3081 26.3369C46.3081 26.3369 46.2974 20.6674 46.3081 20.6674C47.3462 20.6674 47.3462 20.6674 47.3462 20.6674C48.7731 20.6674 49.4829 20.8314 50.0573 21.2861C50.7137 21.8079 51.0062 22.5907 51.0062 23.4966C51.0062 24.4843 50.678 25.2112 50.0609 25.7145ZM10.0111 25.8747C1.74579 17.2343 1.74579 17.2343 1.74579 17.2343C1.49609 16.9771 1.24639 16.7944 0.854004 16.7944C0.854004 38.131 0.854004 38.131 0.854004 38.131C5.10265 38.131 5.10265 38.131 5.10265 38.131C5.10265 27.9286 5.10265 27.9286 5.10265 27.9286C10.0111 33.0577 10.0111 33.0577 10.0111 33.0577C14.9233 27.9286 14.9233 27.9286 14.9233 27.9286C14.9233 38.131 14.9233 38.131 14.9233 38.131C19.1719 38.131 19.1719 38.131 19.1719 38.131C19.1719 16.7944 19.1719 16.7944 19.1719 16.7944C18.7795 16.7944 18.5298 16.9771 18.2801 17.2343L10.0111 25.8747ZM73.0769 27.5186C70.908 25.3641 66.9733 24.995 65.418 23.7277C64.808 23.2319 64.5903 22.5013 64.7902 21.8042C65.0362 20.9395 65.8603 20.3729 67.0696 20.3729C68.7355 20.3729 70.2302 21.1668 71.2647 22.4528C74.0436 19.4149 74.0436 19.4149 74.0436 19.4149C72.4062 17.5959 69.7915 16.5 67.0375 16.5C63.8269 16.5 61.4048 18.1215 60.3239 20.7083C59.4856 22.7175 59.7746 24.8124 60.8055 26.3184C62.7995 29.2333 67.009 29.3227 68.8318 30.8174C69.4811 31.3505 69.845 32.2116 69.4561 33.1397C69.1208 33.9523 68.2753 34.504 66.8912 34.5413C64.9721 34.5897 63.2597 33.6504 62.0005 32.0066C59.218 35.0482 59.218 35.0482 59.218 35.0482C61.0587 37.378 63.7984 38.5 67.1088 38.5C70.3265 38.5 73.1518 37.1916 74.304 34.4033C75.3135 31.9656 74.9496 29.375 73.0769 27.5186" fill="white"/>
</g>
<defs>
<clipPath id="clip0_1302_33742">
<rect width="74" height="55" fill="white" transform="translate(0.854004)"/>
</clipPath>
</defs>
</svg>
