<svg width="59" height="55" viewBox="0 0 59 55" fill="none" xmlns="http://www.w3.org/2000/svg">
<g clip-path="url(#clip0_1302_33526)">
<path d="M27.4769 42.1422C27.6165 42.2569 27.7688 42.3807 27.9101 42.4936C25.0699 44.4001 21.6532 45.5 17.99 45.5C8.0862 45.5 0.0620117 37.4496 0.0620117 27.5C0.0620117 17.5595 8.0862 9.5 17.9791 9.5C21.6532 9.5 25.0699 10.5998 27.9029 12.4954C27.7597 12.6193 27.6183 12.7431 27.5041 12.8669C23.2682 16.5452 20.8321 21.886 20.8321 27.5C20.8321 33.114 23.2591 38.4548 27.4787 42.1422H27.4769ZM40.1467 9.5C36.4636 9.5 33.056 10.5998 30.223 12.4954C30.3661 12.6193 30.5075 12.7431 30.6217 12.8669C34.8577 16.5452 37.2937 21.886 37.2937 27.5C37.2937 33.1067 34.8667 38.4457 30.6471 42.1422C30.5075 42.2569 30.3553 42.3807 30.2139 42.4936C33.0542 44.4001 36.4618 45.5 40.134 45.5C50.0378 45.5 58.062 37.4496 58.062 27.5C58.062 17.5595 50.0378 9.5 40.1449 9.5H40.1467ZM29.0629 13.3604C28.8255 13.5407 28.608 13.7191 28.3832 13.9194C24.6058 17.2208 22.2187 22.0772 22.2187 27.5018C22.2187 32.9264 24.6058 37.781 28.3832 41.0842C28.6007 41.2827 28.8345 41.4721 29.0629 41.6523C29.3004 41.4721 29.5179 41.2827 29.7426 41.0842C33.52 37.7829 35.9071 32.9264 35.9071 27.5018C35.9071 22.0772 33.52 17.2226 29.7426 13.9194C29.5251 13.7209 29.3004 13.5407 29.0629 13.3604V13.3604Z" fill="white"/>
</g>
<defs>
<clipPath id="clip0_1302_33526">
<rect width="58" height="55" fill="white" transform="translate(0.0620117)"/>
</clipPath>
</defs>
</svg>
