<svg width="122" height="55" viewBox="0 0 122 55" fill="none" xmlns="http://www.w3.org/2000/svg">
<path d="M119.795 34.6624C118.827 35.69 117.731 36.3028 116.355 36.5826C115.427 36.7723 114.614 36.8122 113.67 36.7132C112.419 36.5833 111.387 36.1773 110.38 35.4162C109.557 34.796 108.967 34.125 108.452 33.2258C108.055 32.5296 107.823 31.8785 107.695 31.0857C107.514 29.9857 107.562 29.0179 107.848 27.9422C108.503 25.4957 110.324 23.7616 112.779 23.2456C114.181 22.951 115.427 22.9813 116.813 23.343C117.8 23.6007 118.583 24.0347 119.33 24.7368C119.801 25.1783 120.136 25.622 120.432 26.1963C120.784 26.8755 120.926 27.5355 120.885 28.3003H116.507C116.412 27.7075 116.131 27.235 115.658 26.8718C115.046 26.4001 114.256 26.3624 113.602 26.7714C113.155 27.0527 112.861 27.4351 112.703 27.9422C112.326 29.1507 112.309 30.2751 112.645 31.4954C112.788 32.0084 113.028 32.4108 113.413 32.777C113.85 33.1992 114.396 33.3727 114.995 33.2834C115.366 33.2288 115.668 33.0649 115.918 32.7806C116.18 32.4876 116.33 32.1731 116.398 31.784C116.447 31.5101 116.474 31.2783 116.488 31.0008H121.104C121.196 32.4071 120.755 33.6422 119.795 34.6624" fill="white"/>
<path d="M102.158 21.6453H106.946V18.2272H102.158V21.6453Z" fill="white"/>
<path d="M102.158 36.3403H106.946V23.4012H102.158V36.3403Z" fill="white"/>
<path d="M92.237 24.7665C92.8668 24.2099 93.4673 23.8171 94.227 23.462C95.4638 22.8847 96.7006 22.791 98.009 23.1771C99.4123 23.5927 100.423 24.5901 100.866 25.9994C101.079 26.6763 101.171 27.2773 101.171 27.9874V36.3384H96.0855V28.8283C96.0855 28.5773 96.0555 28.3647 95.981 28.124C95.851 27.6929 95.569 27.3754 95.157 27.1997C94.2555 26.8129 93.2306 27.1554 92.736 28.0088C92.5293 28.3647 92.435 28.7153 92.435 29.1288V36.3384H87.5098V23.3986H92.1304L92.237 24.7665" fill="white"/>
<path d="M35.6062 24.7665C36.2359 24.2099 36.8364 23.8171 37.5947 23.462C38.8322 22.8847 40.0697 22.791 41.3774 23.1771C42.7815 23.5927 43.7925 24.5901 44.2352 25.9994C44.4478 26.6763 44.5399 27.2773 44.5399 27.9874V36.3384H39.4546V28.8283C39.4546 28.5773 39.4232 28.3647 39.3509 28.124C39.2194 27.6929 38.9374 27.3754 38.5247 27.1997C37.6239 26.8129 36.599 27.1554 36.1051 28.0088C35.8977 28.3647 35.8034 28.7153 35.8034 29.1288V36.3384H30.8789V23.3986H35.4988L35.6062 24.7665" fill="white"/>
<path d="M65.7894 31.583C66.1561 31.6457 66.4629 31.7233 66.815 31.8421C67.1094 31.9396 67.3118 32.1699 67.3761 32.4748C67.4462 32.8077 67.3534 33.1237 67.1167 33.3636C66.8764 33.6095 66.6025 33.7512 66.2649 33.8044C65.8135 33.8774 65.4131 33.8398 64.9829 33.6818C64.7747 33.6065 64.6096 33.5113 64.4386 33.3688C64.2187 33.1813 64.077 32.9665 63.9915 32.6889C63.9199 32.4534 63.8914 32.2452 63.8958 31.9986H59.2065V32.2747C59.2065 32.7206 59.2752 33.0986 59.4301 33.5157C59.6653 34.1432 59.9875 34.6282 60.474 35.0859C61.1088 35.6861 61.7714 36.0604 62.6064 36.3018C64.34 36.8009 65.9011 36.8998 67.6829 36.6237C68.5186 36.4945 69.2083 36.2671 69.96 35.8736C70.2909 35.7001 70.5561 35.5208 70.8417 35.2786C72.1085 34.2037 72.5782 32.5634 72.072 30.9725C71.8806 30.373 71.5781 29.9109 71.1069 29.4975C70.4611 28.932 69.8073 28.5717 68.9862 28.3296C68.8065 28.2772 68.6531 28.2329 68.4719 28.1827C67.4674 27.9007 66.6046 27.7146 65.5731 27.5596C65.297 27.5183 65.0647 27.4732 64.7922 27.409C64.6665 27.3787 64.5621 27.3433 64.4452 27.2894C64.1566 27.158 64.0288 26.8147 64.1588 26.5239C64.1661 26.5084 64.1727 26.4943 64.1807 26.4796C64.3356 26.1998 64.565 26.0174 64.8674 25.9281C65.4029 25.7716 65.896 25.7849 66.4213 25.9657C66.9253 26.1392 67.2417 26.6065 67.2198 27.1447H71.7381C71.7337 26.5837 71.649 26.1097 71.462 25.5826C71.2706 25.0481 70.9798 24.6413 70.5378 24.2892C70.1536 23.9806 69.789 23.771 69.331 23.5916C68.8854 23.4166 68.4923 23.3074 68.0211 23.2239C66.9012 23.029 65.9377 22.9722 64.8039 23.0401C64.1559 23.0778 63.6095 23.159 62.9754 23.3088C62.1221 23.5118 61.4347 23.8448 60.745 24.3911C60.1592 24.8554 59.7756 25.398 59.5302 26.1082C59.4184 26.4301 59.3651 26.7158 59.3505 27.0546C59.3249 27.6224 59.406 28.1059 59.6142 28.6337C59.9868 29.5787 60.6486 30.2483 61.5852 30.6255C62.0593 30.8167 62.4749 30.9422 62.9754 31.0456C63.9616 31.2515 64.7966 31.4117 65.7894 31.583" fill="white"/>
<path d="M9.73379 30.7602H6.44785V26.5146H8.5832C8.98864 26.5146 9.33199 26.505 9.73744 26.4822C10.2992 26.4512 10.766 26.1972 11.1006 25.7402C11.2781 25.4974 11.3782 25.2523 11.4206 24.9525C11.4557 24.7001 11.4608 24.4845 11.4359 24.232C11.3446 23.2871 10.5702 22.5784 9.63151 22.5784H6.44785V36.3398H1.0083V18.225H9.89962C10.2532 18.225 10.552 18.2316 10.9048 18.2516C13.2637 18.3793 15.2069 19.7029 16.2063 21.866C16.7264 22.9918 16.9032 24.074 16.7695 25.3098C16.4876 27.9114 14.6868 29.9349 12.157 30.4952C11.3183 30.6813 10.5922 30.7602 9.73379 30.7602" fill="white"/>
<path d="M81.1456 23.1529C80.6393 23.0716 80.2069 23.0384 79.6948 23.0384C79.1819 23.0384 78.7502 23.0716 78.2432 23.1529C76.7734 23.3854 75.5826 23.9826 74.5094 25.0235C73.3611 26.139 72.7321 27.459 72.5881 29.0617C72.5005 30.0458 72.5757 30.894 72.838 31.8456C73.2398 33.3058 73.9944 34.4339 75.1852 35.3552C75.9691 35.9642 76.7485 36.3289 77.7143 36.5415C78.4003 36.6936 78.9927 36.7563 79.6948 36.7563C80.3961 36.7563 80.9893 36.6936 81.676 36.5415C82.641 36.3289 83.4205 35.9642 84.2043 35.3552L81.4532 32.3254C81.0156 33.3073 79.8759 33.7451 78.9036 33.3029C78.4558 33.0991 78.138 32.7787 77.9356 32.3254C77.7494 31.9069 77.6405 31.5318 77.5733 31.0771C77.4374 30.1683 77.4528 29.3791 77.6288 28.4763C77.7187 28.0075 77.8736 27.6251 78.1322 27.2257C78.6976 26.3538 79.8548 26.1102 80.719 26.6809C80.9447 26.8307 81.1098 26.9976 81.2566 27.2257C81.516 27.6251 81.6709 28.0075 81.7607 28.4763C81.9346 29.3791 81.9521 30.1683 81.8162 31.0771C81.7483 31.5318 81.6394 31.9069 81.4532 32.3254L84.2043 35.3552C85.3958 34.4339 86.1505 33.3058 86.5515 31.8456C86.8138 30.894 86.8883 30.0458 86.8014 29.0617C86.6575 27.459 86.0299 26.139 84.8808 25.0235C83.8069 23.9812 82.6169 23.3854 81.1456 23.1529" fill="white"/>
<path d="M58.6776 35.3272C58.606 34.2612 58.5658 33.3583 58.5446 32.2886C58.5169 30.883 58.5001 29.6974 58.4906 28.2925C58.4847 27.5344 58.4022 26.8943 58.2144 26.1605C57.9682 25.1986 57.4108 24.4677 56.5525 23.982C56.0338 23.6889 55.5582 23.5088 54.9782 23.3818C53.1314 22.9824 51.5016 22.9492 49.6409 23.2755C49.1178 23.367 48.6853 23.494 48.1944 23.6992C47.0606 24.1732 46.2797 25.0369 45.9159 26.2203C45.7764 26.6729 45.7391 27.0833 45.7924 27.555C45.8027 27.6414 45.8239 27.7145 45.8626 27.7935L50.1713 27.8998C50.1603 27.6222 50.1961 27.3875 50.2889 27.1269C50.4299 26.7297 50.7075 26.4477 51.1005 26.303C51.6783 26.0882 52.235 26.0801 52.8209 26.2735C53.2059 26.4012 53.4791 26.6817 53.5989 27.0722C53.6742 27.3166 53.6369 27.5573 53.4908 27.7662C53.3637 27.9507 53.2066 28.0748 52.9984 28.1552C52.8698 28.2047 52.7603 28.2409 52.6288 28.2763C52.0297 28.4395 51.5184 28.5517 50.9069 28.6543C50.4226 28.7348 50.0149 28.8108 49.535 28.9097C48.8826 29.0404 48.3376 29.1851 47.7057 29.3918C47.1271 29.5808 46.6713 29.8495 46.2242 30.2651C45.6427 30.8026 45.3103 31.4397 45.1992 32.2303C45.1262 32.7574 45.143 33.2166 45.2584 33.7356C45.5601 35.0851 46.4872 36.0832 47.8029 36.47C49.261 36.8974 50.6293 36.8273 52.037 36.253C52.7223 35.9746 53.2439 35.5885 53.7151 35.0142L53.4112 32.7899C53.1942 33.1295 52.9246 33.3613 52.5601 33.5237C52.2182 33.6765 51.9092 33.757 51.5373 33.7954C51.2276 33.8264 50.9588 33.8035 50.6585 33.7186C50.4145 33.6507 50.2239 33.5355 50.0507 33.3495C49.9046 33.19 49.8177 33.0187 49.7731 32.8061C49.7052 32.4798 49.8111 32.1661 50.0631 31.9498C50.2319 31.8043 50.397 31.7069 50.6037 31.6301C51.1041 31.4441 51.5315 31.3046 52.0436 31.1576C52.6631 30.9812 53.1759 30.79 53.7604 30.5183C53.8181 30.9915 53.8152 31.3968 53.7501 31.8678C53.7026 32.2133 53.5989 32.4975 53.4112 32.7899L53.7151 35.0142C53.8093 35.3302 53.8962 35.5945 54.0029 35.9038C54.0635 36.0773 54.1424 36.2116 54.2622 36.3467H59.0085C58.8062 36.0256 58.7031 35.7081 58.6776 35.3272" fill="white"/>
<path d="M29.9313 35.327C29.8597 34.261 29.8195 33.3581 29.7983 32.2884C29.7698 30.8828 29.7537 29.6972 29.7443 28.2923C29.7391 27.5341 29.6566 26.8941 29.4681 26.1603C29.2219 25.1984 28.6653 24.4675 27.8061 23.9817C27.2875 23.6887 26.8119 23.5085 26.2318 23.3816C24.3851 22.9822 22.7552 22.9489 20.8938 23.2752C20.3722 23.3668 19.9383 23.4938 19.4481 23.699C18.3143 24.1729 17.5334 25.0367 17.1696 26.2201C17.0308 26.6726 16.9928 27.0831 17.0469 27.5548C17.0564 27.6412 17.0775 27.7143 17.1163 27.7933L21.4249 27.8996C21.4147 27.622 21.4498 27.3872 21.5426 27.1266C21.6836 26.7295 21.9612 26.4474 22.3542 26.3028C22.9328 26.0879 23.4887 26.0798 24.0739 26.2732C24.4596 26.4009 24.7335 26.6815 24.8541 27.072C24.9278 27.3164 24.8906 27.557 24.7445 27.7659C24.6166 27.9505 24.4596 28.0745 24.2521 28.155C24.1235 28.2045 24.014 28.2406 23.8817 28.2761C23.2834 28.4392 22.7713 28.5514 22.1606 28.654C21.677 28.7345 21.2686 28.8105 20.7879 28.9095C20.1363 29.0401 19.592 29.1848 18.9587 29.3915C18.3815 29.5805 17.9257 29.8492 17.4779 30.2649C16.8964 30.8023 16.5647 31.4394 16.4529 32.2301C16.3791 32.7572 16.3967 33.2163 16.5128 33.7353C16.8131 35.0848 17.7416 36.0829 19.0558 36.4698C20.5154 36.8972 21.8823 36.8271 23.2907 36.2527C23.9752 35.9744 24.4983 35.5883 24.9695 35.014L24.6656 32.7896C24.4486 33.1292 24.1783 33.361 23.8131 33.5235C23.4719 33.6763 23.1621 33.7567 22.7918 33.7951C22.4806 33.8261 22.2132 33.8032 21.9122 33.7183C21.6682 33.6504 21.4775 33.5353 21.3051 33.3492C21.1583 33.1898 21.0714 33.0185 21.0268 32.8059C20.9596 32.4796 21.0648 32.1658 21.3168 31.9495C21.4848 31.8041 21.6499 31.7067 21.8574 31.6299C22.3578 31.4438 22.7859 31.3043 23.298 31.1574C23.9175 30.981 24.4296 30.7898 25.0148 30.5181C25.0718 30.9913 25.0688 31.3966 25.0038 31.8676C24.9563 32.2131 24.8519 32.4973 24.6656 32.7896L24.9695 35.014C25.063 35.3299 25.1499 35.5942 25.2573 35.9035C25.3172 36.077 25.3961 36.2114 25.5159 36.3465H30.2622C30.0598 36.0253 29.9576 35.7079 29.9313 35.327" fill="white"/>
</svg>
