<svg width="73" height="55" viewBox="0 0 73 55" fill="none" xmlns="http://www.w3.org/2000/svg">
<path d="M31.3558 23.6849C34.7468 16.5945 28.4047 14.6685 24.276 14.6685H10.5986C11.7336 15.3305 11.5492 16.2093 11.3222 16.751L3.34846 38.3593C3.03632 39.214 1.84452 40.1169 1.20605 40.2493H12.2728C11.6627 40.153 10.7972 39.4187 11.1094 38.4195L14.0037 30.6068C14.0179 30.6068 27.3264 32.1356 31.3558 23.6849V23.6849ZM20.6012 16.6547C22.0484 16.6547 26.0637 16.8233 23.4672 23.2636C20.7573 30.029 14.7415 28.6326 14.7415 28.6326L19.1682 16.6547H20.6012Z" fill="white"/>
<path d="M40.2087 40.2623H47.6574C45.2738 39.6122 41.7552 37.6982 40.3505 36.3379C41.4856 35.2906 42.8902 33.9664 43.1456 31.2819H39.2864C39.2864 31.2819 40.0242 31.643 40.0242 32.4135C40.0242 33.1237 39.6837 34.1108 39.031 34.797C37.896 33.3765 36.69 31.7514 36.2644 29.3678C37.7825 28.7298 39.9107 28.0316 41.5991 26.7797C43.2024 25.5879 43.5712 24.4563 43.5996 23.722V23.6257C43.5996 22.8553 43.2449 22.133 42.5923 21.5913C41.4714 20.6523 39.7121 20.2671 37.8534 20.556C36.3637 20.7968 35.1009 21.4709 34.4625 21.9644C32.2207 23.7581 31.937 26.7074 31.937 28.0437C31.937 28.3687 31.9512 28.6094 31.9654 28.7539C31.8377 28.8021 31.6106 28.8743 31.6106 28.8743C29.9648 29.3919 25.5807 30.379 24.02 33.4367C23.8214 33.8219 23.5376 34.6646 23.5376 35.6397C23.5376 36.4823 23.7504 37.4213 24.3889 38.276C25.4956 39.7446 27.3684 40.6716 30.3763 40.6234C33.6396 40.5753 36.8603 38.6853 37.4278 38.3362C37.9811 38.7816 39.4425 39.9493 40.2087 40.2623V40.2623ZM40.2087 23.1683C39.8256 25.2268 36.6758 27.3093 35.9097 27.5862C35.7678 26.4306 35.8387 24.6008 36.9738 23.1081C37.7257 22.1209 38.7331 21.6876 39.5418 21.9283C40.1945 22.1209 40.2654 22.6265 40.2087 23.1683ZM35.8387 36.9398C35.3989 37.1685 33.6679 37.9148 32.0505 38.0473C30.5465 38.1676 28.0494 37.6741 28.0636 35.122C28.0636 32.9431 30.8587 31.3421 32.3768 30.7883C32.9869 32.895 34.3631 35.2785 35.8387 36.9398V36.9398Z" fill="white"/>
<path d="M62.84 16.6793C67.2667 15.7765 70.913 18.7138 71.2393 18.9184L72.5021 15.5116C70.7569 15.0662 58.0586 11.4187 49.0775 20.1102C43.5583 25.4551 42.2104 36.4097 49.2052 39.3469C56.6965 42.4889 64.9682 38.8654 65.5783 38.6126L68.9976 29.3674C69.3665 28.2479 70.2036 27.5256 71.6792 27.0561H59.7895C61.5205 27.6701 61.3928 28.7775 61.2651 29.235L57.8457 38.4802C57.3917 38.5524 47.8289 40.5748 53.1778 26.382C54.3555 23.3364 57.5762 17.7507 62.84 16.6793Z" fill="white"/>
</svg>
