<svg width="110" height="55" viewBox="0 0 110 55" fill="none" xmlns="http://www.w3.org/2000/svg">
<g clip-path="url(#clip0_1302_33696)">
<path fill-rule="evenodd" clip-rule="evenodd" d="M60.1751 26.9119C59.6253 26.5654 59.0516 26.2591 58.4583 25.9953C57.6058 25.6253 56.7939 25.1668 56.0357 24.6272C55.8194 24.4257 55.6711 24.1611 55.6115 23.8704C55.5518 23.5797 55.5839 23.2774 55.7032 23.006C55.795 22.8149 55.9438 22.6574 56.1287 22.5556C56.3136 22.4538 56.5255 22.4128 56.7347 22.4383C56.7347 22.4383 57.8204 22.4998 57.8204 23.3959V24.6682H61.7088V22.7666C61.7088 22.7666 62.0074 19.709 57.1282 19.5721C57.1282 19.5721 53.2874 19.3191 52.188 21.4054C52.188 21.4054 51.7537 21.8705 51.7537 23.4917V24.6888C51.7362 25.4759 51.9589 26.2496 52.3916 26.905C52.7678 27.386 53.2277 27.794 53.7488 28.109C53.7488 28.109 55.6828 29.1555 56.8432 29.7575C56.8432 29.7575 58.0172 30.4415 57.8611 31.5086C57.8352 31.8118 57.6916 32.0925 57.4617 32.2897C57.2318 32.4869 56.9339 32.5848 56.6329 32.5621C56.3478 32.5496 56.0793 32.4239 55.886 32.2124C55.6927 32.0008 55.5904 31.7208 55.6014 31.4334V30.1611H51.4348V32.0011C51.4348 32.0011 51.3127 35.5239 56.6464 35.5239C56.6464 35.5239 61.7359 35.6334 61.9734 31.9122V30.3936C62.0031 29.7053 61.8526 29.0211 61.5369 28.41C61.2212 27.7988 60.7516 27.2822 60.1751 26.9119V26.9119Z" fill="white"/>
<path fill-rule="evenodd" clip-rule="evenodd" d="M40.2515 20.01L38.9486 28.2458H38.6432L37.4014 20.0853H30.9004L30.5747 34.9905H34.4224L34.4699 23.7585H34.7684L36.811 34.9905H40.8622L42.8777 23.7654H43.1423L43.2373 34.9905H47.1054L46.6846 20.01H40.2515Z" fill="white"/>
<path fill-rule="evenodd" clip-rule="evenodd" d="M17.342 20.0718L14.7837 34.977H18.9231L20.4432 23.4236H20.7825L22.3026 34.977H26.442L23.8837 20.0718H17.342Z" fill="white"/>
<path fill-rule="evenodd" clip-rule="evenodd" d="M104.278 26.741V28.9368H105.336V31.2967C105.352 31.4432 105.338 31.5915 105.294 31.7322C105.251 31.8729 105.179 32.003 105.084 32.1146C104.988 32.2262 104.871 32.3167 104.739 32.3806C104.607 32.4445 104.464 32.4804 104.318 32.486C104.172 32.4917 104.026 32.467 103.89 32.4134C103.754 32.3599 103.63 32.2786 103.526 32.1748C103.423 32.0709 103.341 31.9467 103.287 31.8097C103.233 31.6728 103.208 31.5261 103.212 31.3788V23.184C103.212 22.3427 104.271 22.2948 104.271 22.2948C104.404 22.2911 104.536 22.3145 104.66 22.3634C104.784 22.4124 104.897 22.486 104.992 22.5798C105.087 22.6737 105.162 22.7858 105.213 22.9096C105.264 23.0334 105.29 23.1663 105.289 23.3003V24.5384H109.191C109.32 22.1169 108.838 21.5287 108.838 21.5287C107.874 19.3397 104.21 19.4765 104.21 19.4765C98.5843 19.4765 99.2086 23.827 99.2086 23.827V31.7003C99.3307 35.8046 104.875 35.3668 104.97 35.3599C107.433 35.0863 108.18 34.2997 108.18 34.2997C108.589 33.9942 108.891 33.5653 109.041 33.0752C109.193 32.5106 109.275 31.9294 109.286 31.3446V26.741H104.278Z" fill="white"/>
<path fill-rule="evenodd" clip-rule="evenodd" d="M91.343 29.1285H91.1733L87.2171 20.0171H82.4805V34.9907H86.3349L86.1042 25.8793H86.2738L90.3793 34.9907H94.9735V20.0171H91.0647L91.343 29.1285Z" fill="white"/>
<path fill-rule="evenodd" clip-rule="evenodd" d="M73.0682 31.2629C73.0682 31.2629 73.1293 32.4942 71.996 32.4942C71.8369 32.5043 71.6774 32.4801 71.5284 32.423C71.3793 32.366 71.244 32.2776 71.1316 32.1636C71.0191 32.0496 70.9321 31.9127 70.8764 31.7621C70.8207 31.6115 70.7976 31.4507 70.8085 31.2903V20.0242H66.5808V31.2014C66.5808 31.2014 66.1465 35.4356 72.0707 35.4356C72.0707 35.4356 77.2145 35.4971 77.2145 31.3997V20.0242H73.0818V31.2629H73.0682Z" fill="white"/>
<path fill-rule="evenodd" clip-rule="evenodd" d="M9.28692 26.913C8.7371 26.5665 8.16334 26.2602 7.57007 25.9964C6.7176 25.6264 5.90568 25.1679 5.14748 24.6283C4.93234 24.426 4.7853 24.161 4.72689 23.8703C4.66849 23.5797 4.70166 23.2779 4.82175 23.0071C4.91155 22.8158 5.05894 22.658 5.24292 22.556C5.4269 22.4541 5.63809 22.4133 5.84643 22.4394C5.84643 22.4394 6.93219 22.5009 6.93219 23.397V24.6693H10.8273V22.7677C10.8273 22.7677 11.1191 19.7101 6.24002 19.5732C6.24002 19.5732 5.87358 19.5732 5.3307 19.5732C5.3307 19.5732 2.3788 19.7306 1.32019 21.3654V21.3996C1.32019 21.3996 0.885884 21.8648 0.885884 23.4859V24.6899C0.88208 25.4812 1.11891 26.2546 1.56448 26.9061C1.94112 27.3867 2.40093 27.7946 2.92168 28.1101C2.92168 28.1101 4.85568 29.1566 6.01608 29.7586C6.01608 29.7586 7.19006 30.4426 7.03398 31.5097C7.00803 31.8129 6.86451 32.0936 6.63456 32.2908C6.40461 32.488 6.10679 32.5859 5.80572 32.5631C5.52069 32.5507 5.25215 32.425 5.05885 32.2134C4.86554 32.0019 4.76322 31.7219 4.77425 31.4345V30.1622H0.546586V32.0022C0.546586 32.0022 0.431224 35.525 5.75822 35.525C5.75822 35.525 10.8477 35.6345 11.0852 31.9133V30.3947C11.1149 29.7064 10.9643 29.0222 10.6487 28.4111C10.333 27.7999 9.86338 27.2833 9.28692 26.913V26.913Z" fill="white"/>
</g>
<defs>
<clipPath id="clip0_1302_33696">
<rect width="109" height="55" fill="white" transform="translate(0.416016)"/>
</clipPath>
</defs>
</svg>
