<svg width="99" height="55" viewBox="0 0 99 55" fill="none" xmlns="http://www.w3.org/2000/svg">
<g clip-path="url(#clip0_1302_33388)">
<path d="M24.3052 19.04C24.9418 19.8898 25.4807 20.813 25.911 21.7911L13.7038 31.0819L8.60205 27.78V23.8076L13.7038 27.1095L24.3052 19.04Z" fill="white"/>
<path d="M3.39532 27.5003C3.39532 27.322 3.39953 27.145 3.40795 26.9689L0.316155 26.8125C0.305631 27.0407 0.29932 27.271 0.29932 27.5035C0.298005 29.32 0.644066 31.1188 1.31766 32.7969C1.99125 34.475 2.97911 35.9992 4.22457 37.2821L6.41766 35.0189C5.45895 34.0331 4.6984 32.8613 4.17972 31.571C3.66105 30.2807 3.39448 28.8973 3.39532 27.5003Z" fill="white"/>
<path d="M13.701 16.8599C13.8736 16.8599 14.0451 16.8664 14.2156 16.8751L14.3703 13.6818C14.1486 13.671 13.9255 13.6655 13.701 13.6655C11.9408 13.6633 10.1976 14.0201 8.57137 14.7154C6.94513 15.4107 5.46794 16.4308 4.22461 17.7171L6.4177 19.9814C7.37258 18.9913 8.50763 18.2057 9.75756 17.67C11.0075 17.1343 12.3476 16.859 13.701 16.8599Z" fill="white"/>
<path d="M13.7011 38.14C13.5285 38.14 13.3569 38.14 13.1855 38.1258L13.0308 41.318C13.2531 41.3296 13.4766 41.3354 13.7011 41.3354C15.4606 41.3373 17.2029 40.9803 18.8283 40.2848C20.4537 39.5893 21.9299 38.569 23.1723 37.2827L20.9834 35.0195C20.0283 36.0092 18.8934 36.7942 17.6437 37.3298C16.394 37.8653 15.0541 38.1406 13.7011 38.14Z" fill="white"/>
<path d="M19.51 18.7166L22.1156 16.7337C19.7341 14.7426 16.7613 13.6588 13.6968 13.6643V16.8598C15.7719 16.8571 17.7989 17.5046 19.51 18.7166Z" fill="white"/>
<path d="M27.1017 27.5002C27.1033 26.6689 27.0329 25.8391 26.8912 25.0208L24.0067 27.2155C24.0067 27.3101 24.0067 27.4046 24.0067 27.5002C24.0075 28.9868 23.7056 30.4571 23.1208 31.8156C22.536 33.1741 21.6811 34.3905 20.6118 35.3861L22.6923 37.7602C24.0825 36.4644 25.1935 34.8814 25.953 33.114C26.7127 31.3465 27.104 29.4339 27.1017 27.5002Z" fill="white"/>
<path d="M13.701 38.1401C12.261 38.1406 10.8369 37.8289 9.52095 37.2251C8.20506 36.6213 7.02662 35.7389 6.06199 34.635L3.76367 36.782C5.01855 38.2175 6.55166 39.3647 8.26359 40.1492C9.97551 40.9336 11.828 41.3378 13.701 41.3355V38.1401Z" fill="white"/>
<path d="M6.7902 19.6135L4.71077 17.2395C3.32016 18.535 2.20884 20.1179 1.44886 21.8854C0.68889 23.6529 0.297244 25.5656 0.299325 27.4994H3.39533C3.39469 26.0128 3.69657 24.5426 4.28139 23.1841C4.86622 21.8257 5.72095 20.6092 6.7902 19.6135Z" fill="white"/>
<path d="M77.6348 21.5765L81.4693 18.6929H68.6362V36.0211H81.4693V33.1375H72.298V28.6988H80.1215V25.8152H72.298V21.5765H77.6348Z" fill="white"/>
<path d="M60.0017 25.4437H55.5463V21.5758H62.6569L66.489 18.6833H51.8867V36.0116H59.5304C63.8159 36.0116 66.2753 34.0289 66.2753 30.5712C66.2753 27.2633 64.0476 25.4437 60.0017 25.4437ZM59.3656 33.127H55.5463V28.3256H59.3656C61.6834 28.3256 62.7702 29.1302 62.7702 30.7263C62.7702 32.3224 61.6139 33.127 59.3656 33.127Z" fill="white"/>
<path d="M90.9034 18.6909H83.918V36.0191H87.5793V31.1103H90.9034C95.3602 31.1103 98.1172 28.7164 98.1172 24.8914C98.1172 21.0664 95.3602 18.6909 90.9034 18.6909ZM90.8262 28.2245H87.5793V21.5768H90.8262C93.1704 21.5768 94.4642 22.7579 94.4642 24.9019C94.4642 27.0459 93.1704 28.2245 90.8262 28.2245Z" fill="white"/>
<path d="M46.3925 31.9296C45.4467 32.4524 44.387 32.7231 43.3115 32.7167C40.0925 32.7167 37.7573 30.3709 37.7573 27.1406C37.7573 23.9103 40.0925 21.5594 43.3115 21.5594C44.4724 21.5392 45.6091 21.8986 46.5557 22.5849L49.1169 20.6595L48.9436 20.5339C47.4496 19.1931 45.4534 18.4829 43.1684 18.4829C40.6901 18.4829 38.4428 19.3341 36.8383 20.8825C36.027 21.6798 35.3854 22.6393 34.9533 23.701C34.5213 24.7627 34.3082 25.9039 34.3274 27.0534C34.3102 28.2146 34.5223 29.3674 34.9512 30.4431C35.38 31.5188 36.0167 32.4951 36.8233 33.3141C38.4352 34.9241 40.6775 35.8111 43.1383 35.8111C45.7095 35.8111 47.9569 34.8958 49.4785 33.2295L47.186 31.4861L46.3925 31.9296Z" fill="white"/>
</g>
<defs>
<clipPath id="clip0_1302_33388">
<rect width="98" height="55" fill="white" transform="translate(0.208008)"/>
</clipPath>
</defs>
</svg>
