<svg width="100" height="55" viewBox="0 0 100 55" fill="none" xmlns="http://www.w3.org/2000/svg">
<path fill-rule="evenodd" clip-rule="evenodd" d="M9.31279 25.203C11.5442 25.203 13.2265 24.363 13.8728 23.5865V20.7395C13.1293 22.0336 11.5442 23.0689 9.28064 23.0689C6.30494 23.0367 4.78493 21.0634 4.78493 18.541C4.78493 15.8241 6.53161 14.0124 9.34495 14.0124C11.2854 14.0124 12.8375 15.1449 13.614 16.2767V13.0743C12.8705 12.5245 11.3826 11.9104 9.34495 11.9104C5.0767 11.9104 2.29395 14.6594 2.29395 18.5418C2.29395 22.6806 5.10807 25.1716 9.31279 25.203ZM25.2903 12.0723H16.1373V24.9767H20.924C24.2236 24.9767 26.3256 23.521 26.3256 20.6755C26.3256 17.8284 24.5138 16.5029 20.9891 16.5029H18.4338V14.2072H25.2903V12.0723ZM18.4335 18.6372V22.8741H20.8915C22.7347 22.8741 23.8994 22.3251 23.8994 20.6105C23.8994 19.0576 22.8641 18.605 20.8915 18.605H18.4335V18.6372ZM30.7234 19.4135H36.6748V17.2786H30.7234V14.2064H37.3548V12.0715H28.4277V25.0088H37.547V22.8739H30.7234V19.4135ZM42.2061 20.9665V24.9775H39.9081V12.0715H44.2101C48.2854 12.0715 50.0312 13.5272 50.0312 16.4378C50.0312 19.4457 47.9944 20.9657 44.2101 20.9657H42.2046L42.2061 20.9665ZM42.2054 18.8632V14.2067V14.2059H44.4039C46.636 14.2059 47.6062 14.8208 47.6062 16.4052C47.6062 18.1518 46.5066 18.8632 44.3717 18.8632H42.2054Z" fill="white"/>
<path fill-rule="evenodd" clip-rule="evenodd" d="M95.4092 39.0457H93.2743C93.0878 39.0457 92.9011 39.0369 92.7237 39.0285L92.7236 39.0285C92.5631 39.0208 92.4102 39.0136 92.272 39.0136L89.6524 43.056H86.9677L89.9755 38.5603C88.2288 37.914 87.4531 36.6199 87.4531 34.6465C87.4531 31.6394 89.4908 30.1187 93.2422 30.1187H97.7057V43.0238H95.4092V39.0457ZM24.8046 37.4934H18.8532V40.9538H25.6767V43.0887H16.5575V30.1836H25.4838V32.3185H18.854V35.3907H24.8054V37.4926L24.8046 37.4934ZM6.36869 43.0559V39.0779H8.37419C12.1585 39.0779 14.1962 37.5579 14.1962 34.55C14.1962 31.6394 12.4495 30.1837 8.37419 30.1837H4.073V43.0559H6.36869ZM6.36853 36.9433V32.2861H8.56775C10.7999 32.2861 11.7701 32.901 11.7701 34.4853C11.7701 36.232 10.6705 36.9433 8.5356 36.9433H6.36853ZM41.8488 40.954H37.4504V30.1837H35.1539V40.954H30.7555V30.1837H28.459V43.0889H44.1453V30.1837H41.8488V40.954ZM55.3034 37.4934H49.352V40.9538H56.1771V43.0887H47.0555V30.1836H55.9826V32.3185H49.352V35.3907H55.3034V37.4934ZM60.834 37.4935H67.885V43.0889H70.1815V30.1837H67.8858V35.3916H60.8348V30.1837H58.5383V43.0889H60.834V37.4935ZM95.4103 36.9441H93.0809V36.9433C90.8165 36.9433 89.8793 36.2971 89.8793 34.7441C89.8793 32.9982 90.9459 32.2861 93.113 32.2861H95.4103V36.9441Z" fill="white"/>
<path d="M86.3857 28.1787H83.5072L75.8743 38.367V30.1842H73.0923V43.0894H75.5825L86.3857 28.1787Z" fill="white"/>
<path d="M84.9625 32.4167V43.0568H82.666V35.5211L84.9625 32.4167Z" fill="white"/>
</svg>
