<svg width="128" height="55" viewBox="0 0 128 55" fill="none" xmlns="http://www.w3.org/2000/svg">
<path d="M14.8984 17.3845C17.1293 23.0444 13.4918 26.6774 9.86857 30.3163C6.49648 34.0342 3.52615 37.8989 9.50035 44.854C7.26869 39.1948 10.9069 35.5611 14.5272 31.9259C17.9022 28.1999 20.8726 24.3404 14.8984 17.3845Z" fill="white"/>
<path d="M9.50001 10.1462C11.7346 15.8084 8.0987 19.4391 4.47244 23.0758C1.1011 26.7967 -1.86849 30.6613 4.10795 37.6165C1.8748 31.9528 5.51224 28.3229 9.13477 24.6862C12.5083 20.9646 15.475 17.1013 9.50001 10.1462" fill="white"/>
<path d="M101.379 32.5174V44.0862H106.447V39.8511H112.015V37.3189H106.447V35.0496H117.493V44.0862H122.562V35.0496H127.153V32.5174H101.379Z" fill="white"/>
<path d="M90.3076 41.6197V39.6143H96.9161V37.0799H90.3076V35.0938H98.7959V32.5616H85.2397V44.1304H98.9003V41.6197H90.3076" fill="white"/>
<path d="M36.8552 32.5616H22.8115V35.0938H27.2994V44.1304H32.3673V35.0938H36.8552V32.5616" fill="white"/>
<path d="M40.6924 39.747L43.0373 35.269L45.2816 39.747H40.6924ZM46.8611 32.5616H41.4288L35.1035 44.1304H38.3973L39.4371 42.1443H46.5398L47.5767 44.1304H53.1893L46.8611 32.5616Z" fill="white"/>
<path d="M79.021 32.5616V38.3452L70.9158 32.5616H66.9824V44.1304H70.4514V37.7654L78.7743 44.1304H82.4892V32.5616H79.021Z" fill="white"/>
<path d="M65.2605 32.5616H51.5112V35.0938H55.9984V44.1304H61.067V35.0938H65.2605V32.5616Z" fill="white"/>
</svg>
