<svg width="50" height="55" viewBox="0 0 50 55" fill="none" xmlns="http://www.w3.org/2000/svg">
<g clip-path="url(#clip0_1302_33443)">
<path d="M2.08853 54.0544C1.05599 53.417 0.354004 51.8047 0.354004 50.0704C0.354004 47.2064 1.18551 44.995 2.26245 44.995C2.55462 44.995 2.61501 45.6872 2.58517 48.694C2.55235 52.0001 2.60069 52.4509 3.04026 52.9378C3.69036 53.6578 5.06928 53.6641 5.73704 52.9501C6.01089 52.6572 6.37881 51.9058 6.55463 51.2802C6.85338 50.2171 6.82889 49.5401 6.38257 46.5239C6.23359 45.517 6.7027 44.8875 7.48951 45.0385C8.13325 45.162 8.42767 46.5913 8.30392 48.9922C8.17678 51.459 7.41211 53.28 6.19213 54.0211C5.16448 54.6454 3.07345 54.6623 2.08853 54.0544ZM8.724 54.165C8.65062 53.9745 8.86136 52.8469 9.1923 51.6592C9.61913 50.1274 9.92289 49.4751 10.2374 49.4147C10.4813 49.3679 10.6808 49.4463 10.6808 49.589C10.6808 49.7316 10.7977 50.1546 10.9406 50.529L11.2004 51.2098L12.2497 49.8874C13.6023 48.1827 14.0043 48.2609 14.7305 50.3701C15.0409 51.2717 15.4217 52.1357 15.5766 52.29C16.0815 52.793 16.7018 52.0987 17.0251 50.6687C17.3013 49.4471 17.684 48.8684 18.2232 48.8569C18.651 48.8478 18.9609 49.9691 18.8113 50.9846C18.6172 52.3016 19.0657 53.0324 20.0682 53.0324C20.4523 53.0324 20.9878 52.8329 21.2583 52.5891C21.6629 52.2243 21.7024 52.0251 21.4813 51.4639C21.0527 50.3762 21.1416 47.0652 21.6305 45.9046C22.482 43.8836 23.4059 43.4545 24.3451 44.6439C25.0672 45.5585 25.0663 48.1723 24.3432 50.139C23.4775 52.4931 23.4758 52.5065 23.9857 52.878C24.2479 53.069 24.7307 53.2253 25.0586 53.2253C25.5975 53.2253 25.6548 53.1081 25.6556 52.0036C25.6567 50.5959 26.3579 49.2487 27.3157 48.8139C28.1813 48.421 28.7094 48.6868 29.1499 49.7372C29.6013 50.8136 29.3592 51.629 28.3544 52.4164C27.8002 52.8507 27.7393 52.9916 28.0537 53.1118C28.8317 53.4092 29.9807 52.5071 30.6683 51.0591C31.0347 50.2876 31.3344 49.5477 31.3344 49.4148C31.3344 49.2819 31.4933 49.0418 31.6874 48.8813C32.1852 48.4698 32.4439 48.873 33.1132 51.1034C33.6976 53.0509 34.1627 53.4365 34.7064 52.4243C34.8837 52.0944 34.9308 51.4301 34.8262 50.7354C34.6271 49.4127 35.1475 48.3386 35.9874 48.3386C36.7974 48.3386 36.6885 50.4467 35.7878 52.2016C34.4267 54.8535 32.7866 55.237 31.9656 53.0954L31.521 51.9356L30.2954 53.0777C28.911 54.3678 27.5591 54.7877 26.5399 54.2443C26.0559 53.9863 25.7703 53.979 25.2575 54.2118C24.3098 54.642 23.752 54.5842 22.9753 53.9756L22.2917 53.4399L21.1809 53.9756C19.4285 54.8207 18.6068 54.6061 17.6805 53.0614C17.4237 52.6332 17.3669 52.6258 17.1453 52.9913C17.009 53.2162 16.6678 53.6791 16.387 54.0201C15.7149 54.8362 15.1822 54.5259 14.2143 52.7543C13.8148 52.0232 13.3327 51.4249 13.1431 51.4249C12.9534 51.4249 12.0291 52.1194 11.0889 52.9681C9.31924 54.5659 8.95033 54.7525 8.724 54.165ZM27.7082 51.8249C28.0783 51.3806 27.9735 50.3486 27.5439 50.2078C27.1191 50.0685 26.6249 51.081 26.8195 51.6919C27.0105 52.2912 27.2854 52.3324 27.7082 51.8249ZM23.5576 49.2578C23.8785 47.9879 23.9301 46.7947 23.6908 46.1734C23.0997 44.6391 22.2133 48.1936 22.7186 50.0718C22.9349 50.8758 23.218 50.6012 23.5576 49.2578ZM37.6944 53.9782C36.3279 52.9074 37.0502 49.3692 38.7205 48.9515C41.178 48.3371 42.0441 51.2752 39.7296 52.3747C38.6083 52.9074 38.5679 53.2253 39.6214 53.2253C40.6618 53.2253 41.6865 52.1445 42.3346 50.3637C42.8199 49.0301 43.3676 48.4968 43.5781 49.1531C43.6386 49.3417 43.7619 50.0457 43.8522 50.7177C43.9425 51.3896 44.1047 51.9393 44.2127 51.9393C44.3207 51.9393 44.6709 51.3622 44.9909 50.6567C45.934 48.5779 47.5382 47.6454 48.7786 48.4551C49.52 48.939 49.5496 49.7878 48.8405 50.2305C48.5059 50.4394 48.2762 50.388 47.8573 50.0104C47.0571 49.2889 46.6066 49.6853 45.3625 52.2055C44.0716 54.8206 43.5467 55.0311 42.9521 53.1722L42.5648 51.9618L41.9688 52.8702C40.9504 54.4222 38.9295 54.9461 37.6944 53.9782ZM39.0965 51.6731C39.3885 51.5174 39.5959 51.1362 39.5959 50.755C39.5959 50.2262 39.4863 50.1187 39.015 50.1854C38.5698 50.2484 38.4152 50.4628 38.3532 51.1034C38.2652 52.0128 38.3449 52.0738 39.0965 51.6731ZM17.4984 45.8919C17.2856 45.0473 17.8109 44.4334 18.662 44.5319C19.9431 44.6803 19.5803 46.5382 18.2701 46.5382C17.8351 46.5382 17.6147 46.3536 17.4984 45.8919ZM19.9453 40.2678C19.432 40.0851 18.6768 39.6992 18.2672 39.4103C17.8575 39.1214 17.0219 38.8017 16.4102 38.7C15.7985 38.5982 14.9853 38.2405 14.603 37.9051L13.9079 37.2954L14.6895 37.2873C15.7428 37.2763 16.6187 36.6237 16.6187 35.85C16.6187 35.5043 16.7146 35.2216 16.8319 35.2216C17.1136 35.2216 18.0262 36.2302 18.4027 36.9576C18.7624 37.6525 20.1578 37.774 20.4051 37.132C20.4907 36.9096 21.1685 36.4599 21.9113 36.1326C22.8847 35.7037 23.361 35.314 23.6176 34.7366C24.0393 33.7875 24.0922 33.7773 24.9804 34.4733C25.5411 34.9127 25.9493 34.995 27.2132 34.9234C28.6916 34.8396 28.7767 34.8682 29.1435 35.5724C29.614 36.4757 29.6148 36.5075 29.168 36.5075C28.9704 36.5075 28.729 36.8258 28.6315 37.2148C28.1248 39.2374 26.1702 39.3098 25.1595 37.3434C24.7719 36.5895 24.5993 36.61 23.229 37.5722C22.4114 38.1463 21.6843 38.4175 20.713 38.5105C19.5989 38.6171 19.4555 38.6812 19.9353 38.858C20.7068 39.1424 22.449 38.7411 23.3617 38.0689C24.3011 37.377 24.4181 37.3925 25.0902 38.2981C25.6525 39.0557 27.4619 39.7832 27.9842 39.4616C28.4151 39.1963 28.8143 39.5958 28.4979 39.9757C28.012 40.559 26.4625 40.7036 25.7415 40.2329C25.1505 39.8472 25.0113 39.8459 24.0795 40.2173C22.862 40.7026 21.2228 40.7227 19.9453 40.2678ZM27.2875 36.8527C27.521 36.6201 26.9424 35.9647 26.6581 36.1398C26.3021 36.3589 26.3888 37.0219 26.7734 37.0219C26.9627 37.0219 27.1941 36.9458 27.2875 36.8527ZM29.6509 38.9088C29.1607 38.4205 29.2822 37.3043 29.9331 36.3145C30.2845 35.7802 30.4632 35.7285 31.4493 35.8759C32.2956 36.0023 32.8651 35.9115 33.7942 35.5021C34.7252 35.0918 35.106 35.0314 35.3723 35.2515C36.3121 36.0285 35.1677 37.9996 33.2814 38.8533C31.9558 39.4531 30.2239 39.4796 29.6509 38.9088ZM33.3423 37.6503C34.2158 37.0409 34.0702 36.5929 33.0378 36.713C32.3548 36.7924 32.1331 36.9525 32.0409 37.4329C31.8993 38.1711 32.4615 38.265 33.3423 37.6503ZM11.7136 36.4758C9.63856 35.6515 8.46786 32.9368 9.53368 31.4208C10.1204 30.5864 10.4221 30.7191 10.4264 31.8137C10.4337 33.6515 11.686 35.0158 13.3656 35.0158C14.5845 35.0158 15.0697 34.5935 15.0697 33.5326C15.0697 32.1927 14.0443 31.2372 12.7092 31.3331C11.5588 31.4158 12.2053 33.4212 13.3823 33.4212C14.3189 33.4212 14.3997 32.9919 13.4971 32.8121C12.9258 32.6982 12.7314 32.5303 12.7942 32.205C13.0121 31.0782 14.8115 32.0127 14.8115 33.2527C14.8115 33.9413 14.0804 34.7072 13.423 34.7072C12.7503 34.7072 11.5042 33.9928 11.2048 33.4354C10.7758 32.6368 10.8949 31.4075 11.4553 30.8492C12.0945 30.2125 13.6769 30.1637 14.5239 30.7547C15.2355 31.2512 16.0887 33.0051 16.0967 33.9878C16.1143 36.143 13.9577 37.3672 11.7136 36.4758ZM18.2252 35.5928C17.3432 34.9773 17.4939 34.45 18.5518 34.45C19.3251 34.45 19.5464 34.3012 20.1207 33.3949C20.7022 32.4771 20.8886 32.3543 21.5527 32.4515C22.142 32.5376 22.3009 32.4702 22.2492 32.1562C22.2124 31.9325 22.2666 31.6156 22.3696 31.4522C22.6721 30.9723 23.7913 31.6419 23.9346 32.3885C24.0939 33.2188 23.9087 33.4971 23.302 33.3391C22.9461 33.2464 22.8148 33.3489 22.8148 33.7194C22.8148 35.5138 19.8477 36.725 18.2252 35.5928ZM36.5494 35.4273C36.1778 35.0571 36.1402 34.45 36.4888 34.45C36.913 34.45 38.4957 32.9344 38.6381 32.392C38.85 31.5847 38.4019 31.7896 37.7866 32.7814C36.8297 34.3241 35.9168 34.5605 34.7696 33.5629L34.0452 32.933L35.4129 31.7319C37.1148 30.2371 36.9899 29.8908 35.2699 31.3357C33.8119 32.5605 32.8834 32.7292 32.8834 31.7693C32.8834 31.2921 33.0835 31.0805 33.7386 30.8651C34.2089 30.7105 35.0457 30.1228 35.5982 29.5592C36.3758 28.7659 36.7987 28.5344 37.4708 28.5344C40.7049 28.5344 41.1694 31.8536 38.331 34.6812C37.1836 35.8243 37.0177 35.8938 36.5494 35.4273ZM39.2156 30.3235C39.4489 29.9475 38.8548 29.306 38.2734 29.306C37.7254 29.306 37.6334 29.8201 38.0985 30.2834C38.4799 30.6634 38.9933 30.6819 39.2156 30.3235ZM31.2699 35.2009C30.6586 34.8462 30.699 34.0172 31.3443 33.6731C31.6337 33.5188 32.3598 33.4279 32.9578 33.4712C33.8878 33.5384 34.0581 33.6408 34.1343 34.1784C34.189 34.5647 34.0456 34.9364 33.7622 35.1428C33.2167 35.5402 31.9072 35.5707 31.2699 35.2009ZM26.0688 33.6098C24.7376 32.8495 24.1057 31.6227 24.1057 29.7987C24.1057 28.6134 24.2398 28.1699 24.8538 27.3255C25.886 25.906 28.0311 25.0897 29.377 25.6042C29.9568 25.8258 29.8826 26.1973 29.2045 26.4689C28.7314 26.6583 28.711 26.7045 29.0944 26.7178C29.3991 26.7283 29.5349 26.8928 29.4795 27.1842C29.4202 27.4957 29.105 27.6583 28.4557 27.7124C27.6762 27.7774 27.5393 27.8737 27.6465 28.2821C27.7475 28.667 27.5448 28.8656 26.7128 29.1973C25.5228 29.6716 25.1424 30.4748 25.6166 31.5118C26.3968 33.2175 30.0526 33.8517 29.6207 32.2065C29.4975 31.7371 29.379 31.6897 28.8391 31.8942C27.817 32.2813 26.9858 32.1753 26.3899 31.5817C25.8814 31.075 25.8704 31.0018 26.2608 30.7174C26.4954 30.5465 26.6874 30.2748 26.6874 30.1136C26.6874 29.7164 26.7988 29.7389 27.7783 30.3339C28.7103 30.9 30.5926 31.0196 31.7384 30.5857C32.417 30.3286 32.4302 30.3419 32.2737 31.1217C32.0607 32.1826 31.2091 33.3395 30.2942 33.8109C29.1886 34.3804 27.2571 34.2885 26.0688 33.6098ZM16.9742 33.3098C16.6727 33.0972 16.2939 32.4006 16.1325 31.7618C15.8257 30.5484 15.2452 29.9932 13.9516 29.6761C12.4724 29.3136 12.8532 28.2889 14.4701 28.2812C15.3748 28.2768 16.2459 29.1338 16.535 30.3123C16.7242 31.0838 17.0507 31.3542 17.8 31.3597C18.4942 31.3648 19.5313 32.4673 19.4153 33.0767C19.2976 33.6946 17.7319 33.8441 16.9742 33.3098ZM18.4259 32.5485C18.4259 32.1607 17.6763 31.7675 17.4212 32.0216C17.3353 32.1072 17.4903 32.3414 17.7657 32.542C18.3849 32.9931 18.4259 32.9935 18.4259 32.5485ZM7.33874 31.2057C5.65535 29.6388 5.44452 27.4737 6.77284 25.394C7.07006 24.9286 7.51037 24.1743 7.7513 23.7176C8.16701 22.9297 8.16526 22.8608 7.71696 22.3673C6.99748 21.5753 6.72329 21.7291 6.89935 22.826C7.17094 24.518 5.80458 25.7196 5.25285 24.274C4.97244 23.5392 4.95627 20.5187 5.22755 19.5516C5.51327 18.533 6.03375 18.5899 6.03375 19.6397C6.03375 20.912 6.46544 20.7985 6.68567 19.4683C6.87314 18.3359 7.20491 17.7322 7.63973 17.7322C7.79274 17.7322 7.83232 18.3633 7.74055 19.3397C7.5824 21.0224 7.60522 21.0048 8.41132 18.8253C8.69475 18.0589 9.07016 17.475 9.27942 17.475C9.74926 17.475 9.74479 17.909 9.26087 19.2754C8.64287 21.0204 8.84344 21.3316 9.59995 19.8015C9.98143 19.0299 10.4097 18.4512 10.5517 18.5155C11.0752 18.7525 10.6617 20.3823 9.38235 23.1251C8.31719 25.4085 8.1207 26.0365 8.34227 26.4489C8.49252 26.7286 8.61545 27.0229 8.61545 27.1029C8.61545 27.3581 7.61977 27.259 7.45108 26.9871C7.1973 26.578 6.80826 26.9592 6.80826 27.6169C6.80826 27.9524 7.25897 28.7035 7.84094 29.3377C8.85944 30.4477 9.08287 31.1506 8.63911 31.8487C8.46108 32.1287 8.18239 31.9909 7.33874 31.2057ZM17.9466 30.7122C17.0778 29.9839 16.4955 28.5548 16.7465 27.7669C16.954 27.1156 17.1906 27.1135 17.7759 27.7578C18.3266 28.364 19.6273 28.6514 20.7293 28.4103C21.691 28.1998 21.7516 27.6661 20.8785 27.0962C20.1464 26.6183 20.0593 26.0325 20.6121 25.3043C20.9528 24.8557 20.992 24.8504 20.9994 25.252C21.0039 25.4977 21.4767 25.9939 22.0501 26.3545C23.4366 27.2264 23.764 27.9681 23.3582 29.3176C22.9461 30.6878 21.8597 31.3613 20.0593 31.3626C19.0058 31.3634 18.5595 31.226 17.9466 30.7122ZM22.1547 29.7632C22.7728 28.8841 22.6897 28.4465 21.9757 28.8211C21.3213 29.1644 21.0174 29.5403 21.0116 30.0133C21.0051 30.5367 21.721 30.3801 22.1547 29.7632ZM28.4578 30.1598C28.2644 29.0513 28.3254 28.2772 28.6061 28.2772C29.1113 28.2772 29.8406 29.2155 29.7408 29.737C29.6523 30.1995 28.5293 30.5696 28.4578 30.1598ZM10.0225 29.8422C9.88758 29.7127 9.48677 29.568 9.13179 29.5207C8.3849 29.4211 8.11656 28.4903 8.65009 27.8499C8.83294 27.6304 9.10617 27.2037 9.25728 26.9018C9.58406 26.2488 10.2831 26.0668 11.0375 26.4382C11.3383 26.5864 11.8168 26.7436 12.1007 26.7877C12.7449 26.8878 12.9291 27.9018 12.4102 28.4914C12.2026 28.7272 11.9531 29.1806 11.8557 29.4989C11.7285 29.9148 11.4803 30.0776 10.9732 30.0776C10.5852 30.0776 10.1574 29.9717 10.0225 29.8422ZM10.939 28.1335C10.939 27.9296 10.7647 27.7628 10.5517 27.7628C10.1629 27.7628 10.021 28.3058 10.3296 28.6132C10.5705 28.8532 10.939 28.5631 10.939 28.1335ZM30.5523 29.6088C30.0303 29.1877 29.9924 29.0113 30.1793 27.8728C30.2938 27.1757 30.3594 26.3942 30.325 26.1359C30.2703 25.7242 30.3366 25.7044 30.8631 25.9751C31.1933 26.145 31.7249 26.5211 32.0444 26.811C32.7802 27.4787 32.8397 29.033 32.1531 29.652C31.5508 30.195 31.2696 30.1874 30.5523 29.6088ZM31.5926 27.6342C31.5926 27.4221 31.4764 27.2485 31.3344 27.2485C31.1924 27.2485 31.0762 27.4221 31.0762 27.6342C31.0762 27.8464 31.1924 28.02 31.3344 28.02C31.4764 28.02 31.5926 27.8464 31.5926 27.6342ZM33.1507 29.5801C32.978 29.2586 32.9689 28.8583 33.1251 28.4491C33.258 28.1008 33.2968 27.746 33.2112 27.6607C33.1256 27.5754 33.3073 27.5057 33.6149 27.5057C34.1971 27.5057 35.207 28.3321 35.207 28.8085C35.207 29.9662 33.6682 30.5436 33.1507 29.5801ZM40.8172 29.3262C40.7459 29.0544 40.2095 28.5891 39.6253 28.2922C38.8503 27.8983 38.5632 27.5939 38.5632 27.1661C38.5632 26.4226 39.0205 25.9625 39.7594 25.9625C40.1966 25.9625 40.3558 25.7914 40.4178 25.2552C40.4814 24.7043 40.6528 24.5302 41.1933 24.4681C42.741 24.29 43.2244 27.223 41.9429 29.016C41.2797 29.9438 40.9996 30.021 40.8172 29.3262ZM19.0282 27.7378C18.0219 27.4476 16.8769 26.1432 16.8769 25.287C16.8769 24.9372 17.0544 24.3089 17.2714 23.8909C17.645 23.1712 17.6974 23.1515 18.2601 23.5188C19.3165 24.2083 19.2169 23.6037 18.147 22.8316C16.6059 21.7194 16.5928 21.4125 18.0335 20.1673C19.0006 19.3315 19.2472 18.9671 19.1351 18.5399C18.9476 17.8256 19.2291 17.8415 19.9299 18.5846C20.6339 19.3311 20.6372 19.8797 19.9444 20.9964L19.3975 21.878L19.9444 22.4579C20.6322 23.1873 20.6318 23.7104 19.9424 25.1292C19.4973 26.0453 19.4474 26.3765 19.6787 26.8822C19.8355 27.2251 20.1475 27.5057 20.3719 27.5057C20.5963 27.5057 20.7081 27.6214 20.6204 27.7628C20.4337 28.0637 20.1421 28.0591 19.0282 27.7378ZM36.5986 27.5717C36.3447 27.1708 36.2652 27.164 35.8464 27.5074C35.4085 27.8665 35.3889 27.8413 35.5445 27.1199C35.636 26.6955 35.7733 26.1168 35.8495 25.8339C35.9258 25.551 35.8794 25.1533 35.7463 24.9502C35.3928 24.4105 34.6918 25.0585 34.6867 25.9297C34.6845 26.3014 34.5746 26.7758 34.4424 26.9841C34.2362 27.3089 34.1781 27.3005 34.0333 26.9245C33.8972 26.5711 33.7628 26.5405 33.339 26.7665C32.8594 27.0222 32.8283 26.9881 32.9825 26.376C33.109 25.8736 33.053 25.7053 32.7593 25.7053C32.0834 25.7053 32.3321 25.2622 33.093 25.1105C33.4923 25.031 34.0879 24.7489 34.4167 24.4837C35.2087 23.8448 34.9617 23.0861 33.7092 22.3102C32.8434 21.7739 32.8085 21.7111 33.3352 21.6365C33.7085 21.5837 33.9161 21.3769 33.9161 21.0578C33.9161 20.5042 34.324 20.3836 34.5078 20.8828C34.6024 21.14 34.6945 21.14 34.9682 20.8828C35.5894 20.299 35.7432 20.5456 35.5698 21.8473C35.4252 22.934 35.4638 23.1333 35.8191 23.1333C36.1471 23.1333 36.2396 22.8715 36.2396 21.9444C36.2396 20.9343 36.296 20.8021 36.6145 21.0655C36.8263 21.2406 37.2305 21.2992 37.5436 21.2002C38.0183 21.0501 38.0731 21.1024 37.9258 21.5647C37.8011 21.9563 37.865 22.1045 38.1585 22.1045C38.3811 22.1045 38.5632 22.2203 38.5632 22.3617C38.5632 22.5032 38.3944 22.6189 38.1881 22.6189C37.6544 22.6189 36.4978 23.1751 36.4978 23.4318C36.4978 23.722 38.08 23.7002 38.5508 23.4035C39.0848 23.067 39.4242 23.3625 39.0373 23.827C38.7706 24.1472 38.7916 24.2759 39.1538 24.5398C39.7103 24.9452 39.7302 25.2973 39.1847 25.0887C38.9104 24.9839 38.7285 25.1032 38.6383 25.447C38.4983 25.9802 38.0468 26.1685 38.0468 25.6936C38.0468 25.265 36.7777 24.1183 36.4957 24.292C36.0409 24.572 36.2198 24.9748 37.1937 25.8635C37.8689 26.4797 38.0198 26.7341 37.71 26.7341C37.4153 26.7341 37.2723 26.944 37.2723 27.3771C37.2723 28.1276 37.0003 28.2062 36.5986 27.5717ZM13.8434 27.3353C13.4618 27.1819 13.4033 25.7053 13.7788 25.7053C13.9208 25.7053 14.037 25.821 14.037 25.9625C14.037 26.1039 14.2113 26.2197 14.4243 26.2197C15.049 26.2197 14.8764 25.4931 13.8528 23.8145C13.3255 22.9497 12.7524 21.7193 12.5794 21.0802C12.3243 20.1387 12.2614 20.0571 12.2473 20.65C12.2377 21.0524 12.4764 22.1905 12.7778 23.1791C13.2115 24.6015 13.2665 25.1061 13.0415 25.5981C12.7365 26.2649 12.0108 26.4129 11.507 25.911C10.9986 25.4046 11.127 24.8768 11.7135 25.0623C12.1469 25.1993 12.2292 25.1092 12.2259 24.5009C12.2238 24.1024 12.0623 23.2555 11.8672 22.6189C11.5475 21.5763 11.497 21.5253 11.3583 22.1045C11.2736 22.4582 11.1736 23.2558 11.1361 23.8769C11.082 24.7757 10.9509 25.0492 10.4946 25.2162C10.0941 25.3627 9.79852 25.304 9.5149 25.0214C9.01024 24.5187 9.15885 24.0052 9.77651 24.1175C10.4238 24.2353 10.6723 23.7215 10.6769 22.2557C10.6813 20.8343 11.5363 19.1043 12.5667 18.4317L13.1828 18.0295L13.0651 19.2501C12.9364 20.5849 13.3703 21.6657 14.958 23.9651C16.0962 25.6136 16.2297 26.1164 15.7306 26.8753C15.3379 27.4723 14.6197 27.6474 13.8434 27.3353ZM29.7991 25.0787C29.5751 24.8098 29.5665 24.5696 29.7675 24.1954C30.2371 23.3213 30.0789 23.3063 29.131 24.1355C28.6291 24.5745 27.9669 24.9337 27.6594 24.9337C27.2246 24.9337 27.1693 24.8651 27.4102 24.625C27.5806 24.4553 27.72 23.8187 27.72 23.2105C27.72 22.3 27.8057 22.1045 28.2048 22.1045C28.4714 22.1045 28.8331 22.2769 29.0085 22.4875C29.3338 22.8779 29.7854 22.7909 29.7854 22.3379C29.7854 22.2 29.3758 21.8464 28.8751 21.5521C27.6414 20.827 27.3577 20.2405 27.7165 19.1573L28.0029 18.2929L29.0232 18.9584C29.9171 19.5414 30.0436 19.7458 30.0436 20.607C30.0436 21.1477 30.1597 21.5901 30.3017 21.5901C30.4437 21.5901 30.5599 21.2429 30.5599 20.8185C30.5599 19.9294 31.0073 19.8266 32.3776 20.4006L33.2219 20.7543L32.6009 21.1136C32.2593 21.3113 31.7475 21.5988 31.4635 21.7525C30.7721 22.1268 30.8081 22.7278 31.528 22.8297C31.9187 22.885 32.1089 22.7797 32.1089 22.5082C32.1089 21.904 32.5214 22.0168 33.4602 22.8776C34.2788 23.6282 34.2888 23.6618 33.8022 24.035C33.1484 24.5364 31.5542 24.561 31.7446 24.0667C31.9069 23.6452 31.1653 23.296 30.9263 23.6813C30.8347 23.829 30.8891 24.0785 31.0471 24.2359C31.2051 24.3934 31.3344 24.7305 31.3344 24.9851C31.3344 25.5567 30.2523 25.6227 29.7991 25.0787ZM39.9945 23.6993C39.9014 23.277 39.4939 22.4111 39.089 21.775C38.4907 20.8352 38.1059 20.5368 37.0356 20.1826C36.3111 19.9429 35.6214 19.5539 35.5028 19.3182C35.2551 18.8258 35.4236 16.7034 35.7104 16.7034C36.0147 16.7034 36.6442 17.536 36.9785 18.3806C37.1476 18.8079 37.6987 19.4857 38.2031 19.8866C38.7076 20.2876 39.3524 20.9796 39.6362 21.4244C40.0851 22.128 40.1287 22.1495 39.9715 21.5901C39.7674 20.8637 39.6532 20.696 38.1034 18.8478C36.8852 17.395 36.9606 17 38.3264 17.6793C39.0539 18.041 39.3406 18.45 39.9611 20.0109L40.7135 21.9038L41.0857 21.1961C41.4409 20.5207 41.4214 20.4601 40.6559 19.8633C39.6523 19.0808 39.6105 18.1897 40.5371 17.3341C41.5596 16.3901 41.7427 16.5279 41.5464 18.0933C41.3508 19.653 41.6579 20.12 42.289 19.2224C43.2695 17.8278 42.3323 15.9933 40.7966 16.3012C38.5408 16.7535 37.1443 16.7353 36.2461 16.2419C35.2568 15.6984 34.1743 13.9352 34.1743 12.8674V12.1986L36.3042 12.2934C38.7924 12.4042 39.5103 12.7095 40.446 14.0546C40.8239 14.5979 41.4849 15.2494 41.9148 15.5024C42.7938 16.0197 43.4684 17.1372 43.4684 18.0759C43.4684 18.4204 43.0037 19.3956 42.4357 20.243C41.2558 22.0033 41.1221 22.4571 42.0353 21.6024C43.2619 20.4545 43.9903 21.788 43.0255 23.4151C42.5131 24.2793 42.1776 24.3773 42.1776 23.6629C42.1776 22.7677 41.6005 22.7525 40.8667 23.6281L40.1637 24.467L39.9945 23.6993ZM38.9504 15.4174C39.0382 15.2759 39.3645 15.1584 39.6756 15.1563C40.0351 15.1538 40.1283 15.0808 39.9314 14.9561C39.761 14.8482 39.507 14.4738 39.3669 14.1242C39.1871 13.6753 39.1074 13.6207 39.0959 13.9385C39.0729 14.5701 38.4452 14.4989 37.9628 13.8099C37.6226 13.3241 37.5554 13.3035 37.544 13.6813C37.5366 13.9289 37.4525 14.1314 37.3572 14.1314C37.2619 14.1314 36.9515 13.9289 36.6674 13.6813C36.3833 13.4338 36.2438 13.3888 36.3574 13.5815C36.4824 13.7934 36.4235 14.0204 36.2082 14.1562C35.9552 14.3159 36.0575 14.3819 36.5624 14.3847C37.3345 14.389 37.4525 14.616 36.9496 15.1301C36.7656 15.3183 37.0415 15.2653 37.5918 15.0068C38.6313 14.5186 39.0956 14.6497 38.5684 15.2826C38.3647 15.527 38.3451 15.6746 38.5163 15.6746C38.6673 15.6746 38.8627 15.5589 38.9504 15.4174ZM15.4327 23.3036C14.452 22.1848 13.8634 19.4625 14.2874 18.0064C14.4288 17.5207 14.4962 17.0751 14.4372 17.0163C14.1967 16.7768 12.4633 17.5518 12.1075 18.0578C11.6383 18.7252 11.3369 18.4943 11.5538 17.6335C11.8081 16.6242 12.4229 16.189 13.5944 16.189C14.5817 16.189 14.6317 16.1568 14.2445 15.7711C14.0137 15.5412 13.5178 15.3531 13.1424 15.3531C12.5579 15.3531 12.4712 15.2562 12.5385 14.678C12.6596 13.6377 13.6368 13.6361 14.7122 14.6745L15.586 15.5183V14.6882C15.586 13.6784 16.1764 13.3712 16.8865 14.0115C17.4749 14.542 17.5541 15.1602 17.0336 15.1602C16.8358 15.1602 16.6113 15.3229 16.5347 15.5217C16.4152 15.832 16.4936 15.8322 17.088 15.5233C17.9386 15.0812 19.2482 15.0535 19.6651 15.4688C20.0214 15.8237 20.0877 17.2178 19.7484 17.2178C19.6238 17.2178 19.3772 17.0442 19.2004 16.832C19.0072 16.6001 18.4539 16.4493 17.8134 16.454C16.8974 16.4607 16.8203 16.5013 17.2641 16.7432C17.9171 17.099 18.4259 17.728 18.4259 18.1794C18.4259 18.5525 17.2068 19.7898 16.8392 19.7898C16.7179 19.7898 16.6187 19.3988 16.6187 18.9211C16.6187 17.9001 15.9495 17.1517 15.5703 17.7487C15.1242 18.4511 15.3192 20.4033 15.9758 21.8086C16.3294 22.5653 16.6187 23.2762 16.6187 23.3885C16.6187 23.8684 15.8815 23.8156 15.4327 23.3036ZM31.3372 19.4073C30.9364 18.9261 31.1912 17.842 31.7558 17.6261C32.2688 17.43 33.3998 18.1137 33.3998 18.6199C33.3998 19.5806 31.9444 20.1362 31.3372 19.4073ZM33.5289 19.5326C33.2905 19.1483 33.6222 18.761 34.1895 18.761C34.5185 18.761 34.6906 18.9376 34.6906 19.2754C34.6906 19.8209 33.8264 20.0122 33.5289 19.5326ZM29.9664 18.3412C29.8669 18.242 29.7854 17.9406 29.7854 17.6714C29.7854 17.311 29.9385 17.2037 30.3663 17.2642C30.746 17.3179 30.9472 17.5233 30.9472 17.8573C30.9472 18.3674 30.3089 18.6824 29.9664 18.3412ZM33.4361 17.9044C32.9974 17.3778 33.3573 16.6608 34.0135 16.7541C34.4042 16.8096 34.5615 17.0156 34.5615 17.4715C34.5615 18.2052 33.899 18.4601 33.4361 17.9044ZM5.0527 17.6807C4.88231 17.511 4.7429 17.0976 4.7429 16.7622C4.7429 16.2077 4.77978 16.189 5.14859 16.5564C5.38721 16.7941 5.99857 16.9613 6.63307 16.9623L7.71185 16.964L6.93734 17.475C6.04911 18.061 5.49513 18.1215 5.0527 17.6807ZM27.9885 17.3587C27.4509 16.7134 27.7703 16.0604 28.6236 16.0604C29.1571 16.0604 29.4183 16.2014 29.4805 16.5228C29.583 17.0531 29.1018 17.7322 28.6236 17.7322C28.4454 17.7322 28.1596 17.5641 27.9885 17.3587ZM31.6793 16.8147C31.5939 16.593 31.6478 16.2883 31.7991 16.1376C32.2007 15.7375 32.8834 16.0887 32.8834 16.6953C32.8834 17.3296 31.9146 17.4257 31.6793 16.8147ZM8.15074 16.652C7.71038 16.2133 7.76731 15.5275 8.28708 15.0097C8.70982 14.5885 8.742 14.6044 8.90057 15.3128C8.99261 15.724 9.1528 16.2629 9.25655 16.5105C9.3978 16.8475 9.32151 16.9606 8.95287 16.9606C8.68209 16.9606 8.32113 16.8217 8.15074 16.652ZM9.81723 16.233C9.58223 15.9744 9.38996 15.5168 9.38996 15.2164C9.38996 14.5244 9.91425 13.3598 10.2258 13.3598C10.6296 13.3598 11.9717 14.8404 11.9717 15.2859C11.9717 16.5885 10.6628 17.1639 9.81723 16.233ZM29.6524 16.1767C29.5601 15.8869 29.6246 15.4819 29.7957 15.2765C30.4832 14.4512 31.7925 15.1562 31.4674 16.1767C31.3497 16.546 31.0787 16.7034 30.5599 16.7034C30.0411 16.7034 29.7701 16.546 29.6524 16.1767ZM5.43135 16.0175C5.33669 15.9232 5.25924 15.6107 5.25924 15.3231C5.25924 14.9164 5.32808 14.8687 5.56904 15.1088C5.73943 15.2785 6.21836 15.4174 6.63333 15.4174C7.27471 15.4174 7.33964 15.4752 7.06643 15.8032C6.73859 16.1967 5.74232 16.3273 5.43135 16.0175ZM33.2397 15.8155C33.0427 15.3041 33.3345 14.903 33.9037 14.903C34.3992 14.903 34.7966 15.5528 34.5471 15.955C34.3175 16.3252 33.3983 16.2271 33.2397 15.8155ZM28.4174 15.2548C28.3178 15.1556 28.2364 14.8623 28.2364 14.603C28.2364 14.268 28.4286 14.1314 28.8998 14.1314C29.4392 14.1314 29.5477 14.239 29.4806 14.7075C29.399 15.2777 28.7669 15.603 28.4174 15.2548ZM31.6044 15.0458C31.0707 14.4051 31.3762 13.4985 32.1561 13.4087C33.1272 13.297 33.6354 14.2173 32.9931 14.9244C32.4587 15.5127 32.0249 15.5506 31.6044 15.0458ZM5.9193 14.6797C5.50137 14.5903 5.18188 14.4304 5.20933 14.3243C5.23678 14.2182 5.25924 13.8305 5.25924 13.4627C5.25924 13.0451 5.5889 12.4656 6.13701 11.9195C6.84158 11.2176 7.21781 11.0451 8.0436 11.0451C8.87556 11.0451 9.15949 11.1775 9.52758 11.7371C9.93105 12.3506 9.941 12.5033 9.61518 13.0816C9.18148 13.8514 7.68217 14.9159 7.09279 14.8726C6.8653 14.8558 6.33723 14.769 5.9193 14.6797ZM7.23552 13.4039C7.00053 13.1452 6.80648 12.769 6.8043 12.568C6.80093 12.2566 6.76536 12.2575 6.56415 12.5744C6.25905 13.0548 6.68801 13.8742 7.24461 13.8742C7.62676 13.8742 7.62598 13.8337 7.23552 13.4039ZM8.69956 12.2412C8.44333 11.937 8.21505 11.6514 8.19225 11.6066C8.16946 11.5619 8.08593 11.6298 8.00664 11.7576C7.80183 12.0878 8.5982 13.1436 8.9081 12.9528C9.06282 12.8575 8.97968 12.5738 8.69956 12.2412ZM41.1247 13.646C40.4258 12.9237 39.854 12.168 39.854 11.9665C39.854 11.7651 40.2053 11.5235 40.6347 11.4295C41.0641 11.3356 41.7588 10.9708 42.1785 10.619C42.5981 10.2672 43.0601 10.0524 43.205 10.1416C43.4876 10.3157 43.5125 12.7473 43.2442 13.9816C42.9911 15.1465 42.5014 15.069 41.1247 13.646ZM29.8019 14.2799C29.4011 13.7988 29.6555 13.3598 30.3349 13.3598C30.7209 13.3598 30.8328 13.5031 30.7715 13.9184C30.6684 14.6163 30.2211 14.7831 29.8019 14.2799ZM17.5955 13.9385C17.3788 13.691 17.0679 13.2312 16.9047 12.9167L16.6081 12.3451L15.7743 12.8515C14.0395 13.9053 11.8346 13.1866 12.0206 11.628C12.1061 10.9111 12.7462 10.478 12.7462 11.1371C12.7462 11.6986 13.2218 11.9133 13.6611 11.5501C14.2643 11.0513 14.1365 10.0661 13.4561 9.96987L12.8753 9.88768L13.5735 9.18039C14.5236 8.21796 15.8532 8.20495 16.6 9.15077C16.8943 9.5235 17.1351 9.99301 17.1351 10.1941C17.1351 10.4999 17.2292 10.4942 17.7088 10.1595C18.5292 9.58705 19.8926 9.63969 20.224 10.2566C20.5279 10.8223 20.5814 12.1555 20.3111 12.4248C20.2119 12.5236 19.9969 12.355 19.8332 12.0502L19.5355 11.4961L19.3909 12.0467C19.3082 12.3617 19.4075 12.7578 19.623 12.9725C19.9114 13.2598 19.9341 13.4696 19.72 13.8682C19.3688 14.522 18.142 14.5626 17.5955 13.9385ZM18.9096 11.3023C18.9006 10.676 18.8911 10.6794 18.5457 11.4309C18.3506 11.8552 18.1952 12.4918 18.2004 12.8454C18.2094 13.4717 18.2189 13.4683 18.5643 12.7168C18.7594 12.2925 18.9148 11.6559 18.9096 11.3023ZM15.435 10.0163C15.6007 9.12763 15.5981 9.1244 15.23 9.76431C15.025 10.1208 14.7887 10.8731 14.7051 11.4361L14.553 12.4596L14.91 11.6881C15.1064 11.2637 15.3427 10.5114 15.435 10.0163ZM17.6474 11.7524C17.6444 11.3005 17.5915 11.2556 17.4063 11.5472C17.2759 11.7526 17.2264 12.013 17.2964 12.1259C17.5203 12.4868 17.6515 12.3473 17.6474 11.7524ZM16.3493 11.4443C16.567 11.1831 16.5816 10.9337 16.3983 10.6084C16.1203 10.1151 16.1061 10.1332 15.6985 11.4952C15.5675 11.9327 15.9685 11.9014 16.3493 11.4443ZM27.6965 12.6552C27.5486 12.2677 27.5005 11.5636 27.5896 11.0905C27.7179 10.4093 27.8422 10.2686 28.1876 10.4136C28.4274 10.5144 28.885 10.6533 29.2045 10.7223C29.524 10.7914 29.7854 11.0079 29.7854 11.2036C29.7854 11.5821 30.4989 11.6775 30.9742 11.3626C31.131 11.2587 31.4405 10.8264 31.6619 10.4021L32.0645 9.63048L32.2301 10.2835C32.6283 11.8535 31.0879 13.3068 29.3668 12.9851C28.8278 12.8844 28.4945 12.9249 28.4945 13.091C28.4945 13.6328 27.9578 13.3397 27.6965 12.6552ZM32.4611 12.7186C32.3717 12.4864 32.4223 12.1731 32.5736 12.0224C32.967 11.6305 33.7123 11.9887 33.6095 12.5202C33.4951 13.1122 32.6678 13.2551 32.4611 12.7186ZM10.2585 12.2042C10.1691 11.972 10.2197 11.6588 10.371 11.508C10.7644 11.1162 11.5096 11.4743 11.4069 12.0058C11.2924 12.5979 10.4652 12.7407 10.2585 12.2042ZM34.1467 11.1745C33.3557 10.7461 32.6253 9.72027 32.6253 9.03762C32.6253 8.66366 32.9549 8.47646 34.0922 8.20466C35.2426 7.92973 35.5821 7.92242 35.6652 8.17077C35.7356 8.38136 36.0556 8.43431 36.6201 8.3288C37.3175 8.19845 37.5436 8.27624 37.887 8.76464C38.4865 9.6173 38.4173 10.6803 37.7312 11.1591C37.0193 11.6559 35.0514 11.6643 34.1467 11.1745ZM36.614 10.0488C36.4791 9.92519 35.8459 9.75959 35.207 9.68077C34.1542 9.55092 34.0922 9.57201 34.5463 9.90548C35.0819 10.2987 37.0345 10.4341 36.614 10.0488ZM9.48398 10.9182C9.39456 10.686 9.44519 10.3728 9.59649 10.222C9.98984 9.83017 10.7351 10.1883 10.6324 10.7198C10.5179 11.3119 9.69066 11.4548 9.48398 10.9182ZM5.14859 10.6409C4.66542 10.1595 4.62391 9.4661 5.0527 9.03893C5.50351 8.58981 5.77558 8.66023 5.77558 9.22602C5.77558 9.49867 6.06593 9.94927 6.4208 10.2274C6.95639 10.6471 6.99667 10.7595 6.65786 10.889C5.99968 11.1406 5.58116 11.0718 5.14859 10.6409ZM39.1259 10.7149C38.7237 10.2321 39.0835 9.85617 40.1315 9.66438C41.2351 9.46242 42.1776 8.65762 42.1776 7.91719C42.1776 7.47003 42.2417 7.43433 42.5648 7.70151C42.7778 7.87761 42.9521 8.33456 42.9521 8.71695C42.9521 10.2097 39.9925 11.7552 39.1259 10.7149ZM11.3707 10.3606C11.2793 10.2696 11.1298 9.63401 11.0385 8.94828C10.9472 8.26256 10.8078 7.70151 10.7287 7.70151C10.6497 7.70151 10.3247 7.94511 10.0066 8.24285C9.25539 8.94591 8.82715 8.65666 8.88079 7.48244C8.90436 6.96637 8.91239 6.45565 8.89863 6.34752C8.88487 6.23939 8.17987 6.4998 7.33196 6.92621C6.48405 7.35263 5.67081 7.70151 5.52477 7.70151C4.95003 7.70151 5.31366 6.81989 6.421 5.52863C7.05997 4.78352 7.58277 4.09957 7.58277 4.00873C7.58277 3.91788 7.08902 3.84178 6.48554 3.83962C5.88207 3.83745 5.22728 3.73408 5.03045 3.60989C4.65264 3.37153 4.67253 3.34727 6.27384 2.09429L6.90118 1.6034L5.95113 1.42584C5.37358 1.3179 5.00107 1.10158 5.00107 0.874141C5.00107 0.593815 5.34093 0.500881 6.35646 0.503512C8.84765 0.509967 9.56909 1.06296 8.22819 1.93823C7.33301 2.52257 7.41744 2.74173 8.61545 2.94337C9.18342 3.03897 9.64813 3.21872 9.64813 3.34282C9.64813 3.46692 9.27276 3.99437 8.81397 4.51493L7.97981 5.4614L8.80115 5.03828C10.0773 4.38086 10.2514 4.47147 10.0886 5.70823L9.94468 6.80132L10.5161 6.09403C11.318 5.1013 11.6702 5.20984 11.7678 6.47982L11.8519 7.57291L12.1961 6.4197L12.5404 5.26649L13.0074 5.841C13.628 6.6045 13.7788 6.56595 13.7788 5.64393C13.7788 4.70508 13.8791 4.69425 14.8712 5.52591C15.3 5.88536 15.6959 6.13461 15.7509 6.07979C15.806 6.02497 15.6752 5.56097 15.4603 5.04869C15.2455 4.53641 15.0697 3.99782 15.0697 3.85182C15.0697 3.50494 16.2519 3.51035 16.9082 3.86024C17.9245 4.4021 17.9794 3.92207 17.0219 2.86623C16.485 2.27416 16.1066 1.6315 16.1811 1.43811C16.3241 1.06704 18.209 0.5 19.2995 0.5C20.3454 0.5 20.3062 0.929409 19.2207 1.36209C18.6657 1.58331 18.1377 1.88352 18.0473 2.02921C17.9569 2.1749 18.4118 2.85728 19.058 3.5456C20.9031 5.51068 20.4662 6.15676 17.9018 5.25539C17.2938 5.04169 16.7467 4.91634 16.686 4.97682C16.6252 5.0373 16.8176 5.63194 17.1135 6.29824C18.1418 8.61409 17.7437 9.13689 15.989 7.77497C14.9964 7.00463 14.7307 6.89971 14.5384 7.20236C14.409 7.40616 14.3013 7.71758 14.2991 7.8944C14.2937 8.3358 13.7813 8.29781 13.2473 7.81643C12.8365 7.44603 12.7817 7.51063 12.4944 8.70388C12.1905 9.96586 11.7001 10.6888 11.3707 10.3606ZM30.2463 10.0806C30.0299 9.83302 29.9054 9.48581 29.9697 9.30899C30.1386 8.84438 29.1283 8.9073 28.6421 9.39166C28.2733 9.75908 28.2364 9.73932 28.2364 9.17432C28.2364 8.53481 28.944 7.70151 29.4871 7.70151C29.6556 7.70151 30.2564 7.84543 30.8221 8.02133C31.9265 8.3647 32.0724 8.73582 31.5511 9.87558C31.2003 10.6428 30.7938 10.7067 30.2463 10.0806ZM6.80826 9.75908C6.18806 9.14122 6.14507 8.39893 6.69761 7.84848C7.24793 7.30024 7.49869 7.33717 8.23993 8.07561C8.6353 8.46949 8.87362 9.00149 8.87362 9.49019C8.87362 10.189 8.79013 10.2735 8.09911 10.2735C7.66882 10.2735 7.09511 10.0449 6.80826 9.75908ZM38.8459 8.66599C38.6515 8.14731 38.726 8.06884 39.5642 7.90923C41.0668 7.62312 41.6612 7.66947 41.6612 8.07272C41.6612 8.6043 40.6378 9.24469 39.7883 9.24469C39.2724 9.24469 39.0002 9.07753 38.8459 8.66599ZM18.5756 7.78193C17.1001 5.77805 17.3858 5.33751 19.2449 6.75011C20.0234 7.34164 20.3622 7.78902 20.3622 8.22546C20.3622 9.32574 19.5671 9.12835 18.5756 7.78193ZM31.3802 7.27722C30.5184 6.98433 30.1809 6.96686 29.8983 7.20049C29.6054 7.44263 29.491 7.39156 29.3251 6.94469L29.1177 6.38635L28.3748 6.96854L27.6319 7.55073L27.8219 6.91883C27.9264 6.57128 28.076 6.08438 28.1543 5.83683C28.2496 5.53531 28.1588 5.38674 27.8792 5.38674C27.3434 5.38674 27.3517 5.16274 27.9102 4.54787C28.3372 4.07788 28.3341 4.03621 27.8457 3.67583C27.3523 3.31177 27.3507 3.28414 27.8029 2.95004C28.2457 2.62297 28.2483 2.55505 27.8484 1.78466C27.316 0.759028 27.4585 0.609259 28.4705 1.13063C29.2362 1.52508 29.2691 1.52057 29.2691 1.021C29.2691 0.450241 29.5334 0.351811 29.9504 0.767273C30.136 0.952171 30.5827 0.937567 31.3996 0.719887C32.3343 0.470838 32.8036 0.471811 33.6504 0.724552C34.9965 1.12633 35.6092 1.73271 36.0075 3.05723C36.8617 5.89751 34.2714 8.2598 31.3802 7.27722ZM34.1097 5.75846C34.9246 4.83601 34.9097 3.09713 34.0787 2.13468C33.6198 1.60328 33.2322 1.42591 32.5296 1.42591C32.0143 1.42591 31.4474 1.57826 31.2699 1.76446C31.0055 2.04183 31.1023 2.08191 31.8054 1.98624C32.5391 1.88641 32.6456 1.93805 32.5395 2.34212C32.4451 2.70172 32.5604 2.81477 33.0215 2.81477C33.8495 2.81477 34.0485 3.24049 33.3856 3.59392C32.8848 3.86094 32.8737 3.92097 33.2493 4.33437C33.8293 4.97284 33.7619 5.12954 32.9076 5.12954C32.2712 5.12954 32.1789 5.21198 32.2998 5.6726C32.4298 6.16783 32.3651 6.20096 31.5657 6.04871L30.689 5.88176L31.3344 6.27859C32.1921 6.80591 33.3814 6.58302 34.1097 5.75846ZM30.8038 4.73496C30.9594 4.83075 31.0099 4.74226 30.9252 4.5224C30.8372 4.29372 30.9651 4.09811 31.2509 4.02449C31.6993 3.90899 31.6989 3.90181 31.2422 3.87339C30.9203 3.85336 30.8133 3.71246 30.9166 3.4444C31.0053 3.21398 30.9617 3.11215 30.8133 3.20351C30.6719 3.29055 30.49 3.18977 30.409 2.97956C30.282 2.64977 30.2011 2.65636 29.8189 3.02755C29.3601 3.47324 29.3164 3.90362 29.6506 4.68601C29.7992 5.03389 29.9281 5.07456 30.1915 4.85677C30.3817 4.69952 30.6572 4.64471 30.8038 4.73496ZM35.8971 7.01729C35.8033 6.92388 35.9582 6.68584 36.2413 6.48831C36.5572 6.26787 36.756 5.83679 36.756 5.37215C36.756 4.53464 37.0356 4.40683 37.5408 5.01335C37.9685 5.52674 38.9195 5.39217 39.0324 4.8023C39.0968 4.46571 38.7598 4.18613 37.7442 3.73361C36.8859 3.35121 36.5143 3.0709 36.756 2.98814C36.969 2.9152 37.4877 2.75127 37.9086 2.62386L38.674 2.39219L37.2944 1.73898C35.6927 0.980614 35.8642 0.721514 37.9984 0.674963C39.9686 0.63199 40.2098 0.814759 40.0185 2.20569C39.9266 2.87326 39.9667 3.32916 40.1171 3.32916C40.2564 3.32916 40.4575 3.3581 40.564 3.39346C40.6705 3.42883 40.8157 2.89082 40.8867 2.19789C41.0297 0.802009 41.485 0.33437 42.4603 0.5817C43.0433 0.729552 43.0859 0.866548 43.1598 2.8295C43.2529 5.30503 42.9434 5.95359 41.3184 6.68862C40.5508 7.0358 39.6415 7.17744 38.1544 7.18147C37.0066 7.18457 35.9908 7.11069 35.8971 7.01729ZM41.6038 5.24355C42.1777 4.84309 42.417 3.58636 41.9194 3.58636C41.7774 3.58636 41.6612 3.76549 41.6612 3.98444C41.6612 4.20338 41.3538 4.66633 40.9781 5.01322C40.2069 5.72524 40.6694 5.89552 41.6038 5.24355ZM42.1776 1.52879C42.1776 1.38733 42.0614 1.27159 41.9194 1.27159C41.7774 1.27159 41.6612 1.38733 41.6612 1.52879C41.6612 1.67024 41.7774 1.78598 41.9194 1.78598C42.0614 1.78598 42.1776 1.67024 42.1776 1.52879ZM5.00107 5.27624C5.00107 4.5619 5.82792 3.96704 6.47632 4.21491C6.82846 4.34953 6.81827 4.43502 6.39449 4.90153C6.12826 5.1946 5.70583 5.54347 5.45575 5.67681C5.07798 5.87822 5.00107 5.81047 5.00107 5.27624ZM11.9717 4.37938C11.9717 3.53369 11.7342 3.41958 10.8999 3.86439C10.1738 4.2515 10.0448 4.00739 10.5608 3.22288L10.9984 2.55757H10.0651C8.99579 2.55757 8.81915 2.17712 9.77721 1.93756C10.4466 1.77018 10.6148 1.42025 10.1603 1.1404C10.0159 1.05155 9.96471 0.871109 10.0464 0.739425C10.2778 0.366475 11.3761 0.457857 11.8057 0.885795C12.2988 1.37702 12.6113 1.37146 13.3988 0.857443C13.8222 0.581085 14.27 0.502487 14.7448 0.621206C15.4292 0.792326 15.4372 0.813043 14.9555 1.16395C14.4599 1.52501 14.4599 1.5327 14.9558 1.9064C15.2314 2.11409 15.5441 2.2877 15.6506 2.2922C15.7571 2.2967 15.8442 2.41612 15.8442 2.55757C15.8442 2.69903 15.4957 2.81477 15.0697 2.81477C14.2517 2.81477 14.1306 3.05663 14.5541 3.84486C14.9392 4.56186 14.3417 4.79571 13.8632 4.1152C13.3902 3.44246 12.9399 3.54031 12.7462 4.35795C12.5244 5.29369 11.9717 5.30898 11.9717 4.37938ZM19.2602 2.93038C18.4299 2.35102 18.5497 2.04318 19.6056 2.04318C20.4047 2.04318 20.5162 2.11743 20.4447 2.60173C20.3375 3.32751 19.9739 3.4284 19.2602 2.93038Z" fill="white"/>
</g>
<defs>
<clipPath id="clip0_1302_33443">
<rect width="49" height="55" fill="white" transform="translate(0.354004)"/>
</clipPath>
</defs>
</svg>
