<svg width="48" height="55" viewBox="0 0 48 55" fill="none" xmlns="http://www.w3.org/2000/svg">
<path d="M38.9236 2.57373H42.9615V22.4755H38.9236V2.57373Z" fill="white"/>
<path d="M13.6862 15.8631C13.6862 19.5967 10.8431 22.4763 7.12495 22.4763C3.41425 22.4763 0.501709 19.5967 0.501709 15.8631V2.57453H4.44046V15.8631C4.44046 17.3724 5.6377 18.5888 7.12495 18.5888C8.61964 18.5888 9.80697 17.3724 9.80697 15.8631V2.57453H13.6862V15.8631Z" fill="white"/>
<path d="M32.3448 48.4001H19.0735V28.5058H23.0965V44.3538H32.3448V48.4001Z" fill="white"/>
<path d="M32.3448 22.4731H28.3118L23.0965 11.0713V22.4731H19.0735V2.57136H23.0965L28.3118 13.9559V2.57136H32.3448V22.4731Z" fill="white"/>
<path d="M7.12077 28.5056C3.41502 28.5056 0.5 31.4796 0.5 35.0791V41.8264C0.5 45.3788 3.41502 48.3999 7.12077 48.3999C7.56942 48.3999 8.00569 48.3528 8.42212 48.2758L9.80526 52.429H13.6845L11.8478 46.4512C12.9235 45.2199 13.6845 43.5443 13.6845 41.8264V35.0791C13.6845 31.4796 10.8414 28.5056 7.12077 28.5056ZM9.80526 41.8264C9.80526 43.1347 8.61794 44.3535 7.12077 44.3535C5.63599 44.3535 4.43875 43.1347 4.43875 41.8264V35.0791C4.43875 33.5921 5.63599 32.3981 7.12077 32.3981C8.61794 32.3981 9.80526 33.5921 9.80526 35.0791V41.8264Z" fill="white"/>
<path d="M40.9364 28.5063C37.2207 28.5063 34.3701 31.4803 34.3701 35.0798V41.8271C34.3701 45.3795 37.2207 48.4006 40.9364 48.4006C44.6446 48.4006 47.5001 45.3795 47.5001 41.8271V35.0798C47.5001 31.4803 44.6446 28.5063 40.9364 28.5063ZM43.6283 41.8271C43.6283 43.1354 42.4137 44.3542 40.9364 44.3542C39.4516 44.3542 38.2444 43.1354 38.2444 41.8271V35.0798C38.2444 33.5928 39.4516 32.3988 40.9364 32.3988C42.4137 32.3988 43.6283 33.5928 43.6283 35.0798V41.8271Z" fill="white"/>
</svg>
