<svg width="94" height="55" viewBox="0 0 94 55" fill="none" xmlns="http://www.w3.org/2000/svg">
<g clip-path="url(#clip0_1302_33273)">
<path fill-rule="evenodd" clip-rule="evenodd" d="M21.792 29.2389H32.1329C32.3289 29.2367 33.9295 29.1053 33.9295 27.2752C33.9317 22.7689 30.4862 19.1021 26.2524 19.1021C22.021 19.1021 18.5776 22.7689 18.5776 27.2774C18.5776 27.3396 18.5801 27.4694 18.582 27.5711V27.5721C18.5832 27.6372 18.5842 27.6906 18.5842 27.7071C18.5776 32.8546 21.8492 35.6242 26.1776 35.8802C26.3846 35.8914 26.5871 35.8981 26.7853 35.8981C28.4497 35.8981 29.8543 35.4617 31.38 34.4865C31.5363 34.3886 32.1462 33.9767 32.7692 33.164C33.2646 32.5184 33.3086 31.5499 32.7692 31.0467C31.9921 30.3209 31.1929 30.7128 30.4796 31.3273L30.4686 31.3367C29.3533 32.2962 28.4842 33.0438 26.2568 33.046C24.1499 33.046 22.1575 31.8304 21.6841 29.4014C21.6665 29.3168 21.7149 29.2389 21.792 29.2389ZM21.6775 26.2221C21.9659 23.8621 23.5709 21.7693 26.248 21.7693C28.9252 21.7693 30.6204 23.8198 30.8891 26.2221C30.8979 26.3089 30.8428 26.3913 30.7592 26.3913H21.8074C21.7238 26.3913 21.6665 26.3111 21.6775 26.2221Z" fill="white"/>
<path d="M63.1959 21.0234L69.3406 33.282C69.673 33.9454 69.5258 34.7447 69.0238 35.239C69.0192 35.2456 69.0128 35.2501 69.0059 35.2568C68.9816 35.279 68.9578 35.3013 68.9335 35.3214C68.927 35.3264 68.9206 35.3313 68.9147 35.3361L68.9005 35.347C68.8959 35.3504 68.8913 35.3538 68.8867 35.3572C68.8803 35.3622 68.8739 35.3673 68.8674 35.3725C68.8569 35.3812 68.8468 35.3884 68.8358 35.3964L68.8253 35.4037C68.8166 35.4093 68.8083 35.4154 68.8001 35.4215C68.7955 35.4249 68.7909 35.4284 68.7863 35.4317C68.7826 35.4343 68.779 35.4369 68.7748 35.4394C68.7721 35.4416 68.7689 35.4437 68.7661 35.4455C68.7615 35.4481 68.757 35.4503 68.7528 35.4525L68.746 35.4558C68.7437 35.4569 68.7418 35.4582 68.7395 35.4594C68.7354 35.4616 68.7313 35.4644 68.7276 35.4672C68.7235 35.47 68.7198 35.4728 68.7152 35.475C68.7102 35.4784 68.7052 35.4814 68.6997 35.4842C68.6905 35.489 68.6809 35.4931 68.6712 35.4973C68.6318 35.5195 68.5919 35.5395 68.5502 35.5573C68.5479 35.5585 68.5456 35.5595 68.5429 35.5605C68.5401 35.5616 68.5369 35.5626 68.5337 35.5636C68.5291 35.565 68.5241 35.5665 68.5195 35.5685C68.3498 35.6331 68.1761 35.6664 68.0042 35.6664C67.4627 35.6664 66.9387 35.3548 66.6655 34.8115L61.065 23.0516C61.0526 23.026 61.0402 22.9992 61.0278 22.9718C60.9361 22.771 60.8298 22.5377 60.6244 22.475C60.5364 22.4483 60.4066 22.4438 60.2833 22.4817C60.0839 22.5429 59.9647 22.8145 59.9138 22.9294C59.9074 22.944 59.9023 22.956 59.8977 22.9648L59.8849 22.9915L59.8757 23.0116L57.5665 27.7182L57.2515 28.3928C57.2185 28.4796 57.2758 28.5776 57.3661 28.5776H61.5844C62.3395 28.5776 62.9538 29.2299 62.9538 30.0359C62.9538 30.8396 62.3395 31.4942 61.5844 31.4942H55.9348C55.8624 31.4942 55.7964 31.5387 55.7634 31.6077L54.4843 34.3195L54.2573 34.8048C54.1826 34.9562 54.0877 35.0876 53.9777 35.2011C53.9722 35.2067 53.9667 35.2117 53.9612 35.2167C53.9557 35.2217 53.9502 35.2267 53.9447 35.2323C53.9204 35.2568 53.8965 35.2813 53.8699 35.3035C53.8392 35.3303 53.8062 35.3548 53.7732 35.3792C53.7686 35.3837 53.7622 35.3881 53.7553 35.3926C53.2932 35.7177 52.6811 35.7644 52.1635 35.4483C52.0031 35.3503 51.8711 35.2256 51.7606 35.0809C51.7496 35.0676 51.7386 35.0542 51.7298 35.0408C51.7257 35.0342 51.7211 35.028 51.7166 35.0219C51.7124 35.0158 51.7078 35.0097 51.7037 35.003C51.3668 34.5176 51.2984 33.8497 51.5822 33.282L51.5914 33.2641C51.5951 33.2576 51.5983 33.2503 51.6015 33.2426C51.6038 33.2373 51.6061 33.2318 51.6088 33.2263L57.7228 21.0256C57.9209 20.6182 58.1941 20.2664 58.5173 19.9881C59.0569 19.5206 59.7373 19.2556 60.4616 19.2556C61.6151 19.2556 62.6631 19.9324 63.1959 21.0234Z" fill="white"/>
<path d="M90.2014 19.2647C89.1731 19.2602 88.2727 19.9103 87.8413 20.8031C86.9239 22.695 84.832 27.054 83.5116 29.8059C82.8317 31.2219 82.3563 32.2125 82.3504 32.2224C82.3471 32.2278 82.3435 32.2348 82.3394 32.2428C82.3013 32.3141 82.216 32.4739 82.0579 32.4739C81.8924 32.4739 81.7956 32.2869 81.7649 32.2201L81.2175 31.0763L81.2171 31.0748L81.2157 31.0725C79.7789 28.0684 77.5696 23.4496 76.3381 20.91C75.7985 19.7946 74.8935 19.2625 73.9161 19.2625H73.9138C72.4101 19.2625 71.1929 20.5471 71.1929 22.2948V34.0124C71.1929 34.7248 71.5959 35.3839 72.2143 35.5909C73.2225 35.9249 74.088 35.0343 74.088 33.9812L73.8767 22.5598C73.8767 22.4418 74.0174 22.3995 74.0702 22.5019L79.6468 33.9166C80.1644 35.0098 81.0626 35.6622 82.0579 35.6622C83.0504 35.6622 83.949 35.0098 84.4684 33.9166L90.0474 22.5041C90.1024 22.3972 90.2477 22.4395 90.2477 22.5642L90.0341 34.0502C90.0341 34.9586 90.7057 35.6911 91.5268 35.6622C92.3195 35.6354 92.9293 34.8651 92.9293 33.9812V22.2993C92.9316 20.5337 91.7098 19.2714 90.2014 19.2647Z" fill="white"/>
<path d="M17.6689 19.4451C16.9247 19.0354 16.0111 19.3471 15.628 20.1397L10.1614 32.0421C10.0337 32.2981 9.92362 32.474 9.633 32.474C9.34239 32.474 9.23011 32.2981 9.10463 32.0421L3.6402 20.1375C3.25713 19.3449 2.34345 19.0354 1.59931 19.4429C0.855163 19.8525 0.56455 20.8255 0.94763 21.6158L6.89418 33.8833C7.4248 34.981 8.47494 35.6622 9.6352 35.6622C10.7933 35.6622 11.8434 34.981 12.3762 33.8833L18.3228 21.6158C18.7036 20.8277 18.4108 19.8548 17.6689 19.4451Z" fill="white"/>
<path fill-rule="evenodd" clip-rule="evenodd" d="M49.1453 29.2391H38.8045C38.7252 29.2391 38.6767 29.3171 38.6944 29.4016C39.1677 31.8306 41.1602 33.0463 43.2671 33.0463C45.4945 33.044 46.3635 32.2964 47.4788 31.3369L47.4898 31.3275C48.2031 30.713 49.0022 30.3211 49.7793 31.047C50.3189 31.5501 50.2749 32.5186 49.7793 33.1643C49.1563 33.9769 48.5465 34.3888 48.3902 34.4867C46.8644 35.4619 45.46 35.8983 43.7955 35.8983C43.5974 35.8983 43.3948 35.8916 43.1879 35.8805C38.8595 35.6244 35.5879 32.8548 35.5945 27.7074C35.5945 27.6908 35.5935 27.6371 35.5922 27.5717C35.5904 27.47 35.5879 27.34 35.5879 27.2777C35.5879 22.7692 39.0312 19.1023 43.2649 19.1023C47.4967 19.1023 50.942 22.7692 50.942 27.2754C50.942 29.1055 49.3415 29.2369 49.1453 29.2391ZM43.2583 21.7695C40.5812 21.7695 38.9762 23.8623 38.6878 26.2224C38.6767 26.3114 38.734 26.3915 38.8155 26.3915H47.7694C47.8529 26.3915 47.9083 26.3092 47.8992 26.2224C47.6305 23.8201 45.9355 21.7695 43.2583 21.7695Z" fill="white"/>
</g>
<defs>
<clipPath id="clip0_1302_33273">
<rect width="93" height="55" fill="white" transform="translate(0.354004)"/>
</clipPath>
</defs>
</svg>
