<svg width="78" height="55" viewBox="0 0 78 55" fill="none" xmlns="http://www.w3.org/2000/svg">
<path d="M49.8364 16.1477C44.8498 16.1477 40.3936 18.7266 40.3936 23.4914C40.3936 28.9556 48.2969 29.333 48.2969 32.0781C48.2969 33.234 46.9694 34.2686 44.702 34.2686C41.4842 34.2686 39.0791 32.8229 39.0791 32.8229L38.0501 37.631C38.0501 37.631 40.8206 38.8523 44.4989 38.8523C49.9509 38.8523 54.2409 36.1467 54.2409 31.3005C54.2409 25.5265 46.3046 25.1603 46.3046 22.6124C46.3046 21.707 47.3944 20.7149 49.6553 20.7149C52.2063 20.7149 54.2875 21.7663 54.2875 21.7663L55.2946 17.1225C55.2946 17.1225 53.0301 16.1477 49.8364 16.1477ZM4.21401 16.4982L4.09326 17.1991C4.09326 17.1991 6.19113 17.5822 8.08059 18.3464C10.5134 19.2227 10.6867 19.7328 11.0965 21.3173L15.5613 38.4908H21.5464L30.7669 16.4982H24.7955L18.8708 31.4511L16.4532 18.7763C16.2314 17.3257 15.1084 16.4982 13.7337 16.4982H4.21401ZM33.1681 16.4982L28.4838 38.4908H34.178L38.8459 16.4982H33.1681ZM64.9268 16.4982C63.5537 16.4982 62.8262 17.2317 62.2924 18.5134L53.95 38.4908H59.9214L61.0767 35.1613H68.3516L69.0541 38.4908H74.323L69.7264 16.4982H64.9268ZM65.7034 22.4399L67.4734 30.6926H62.7314L65.7034 22.4399Z" fill="white"/>
</svg>
