<svg width="50" height="55" viewBox="0 0 50 55" fill="none" xmlns="http://www.w3.org/2000/svg">
<g clip-path="url(#clip0_1302_33316)">
<path fill-rule="evenodd" clip-rule="evenodd" d="M27.3997 42.7987C10.65 42.7987 1.09981 31.3261 0.708008 12.189H9.11955C9.40116 26.2082 15.5843 32.1465 20.4819 33.3709V12.2257H28.3424V24.3104C33.1788 23.7962 38.26 18.2864 39.9741 12.2257H47.8714C47.2227 15.3687 45.9333 18.3443 44.0838 20.967C42.2342 23.5897 39.8641 25.8031 37.1213 27.4693C40.1851 28.9908 42.8911 31.1449 45.0608 33.7895C47.2305 36.4341 48.8145 39.5089 49.708 42.8109H41.0149C39.1538 36.9828 34.4889 32.4893 28.3424 31.8771V42.8109L27.3997 42.7987Z" fill="white"/>
</g>
<defs>
<clipPath id="clip0_1302_33316">
<rect width="49" height="55" fill="white" transform="translate(0.708008)"/>
</clipPath>
</defs>
</svg>
