<svg width="144" height="55" viewBox="0 0 144 55" fill="none" xmlns="http://www.w3.org/2000/svg">
<path d="M3.1524 23.6606L8.06209 32.9239L13.747 32.9285L18.5728 23.6593L20.9917 23.6606V21.9807H13.7158V23.6593H15.8172L12.3031 30.4072L8.74168 23.6606L11.2956 23.6593L11.295 21.9807H0.738441L0.736328 23.6606H3.1524V23.6606ZM65.706 23.6562L65.705 21.9808L75.4395 21.9821V23.6562H73.015V31.218H75.263C77.3461 31.218 78.7116 29.7895 78.7116 27.8507H80.3175V32.9142L65.705 32.9154V31.2203H68.159L68.1559 23.6562H65.706V23.6562ZM42.0468 31.5107C40.2618 31.4772 39.477 29.4283 39.5113 27.3925C39.5467 25.284 40.5183 23.4456 42.1904 23.4758C43.8626 23.5063 44.7455 25.3799 44.7096 27.4873C44.6756 29.4756 43.8853 31.5455 42.0468 31.5107V31.5107ZM42.101 21.75C37.2129 21.75 34.6166 24.2825 34.6166 27.4602C34.6166 30.6818 37.1165 33.25 42.1293 33.25C47.1403 33.25 49.6137 30.6818 49.6137 27.4602C49.6137 24.2825 46.9899 21.75 42.101 21.75V21.75ZM96.9231 23.6606L101.833 32.9239L107.518 32.9285L112.343 23.6593L114.762 23.6606V21.9807H107.486V23.6593H109.588L106.074 30.4072L102.512 23.6606L105.066 23.6593L105.066 21.9807H94.509L94.5069 23.6606H96.9231V23.6606ZM135.82 31.5107C134.035 31.4772 133.251 29.4283 133.285 27.3925C133.32 25.284 134.292 23.4456 135.964 23.4758C137.636 23.5063 138.519 25.3799 138.483 27.4873C138.449 29.4756 137.659 31.5455 135.82 31.5107V31.5107ZM135.875 21.75C130.986 21.75 128.39 24.2825 128.39 27.4602C128.39 30.6818 130.89 33.25 135.903 33.25C140.914 33.25 143.387 30.6818 143.387 27.4602C143.387 24.2825 140.764 21.75 135.875 21.75Z" fill="white"/>
</svg>
