<svg width="88" height="55" viewBox="0 0 88 55" fill="none" xmlns="http://www.w3.org/2000/svg">
<path fill-rule="evenodd" clip-rule="evenodd" d="M6.49219 12.3052L5.01922 16.2805H25.4312L26.9042 12.3052H6.49219ZM4.28228 18.2672L2.80932 22.2416H23.2213L24.6943 18.2672H4.28228ZM2.07697 24.2293L0.604004 28.2037H21.016L22.4881 24.2293H2.07697Z" fill="white"/>
<mask id="mask0_1302_33307" style="mask-type:alpha" maskUnits="userSpaceOnUse" x="31" y="18" width="57" height="25">
<path d="M31.2288 42.695H87.1043V18.3438H31.2288V42.695Z" fill="white"/>
</mask>
<g mask="url(#mask0_1302_33307)">
<path fill-rule="evenodd" clip-rule="evenodd" d="M43.9989 29.7187V29.8026C44.9317 30.1399 45.8228 30.7298 46.2897 31.1086C47.7321 32.2884 48.3688 33.8471 48.3688 35.8693C48.3688 39.1985 46.5867 41.5996 43.6592 42.3582C42.7681 42.6108 41.8353 42.6955 40.0949 42.6955H31.2288V18.3438H39.0776C40.6899 18.3438 41.7926 18.4276 42.7681 18.6802C45.6112 19.4388 47.4778 21.3771 47.4778 24.452C47.4778 26.0954 46.8837 27.4863 45.9082 28.4126C45.484 28.8338 44.8899 29.3398 43.9989 29.7187ZM36.1501 32.2884V38.6925H39.5445C40.5618 38.6925 41.4955 38.6086 42.175 37.9764C42.8535 37.3441 43.1505 36.544 43.1505 35.4905C43.1505 34.6904 42.9379 33.9318 42.5138 33.3843C41.7926 32.4995 40.9015 32.2884 39.3746 32.2884H36.1501ZM36.1074 28.0753H38.865C39.7134 28.0753 40.1376 28.0753 40.5618 27.949C41.7081 27.6116 42.4293 26.6014 42.4293 25.2106C42.4293 23.568 41.6654 22.851 40.5618 22.5145C40.0949 22.3883 39.6289 22.3459 38.6952 22.3459H36.1074V28.0753ZM55.7508 42.6955V22.4297H48.6658V18.3438H68.352L66.9522 22.4297H60.6721V42.6955H55.7508ZM69.8788 42.6955V18.3438H85.8317L84.432 22.4297H74.7584V27.8227H78.7041C81.886 27.8227 83.5409 28.5813 84.6863 29.55C85.5774 30.3086 87.1043 31.9935 87.1043 35.3227C87.1043 38.6086 85.5347 40.4198 84.2195 41.3471C82.6926 42.3997 81.0803 42.6955 77.8131 42.6955H69.8788ZM74.7584 38.6086H78.4498C79.8495 38.6086 80.6979 38.2713 81.2919 37.5127C81.589 37.1339 82.0131 36.4592 82.0131 35.1955C82.0131 33.9318 81.589 33.047 80.7406 32.4147C80.2319 32.0359 79.5525 31.8257 78.4071 31.8257H74.7584V38.6086Z" fill="white"/>
</g>
</svg>
